<?xml version="1.0" encoding="utf-8"?>
<!-- Generator: Adobe Illustrator 23.0.2, SVG Export Plug-In . SVG Version: 6.00 Build 0)  -->
<svg version="1.1" id="e3f9207d-45bb-4c5f-8073-de7ce7a37f24"
	 xmlns="http://www.w3.org/2000/svg" xmlns:xlink="http://www.w3.org/1999/xlink" x="0px" y="0px" viewBox="0 0 837.5 607"
	 style="enable-background:new 0 0 837.5 607;" xml:space="preserve">
<style type="text/css">
	.st0{fill:#3F3D56;}
	.st1{fill:#CCCCCC;}
	.st2{fill:#FFB300;}
	.st3{fill:#FFFFFF;}
</style>
<path class="st0" d="M794.4,129H147.6c-6.4,0-11.6,5.2-11.6,11.6v382.1c0,6.4,5.2,11.6,11.6,11.6h646.8c6.4,0,11.6-5.2,11.6-11.6
	V140.6C806,134.2,800.8,129,794.4,129z M803.4,522.7c0,5-4,9-9,9H147.6c-5,0-9-4-9-9V140.6c0-5,4-9,9-9h646.8c5,0,9,4,9,9V522.7z"/>
<rect x="137" y="163" class="st0" width="669" height="2"/>
<circle class="st1" cx="154" cy="146.5" r="5"/>
<circle class="st1" cx="169" cy="146.5" r="5"/>
<circle class="st1" cx="184" cy="146.5" r="5"/>
<path class="st2" d="M448.5,488h-242c-4.7,0-8.5-3.8-8.5-8.5v-271c0-4.7,3.8-8.5,8.5-8.5h242c4.7,0,8.5,3.8,8.5,8.5v271
	C457,484.2,453.2,488,448.5,488z"/>
<path class="st3" d="M398.5,339h-142c-6.9,0-12.5-5.6-12.5-12.5s5.6-12.5,12.5-12.5h142c6.9,0,12.5,5.6,12.5,12.5
	S405.4,339,398.5,339z"/>
<path class="st3" d="M398.5,385.5h-142c-6.9,0-12.5-5.6-12.5-12.5s5.6-12.5,12.5-12.5h142c6.9,0,12.5,5.6,12.5,12.5
	S405.4,385.5,398.5,385.5z"/>
<path class="st3" d="M398.5,432.5h-142c-6.9,0-12.5-5.6-12.5-12.5s5.6-12.5,12.5-12.5h142c6.9,0,12.5,5.6,12.5,12.5
	S405.4,432.5,398.5,432.5z"/>
<path class="st3" d="M315,275.3h-55c-6.9,0-12.5-5.6-12.5-12.5s5.6-12.5,12.5-12.5h55c6.9,0,12.5,5.6,12.5,12.5
	S321.9,275.3,315,275.3z"/>
<path class="st1" d="M568.9,285.6l211.3,0.7c3,0,5.4,4.8,5.3,10.7l0,0c0,5.9-2.5,10.7-5.4,10.7L568.8,307c-3,0-5.4-4.8-5.3-10.7l0,0
	C563.5,290.4,565.9,285.6,568.9,285.6z"/>
<path class="st1" d="M483,345.9h295c4.2,0,7.5,4.7,7.5,10.5l0,0c0,5.8-3.4,10.5-7.5,10.5H483c-4.2,0-7.5-4.7-7.5-10.5l0,0
	C475.5,350.6,478.9,345.9,483,345.9z"/>
<path class="st1" d="M483,402.9h295c4.2,0,7.5,4.7,7.5,10.5l0,0c0,5.8-3.4,10.5-7.5,10.5H483c-4.2,0-7.5-4.7-7.5-10.5l0,0
	C475.5,407.6,478.9,402.9,483,402.9z"/>
<path class="st1" d="M483,464.4h295c4.2,0,7.5,4.7,7.5,10.5l0,0c0,5.8-3.4,10.5-7.5,10.5H483c-4.2,0-7.5-4.7-7.5-10.5l0,0
	C475.5,469.1,478.9,464.4,483,464.4z"/>
</svg>
