<?xml version="1.0" encoding="utf-8"?>
<!-- Generator: Adobe Illustrator 23.0.2, SVG Export Plug-In . SVG Version: 6.00 Build 0)  -->
<svg version="1.1" id="Layer_1" xmlns="http://www.w3.org/2000/svg" xmlns:xlink="http://www.w3.org/1999/xlink" x="0px" y="0px"
	 viewBox="0 0 1100 811.4" style="enable-background:new 0 0 1100 811.4;" xml:space="preserve">
<style type="text/css">
	.st0{fill:#575A89;}
	.st1{opacity:0.1;enable-background:new    ;}
	.st2{fill:#FBBEBE;}
	.st3{fill:#F05A90;}
	.st4{fill:#444053;}
	.st5{fill:#F6F8FB;}
	.st6{opacity:0.1;fill:#F05A90;enable-background:new    ;}
</style>
<title>feeling blue</title>
<path class="st0" d="M764.1,350.5l-2.8,3.5c0,0,0.3,14.9-1.9,18.5s6,24.6,9.1,23.3c3.1-1.3,10-34.1,10-34.5
	C778.5,360.9,764.1,350.5,764.1,350.5z"/>
<path class="st1" d="M790.4,408.1c-0.1,0.3-1,4.4-2.4,10.7C788.6,413.4,789.4,409.5,790.4,408.1z"/>
<path class="st1" d="M779.1,333.4c0,0,0.9,7.2-2.2,9C773.9,344.2,779.1,333.4,779.1,333.4z"/>
<path class="st1" d="M795.2,325.1c0,0-10.8,0.7-10.9,2.2C784.2,328.8,795.2,325.1,795.2,325.1z"/>
<path class="st1" d="M780.7,326.5L780.7,326.5l-1,1.5l-2.5-1.3l1.3-2C779.4,325.1,780.2,325.7,780.7,326.5z"/>
<path class="st2" d="M764.7,383.5c0,0,2.3-10.6-0.8-14c-3-3.4-2.1-21,2.6-20.7c4.6,0.4,11.5,14.4,10.4,17.3s-5.5,18.1-5.5,18.1
	L764.7,383.5z"/>
<ellipse class="st0" cx="768.1" cy="387.2" rx="6.9" ry="4.7"/>
<circle class="st3" cx="542.3" cy="411.1" r="237.4"/>
<path class="st4" d="M666.9,530.4c0,37.5-58.9,3.2-122.1,3.2s-127.1,32.9-127.1-4.6c0-21.4,20.4-51.1,49.6-72.7l0,0
	c22-16.3,49-27.9,76.2-27.9c27.9,0,55.3,12.6,77.1,29.9C648.1,480.1,666.9,509.5,666.9,530.4z"/>
<path class="st5" d="M620.6,458.3c-33.6-5.1-94.3-11.2-153.3-2c22-16.3,49-27.9,76.2-27.9C571.4,428.4,598.7,441,620.6,458.3z"/>
<ellipse class="st6" cx="203.1" cy="806.9" rx="26.9" ry="4.5"/>
<path class="st4" d="M457.9,380c4.5-0.3,25.8-1.9,39.3-9.6c2.2-1.3,4.6-2,7.1-2.1c4.3-0.1,9.2,1.7,6.1,11.7
	c-5.1,16.4-34.9,34.9-53.4,33.9c-17.8-1-38.8-8.1-52.8-33.3c-1.3-2.4-2-5.2-1.9-7.9c0.2-5.1,2-11.4,11.5-4.3
	c12.9,9.6,37.3,11.4,42.2,11.7C456.7,380,457.3,380,457.9,380z"/>
<path class="st4" d="M628.7,380c4.5-0.3,25.8-1.9,39.3-9.6c2.2-1.3,4.6-2,7.1-2.1c4.3-0.1,9.2,1.7,6.1,11.7
	c-5.1,16.4-34.9,34.9-53.4,33.9c-17.8-1-38.8-8.1-52.8-33.3c-1.3-2.4-2-5.2-1.9-7.9c0.2-5.1,2-11.4,11.5-4.3
	c12.9,9.6,37.3,11.4,42.2,11.7C627.6,380,628.1,380,628.7,380z"/>
</svg>
