<?xml version="1.0" encoding="utf-8"?>
<!-- Generator: Adobe Illustrator 23.0.2, SVG Export Plug-In . SVG Version: 6.00 Build 0)  -->
<svg version="1.1" id="Layer_1" xmlns="http://www.w3.org/2000/svg" xmlns:xlink="http://www.w3.org/1999/xlink" x="0px" y="0px"
	 viewBox="0 0 60 60" style="enable-background:new 0 0 60 60;" xml:space="preserve">
<style type="text/css">
	.st0{fill:#FDF38E;}
</style>
<g>
	<path class="st0" d="M27.7,8.8c-7.5,0-13.6,6.1-13.6,13.6c0,7.5,6.1,13.6,13.6,13.6c7.5,0,13.6-6.1,13.6-13.6
		C41.3,14.9,35.2,8.8,27.7,8.8z M27.7,29.7c-4,0-7.3-3.3-7.3-7.3c0-4,3.3-7.3,7.3-7.3c4,0,7.3,3.3,7.3,7.3
		C35,26.5,31.7,29.7,27.7,29.7z"/>
	<circle class="st0" cx="39.2" cy="5.1" r="3.6"/>
	<path class="st0" d="M32.3,39.6c-5.4-4.1-12.8-3.5-17.6,1c0,0,0,0,0,0c0,0,0,0-0.1,0.1c-0.1,0.1-0.2,0.2-0.3,0.3
		c-1,1.4-0.8,3.3,0.5,4.4c0,0,0.1,0.1,0.1,0.1c0,0,0.1,0.1,0.1,0.1c1.2,0.8,2.7,0.7,3.7-0.1c0.2-0.1,0.3-0.3,0.5-0.4
		c2.5-2.2,6.4-2.4,9.2-0.3c2.8,2.1,3.7,6,2.1,9c0,0,0,0,0,0c0,0.1-0.1,0.2-0.1,0.3c0,0,0,0,0,0c-0.6,1.3-0.3,3,1,3.9
		c1.4,1.1,3.4,0.8,4.5-0.6c0,0,0-0.1,0.1-0.1c0,0,0,0,0,0c0,0,0,0,0,0c0,0,0,0,0,0c0.2-0.2,0.3-0.5,0.4-0.7c0,0,0,0,0,0
		C39.1,50.7,37.6,43.6,32.3,39.6z"/>
</g>
</svg>
