<?xml version="1.0" encoding="utf-8"?>
<!-- Generator: Adobe Illustrator 23.0.2, SVG Export Plug-In . SVG Version: 6.00 Build 0)  -->
<svg version="1.1" id="Layer_1" xmlns="http://www.w3.org/2000/svg" xmlns:xlink="http://www.w3.org/1999/xlink" x="0px" y="0px"
	 viewBox="0 0 50 50" style="enable-background:new 0 0 50 50;" xml:space="preserve">
<style type="text/css">
	.st0{fill:#FDF38E;}
</style>
<g>
	<path class="st0" d="M25.1,7.3c-6.3,0-11.4,5.1-11.4,11.4c0,6.3,5.1,11.4,11.4,11.4c6.3,0,11.4-5.1,11.4-11.4
		C36.5,12.4,31.4,7.3,25.1,7.3z M25.1,24.8c-3.4,0-6.1-2.7-6.1-6.1c0-3.4,2.7-6.1,6.1-6.1c3.4,0,6.1,2.7,6.1,6.1
		C31.2,22,28.5,24.8,25.1,24.8z"/>
	<circle class="st0" cx="34.7" cy="4.2" r="3"/>
	<path class="st0" d="M28.9,33c-4.5-3.4-10.7-3-14.7,0.8c0,0,0,0,0,0c0,0,0,0-0.1,0.1c-0.1,0.1-0.2,0.2-0.2,0.3
		c-0.9,1.1-0.7,2.7,0.4,3.6c0,0,0.1,0.1,0.1,0.1c0,0,0.1,0.1,0.1,0.1c1,0.7,2.2,0.6,3.1-0.1c0.1-0.1,0.3-0.2,0.4-0.4
		c2.1-1.9,5.3-2,7.7-0.3c2.4,1.8,3.1,5,1.8,7.6c0,0,0,0,0,0c0,0.1-0.1,0.1-0.1,0.2c0,0,0,0,0,0c-0.5,1.1-0.2,2.5,0.8,3.3
		c1.2,0.9,2.8,0.7,3.7-0.5c0,0,0-0.1,0.1-0.1c0,0,0,0,0,0c0,0,0,0,0,0c0,0,0,0,0,0c0.1-0.2,0.2-0.4,0.3-0.6c0,0,0,0,0,0
		C34.7,42.3,33.4,36.4,28.9,33z"/>
</g>
</svg>
