<?xml version="1.0" encoding="utf-8"?>
<!-- Generator: Adobe Illustrator 23.0.2, SVG Export Plug-In . SVG Version: 6.00 Build 0)  -->
<svg version="1.1" id="f7e01b52-fe13-4534-b7fc-d479bcd2a427"
	 xmlns="http://www.w3.org/2000/svg" xmlns:xlink="http://www.w3.org/1999/xlink" x="0px" y="0px" viewBox="0 0 982.9 803"
	 style="enable-background:new 0 0 982.9 803;" xml:space="preserve">
<style type="text/css">
	.st0{opacity:0.1;fill:#32C742;enable-background:new    ;}
	.st1{fill:#3F3D56;}
	.st2{fill:#32C742;}
	.st3{fill:#35323E;}
	.st4{fill:#504F60;}
	.st5{fill:#A1616A;}
	.st6{opacity:0.1;enable-background:new    ;}
	.st7{fill:#464353;}
	.st8{opacity:4.000000e-02;enable-background:new    ;}
	.st9{fill:#FFFFFF;}
	.st10{opacity:0.1;}
	.st11{fill:#FBBEBE;}
	.st12{opacity:5.000000e-02;enable-background:new    ;}
	.st13{fill:#F86D70;}
	.st14{opacity:7.000000e-02;enable-background:new    ;}
</style>
<title>exams</title>
<path class="st0" d="M947.6,464c0,0.6,0,1.2,0,1.8c-0.1,10.3-0.7,20.5-1.8,30.7c0,0.1,0,0.1,0,0.2c-0.1,0.8-0.2,1.7-0.3,2.5
	c-0.2,1.4-0.3,2.9-0.5,4.3c-2.3,17.5-6,34.7-11.2,51.5l0,0c-7,22.7-16.9,44.5-29.4,64.7c-3.9,6.2-8,12.2-12.3,17.9l0,0
	c-2.3,3.1-4.7,6.1-7.1,9c-1.7,2.1-3.5,4.1-5.2,6.1l-1.1,1.2c-9.4,10.3-19.5,19.9-30.2,28.7c-17.6,14.6-36.5,27.2-55.7,39
	c-1.1,0.7-2.2,1.3-3.3,2c-0.1,0.1-0.2,0.1-0.2,0.1c-26.1,15.8-53.2,30-81.1,41.4c-30.5,12.5-62.1,21.6-94.4,25.6
	c-45.1,5.5-90.7,1-135.6-6.7c-37.3-6.4-74.1-15.2-110.3-26.3l-6-1.9c-3.1-1-6.2-2-9.2-3c-18.6-6.1-37-13-55.1-20.5
	c-45.6-18.8-89.2-42.2-130.1-69.8c-5.2-3.5-10.3-7.1-15.4-10.7c-7.1-5.1-14-10.3-20.9-15.7l-4.3-3.3c-18-14.1-34.9-29.7-50.6-46.4
	c-21-22.9-38.9-48.6-50.7-78.1c-1.9-4.6-3.6-9.3-5.1-14.1l-0.1-0.5c-0.8-2.4-1.5-4.9-2.2-7.4c-1-3.6-1.8-7.3-2.6-11
	c-0.2-0.7-0.3-1.4-0.4-2.1c-2.3-12.5-3.4-25.3-3.1-38c0.2-11.2,1.6-22.3,3.9-33.2l0,0c2.4-11.3,6.1-22.3,11.1-32.8l0,0
	c4.5-9.4,10.1-18.2,16.9-26.1l0,0c4.8-5.5,10.1-10.5,15.9-14.9c10.6-7.9,22.3-13.4,34.5-17.7l0,0c5.7-2,11.5-3.8,17.3-5.5
	c4.1-1.2,8.3-2.3,12.4-3.4l12.2-3.3c7.8-2.1,15.6-4.3,23.3-6.7c21-6.4,41.5-14.1,60.5-25.7c3-1.8,6.1-3.8,9.1-6
	c3.9-2.7,7.7-5.7,11.6-8.8l0,0c3.8-3.2,7.6-6.7,11.2-10.3c0.6-0.6,1.1-1.1,1.6-1.7c2.9-3.1,5.8-6.3,8.4-9.7c1.3-1.6,2.5-3.3,3.7-5
	c1.6-2.4,3.2-4.7,4.7-7.2l0,0c7.2-12.3,11.7-25.9,11.2-40.1c-0.1-2.4-0.3-4.7-0.6-7c-1.3-8.6-2.5-17-3.4-25.3
	c-3.8-34-2.2-64.9,23.4-93.9c31.7-36,81.6-43.4,126.9-40.5c131.1,8.3,250.5,83.2,355.4,172.3c9.1,7.7,18,15.5,26.9,23.4
	c2.2,2,4.5,4,6.7,6c16.6,14.9,32.9,30.4,48.1,47c1.2,1.3,2.5,2.7,3.7,4c0.7,0.8,1.5,1.7,2.2,2.5c4.7,5.4,9.3,10.9,13.8,16.5
	c12,14.9,22.5,30.9,31.5,47.8c13.8,26.5,23.2,55,27.7,84.6l0,0c1.7,10.7,2.8,21.5,3.3,32.4c0.2,3.2,0.3,6.4,0.3,9.6c0,1,0,2,0,3.1
	C947.6,461,947.6,462.5,947.6,464z"/>
<polygon class="st1" points="396.3,447.6 380.7,725.5 396.3,725.7 409,443.7 "/>
<rect x="145.6" y="588.4" class="st2" width="193.2" height="42"/>
<path class="st1" d="M351.5,625.5v26.3H151.9c-7.1-5.1-14-10.3-20.9-15.7v-10.6H351.5z"/>
<path class="st3" d="M391.3,565.5c-0.5,2.5-1.3,5-2,7.5c-2.2,7.2-4.9,14.3-5.4,21.8c-0.7,9.9,2,21.4-4.9,28.5
	c-1.8,1.9-4,3.2-5.6,5.2c-0.2,0.3-0.5,0.6-0.7,1c-1.4,2.3-1.6,5.2-1.6,7.8c0,5.7,0.4,11.3,1.1,16.9c2.3,19.3,6.9,38.7,0.9,56.9
	c-1.1,3.2-2.4,6.3-3.8,9.3c-2.9,6.4-6.1,12.8-7.1,19.8c-0.7,5.2-0.5,10.5-0.5,15.8c-3.1-1-6.2-2-9.2-3c-18.6-6.1-37-13-55.1-20.5
	c0-0.3,0.1-0.5,0.1-0.8c1.4-8.7-0.5-17.6-2.8-26c-4.9-17.9-11.8-35.7-15.9-53.8c-1.6-7.1-2.7-14.2-3.2-21.5
	c-0.1-1.6-0.2-3.2-0.2-4.9c0-2.1,0-4.3,0.1-6.4c0.2-4.3,0.4-9.4-3-12c-1.9-1.4-4.4-1.7-6.6-2.5c-4.2-1.6-7.1-5.5-10.5-8.5
	c-3.3-3.2-7.8-4.5-12.3-3.6c-21.9,5-38.1,23.6-58.5,33c-0.8,0.4-1.6,0.7-2.4,1.1c-2.6,1-5.2,2.3-7.5,3.8c-1.6,1.1-2.8,2.8-3.4,4.7
	c-0.5,2.1-0.1,4.2,0.2,6.4c0.4,3.5,0.3,7-0.4,10.4c-0.3,1.3-0.6,2.6-1,3.9c-0.8,2.3-1.8,4.6-2.8,6.8c-5.2-3.5-10.3-7.1-15.4-10.7
	c-7.1-5.1-14-10.3-20.9-15.7l-4.2-3.4c-18-14.1-34.9-29.7-50.6-46.4c2.1-5.9,5.1-11.3,6.5-17.3c0.8-3.4,1.1-7,2.3-10.4
	c1.3-3.5,3.1-6.7,5.4-9.7c8.3-11.6,18.4-21.7,30-30c12.1-8.7,26.1-15.6,36.9-25.4c4.4-3.9,8.2-8.4,11.3-13.4c0.2-0.3,0.4-0.6,0.5-1
	c0.8-1.8,1.4-3.6,1.7-5.6c0.8-4.4,0.7-9.2,1.1-13.4c13.3,2.3,26.8,2.7,40.1,1.2c15.6-1.7,30.8-6.1,46.3-7.7c1.2-0.1,2.4-0.2,3.5-0.3
	c5-0.4,10-0.5,15-0.4c4.2,0,8.4,0.2,12.6,0.3l46.1,1.6c5.1,0.2,10.3,0.4,15.1,2.2c5.6,2.2,10.2,6.6,13.8,11.5
	c0.5,0.6,0.9,1.2,1.3,1.9c3,4.3,5.4,9.1,7.1,14c0.2,0.5,0.4,1,0.5,1.5c0.4,1.4,0.8,2.7,1.2,4.1c0.3,1.1,0.5,2.2,0.7,3.3
	c1.1,5.4,1.7,10.9,3.4,16.1c0.1,0.4,0.2,0.8,0.4,1.1c2,5.7,5.4,10.8,8,16.3c1.8,4,3.2,8.1,4.2,12.4
	C393.1,548,393.1,556.9,391.3,565.5z"/>
<path class="st2" d="M251.2,216.3c-4.1-3.3-10.1-0.9-14.9,1.2c-4,1.8-8.2,3.3-12.4,4.5c-0.9,0.3-1.8,0.4-2.7,0.3
	c-2-0.5-2.8-2.8-4.2-4.2c-2.5-2.4-6.7-1.9-9.9-0.5c-3.3,1.3-6.5,3.2-10,2.9c-3.7-0.3-7-3-10.7-3.1c-6.6-0.2-12.2,8-18.5,5.9
	c-3.8-1.3-6.8-6.3-10.6-4.9c-2.9,1.1-3.2,5.2-5,7.8c-2.1,3.1-6.1,4-9.6,5.3c-10.9,4.3-18.1,16.5-16.7,28.1c0.8,6.4,3.9,12.3,6,18.5
	c6.1,17.8,4,38,11.7,55.2c1-0.9,1.5-1.3,2.5-2.2c-2.4,5-2.9,10.8-1.3,16.2c0.8,2.7,2.1,5.2,3.1,7.9c1,3,1.9,6,2.5,9.1l8.5,37.4
	c3.3,14.6,6.6,29.3,7.2,44.3c0.4,9.7-0.4,19.5-2.2,29.1c15.4-2.5,29.4-9.4,45-9.3c5.7,0,11.4,1,17.1,1.8c16.5,2.3,33.2,3.4,49.9,3.4
	c2.6,0.1,5.2-0.2,7.6-1.1c2.1-0.9,3.9-2.5,5.9-3.7c4-2.3,8.8-2.9,13.4-2.9c20.9-0.4,41,7.3,61.7,10c8.2-17.2,8.7-37.8,2.4-55.7
	c-1.9-5.3-4.4-10.5-5.1-16.1c-0.3-3.4-0.4-6.9-0.2-10.4c0-8.9-1.6-17.6-4.7-25.9c-1.2-3.2-2.7-6.6-2.5-10s1.8-6.7,3.5-9.8
	c3.4-6.2,6.8-12.5,11.6-17.8c4.9-5.4,11.1-9.6,17.2-13.7l15.1-10.1c-2.1-13-4.7-26.7-10.2-38.7c-5.5-12-13.8-23-24.9-30
	c-3.8-2.3-7.7-4.2-11.8-5.9c-5.7-2.4-11.6-4.5-17.8-4.9c-7-0.4-13.9,1.5-20.9,2.7C294.3,230.6,268.6,230.1,251.2,216.3z"/>
<path class="st1" d="M415.9,442l-7.2,9l-13.5,17l-15.6,19.7l-4.4,5.5h-8.5l-209.5,0.2l-131.2,0.1h-5.9c-0.8-2.4-1.5-4.9-2.2-7.4
	c-1-3.6-1.8-7.3-2.6-11c-0.2-0.7-0.3-1.4-0.4-2.1L62.7,442l17.9-0.1l0,0l54.7-0.3l0,0l30.6-0.2h5.6h3.5l0,0l20.4-0.1l0,0l155.3-0.9
	l0,0l7.9,0l0,0h3.4l9.1,0l33.9-0.2l6.5-2.5l0.5,0.5L415.9,442z"/>
<path class="st4" d="M412.9,437.2l-0.8,1l-5.3,6.3l-11,12.9l-23,27.1l-203.7-5.2l-153.6-3.9c-0.2-0.7-0.3-1.4-0.4-2.1
	c-2.3-12.5-3.4-25.3-3.1-38l17-8.7l3.9-2l30.4-15.6L90,395.2l69.5,9l15.4,2l7,0.9l10.2,1.3l0.9,0.1l159.9,20.7l17.7,2.3l10.4,1.3
	l32,4.2L412.9,437.2z"/>
<path class="st1" d="M379.8,484l-0.2,3.8l-1,21.7l-5.2,119l-1.1,25.7l-2.9,66.2l-1.6,37.4l-6-1.9c-3.1-1-6.2-2-9.2-3l14.3-259.5
	l0.3-5.4l6.3-2L379.8,484z"/>
<path class="st1" d="M15,485.7L14.5,496l-0.7,15c-1.9-4.7-3.7-9.6-5.2-14.5L8.5,496c-0.8-2.5-1.5-5-2.2-7.6L15,485.7z"/>
<ellipse class="st5" cx="281.7" cy="275.7" rx="44.9" ry="60.5"/>
<ellipse class="st6" cx="281.7" cy="275.7" rx="44.9" ry="60.5"/>
<circle class="st5" cx="288" cy="239.1" r="62.4"/>
<path class="st7" d="M289.3,142.9c-3.8,0.3-7.6,0.9-11.3,1.7c-9.9,2.4-18.4,7.7-26.7,13c-3.7,2.4-7.6,4.8-9.9,8.3
	c-4.2,6.2-2.5,14.1-4.9,21c-1.2,3.5-3.4,6.7-5.3,10c-5.2,9-7.9,18.9-10.6,28.7c-0.5,2-0.7,4.8,1.5,5.6c1.3,0.3,2.6,0.1,3.8-0.4
	c7-2.3,15.9-3,21.1,1.7c5.2,4.7,4.8,13,10.9,16.6c7.1,4.1,18.1-0.9,24.5,4c2.8,2.1,3.7,5.4,6,8c5.2,5.9,15.3,5.6,23.7,4.4
	c4.8-0.7,10.7-1.1,13.7,2.2c1.4,1.6,1.8,3.8,3.4,5.2c2.9,2.6,8.3,1.3,11.1-1.4c2.9-2.7,4.2-6.3,6.6-9.3c4.6-5.9,12.8-9,17.6-14.8
	c4-4.9,5.2-11,6.3-16.9l4.1-21.8c1.6-8.9,3.2-18.5-1.8-26.3c-1.8-2.8-4.3-5.2-5.9-8.1c-1-2-1.6-4-2.8-5.9c-1.4-1.9-3.1-3.6-5-5.1
	l-9.6-8c-3.3-2.9-6.8-5.5-10.5-7.8C325.6,139.3,305,141.4,289.3,142.9z"/>
<path class="st5" d="M83.6,303.7c-2.3,2.5-4.4,5.1-6.9,7.4c-2.2,1.9-4.5,3.8-6.8,5.5c-3.8,2.9-7.6,5.8-11.2,8.9
	c-3.8,3-7.3,6.5-10.3,10.3c-5.2,7-7.7,15.7-12.6,22.9c-4.3,6.4-10.4,11.5-14.8,17.8c-1.9,2.7-3.3,5.7-4.2,8.8
	c-0.6,3.1-0.9,6.2-0.9,9.4c-0.1,5.2-0.2,10.4,0.9,15.4c1.1,5,3.4,10,7.3,13.3c3.7,3.1,8.4,4.5,13.1,5.7c2.4,0.6,5,1.2,7.3,0.2
	c1.7-0.8,3.1-2.1,4.2-3.6l11.9-13.7c7.9-9.2,16.2-18.5,27.1-23.9c3.4-1.7,7-2.9,10.4-4.5c14.5-7,24.8-21.3,28.8-36.9
	c1-3.8,1.6-7.7,2.2-11.6l1.7-10.7c0.1-0.5,0.1-1.1,0-1.6c-0.3-0.6-0.7-1.1-1.2-1.5c-8.3-6.7-16-14-23.2-21.9c-1.7-1.9-3.3-4.4-5.2-6
	c-2.5-2-2.3-1.8-5.2,0C91.4,296.3,87.3,299.8,83.6,303.7z"/>
<path class="st1" d="M164.8,374.7c-0.4-0.9-1.5-1.4-2.4-0.9s-1.4,1.5-0.9,2.4c0,0,0,0.1,0.1,0.1l-1,0.5l29.1,59.6l5.3-2.6
	l-29.1-59.7L164.8,374.7z"/>
<path class="st8" d="M83.6,303.7c-2.3,2.5-4.4,5.1-6.9,7.4c-2.2,1.9-4.5,3.8-6.8,5.5c-3.8,2.9-7.6,5.8-11.2,8.9
	c-3.8,3-7.3,6.5-10.3,10.3c-5.2,7-7.7,15.7-12.6,22.9c-4.3,6.4-10.4,11.5-14.8,17.8c-1.9,2.7-3.3,5.7-4.2,8.8
	c-0.6,3.1-0.9,6.2-0.9,9.4c-0.1,5.2-0.2,10.4,0.9,15.4c1.1,5,3.4,10,7.3,13.3c3.7,3.1,8.4,4.5,13.1,5.7c2.4,0.6,5,1.2,7.3,0.2
	c1.7-0.8,3.1-2.1,4.2-3.6l11.9-13.7c7.9-9.2,16.2-18.5,27.1-23.9c3.4-1.7,7-2.9,10.4-4.5c14.5-7,24.8-21.3,28.8-36.9
	c1-3.8,1.6-7.7,2.2-11.6l1.7-10.7c0.1-0.5,0.1-1.1,0-1.6c-0.3-0.6-0.7-1.1-1.2-1.5c-8.3-6.7-16-14-23.2-21.9c-1.7-1.9-3.3-4.4-5.2-6
	c-2.5-2-2.3-1.8-5.2,0C91.4,296.3,87.3,299.8,83.6,303.7z"/>
<path class="st5" d="M420,413.6c-0.1,6.2-0.3,12.6-2.9,18.3c-1.1,2.5-2.8,4.9-5.4,5.7c-1.6,0.4-3.2,0.4-4.8,0.2
	c-19.1-1.7-38.4-0.2-57.1,4.5c5-10,2.1-21.9,3.5-32.9c0.4-3,1.1-6,1.3-9c1-10.7-3.6-21.2-5.7-31.7c-1.8-9.2-1.8-18.6,0-27.8
	c0.4-2.4,1.2-4.6,2.4-6.7c1.4-2,3.3-3.6,5.5-4.8c7.9-4.5,17.2-5,26.1-4.4c6,0.4,18-0.2,23,3.5c5.5,4,7.2,17.6,8.7,23.8
	c2.2,9.6,3.7,19.3,4.5,29.1C419.9,392.1,420.1,402.9,420,413.6z"/>
<polygon class="st9" points="70.5,435.2 105.6,458.6 263.7,452.8 159.3,435.2 "/>
<path class="st2" d="M116.8,249.2c-5.8,5.1-10.7,11.1-16.1,16.5c-7.5,7.4-16,13.8-24.5,20.1c6.2,1.7,11,6.6,12.7,12.8
	c0.4,1.4,0.6,2.9,1,4.3c1,3.3,3.1,6.2,5.4,8.8c9.9,11.2,23.7,19.4,29.6,33.2c0.2,0.7,0.6,1.3,1.2,1.7c0.5,0.2,1,0.3,1.5,0.2
	c5.3-0.6,9.3-4.8,12.7-8.9c7-8.8,13.1-18.5,16.6-29.2c3.5-10.7,4-22.6,0.2-33.2c-1.9-5.3-4.8-10.1-7.7-15c-2.5-4.2-5.1-8.4-7.6-12.6
	c-1.3-2.2-3-6.7-5.6-7.8C130.6,237.5,120.4,245.6,116.8,249.2z"/>
<path class="st2" d="M404.2,312.2l8.3,19.5c-18.3-6.4-38.6-3.6-54.5,7.6c-4.7,3.4-9.1,7.6-11.2,13c-2.2,0.4-4.3-0.5-5.6-2.2
	c-1.2-1.8-2-3.8-2.1-6c-0.8-7.5,2.1-14.8,4.9-21.8c1.3-3.3,2.7-6.6,5-9.3c2.3-2.7,5.4-4.4,8.5-6.1c9.8-5.4,20.1-10,30.8-13.6
	c4.5-1.5,9.2-1.4,11.7,2.8C402.7,301.1,401.9,306.9,404.2,312.2z"/>
<path class="st5" d="M70.7,370.8c2.1,1.7,3.9,3.6,6,5.2c2.3,1.6,4.7,2.9,7.2,4l9.6,4.6c3,1.5,6.1,2.8,9.3,3.8
	c4.1,1.1,8.4,1.2,12.6,2.2c5.2,1.3,10,4,15.1,5.5c5.1,1.6,11.2,1.8,15.5-1.4c2.7-2,4.7-5.4,8-5.9c2.1-0.3,4.2,0.8,6.1,1.8l25,13.2
	c3.4,1.8,6.9,3.7,8.7,7.1c1.8,3.4,0.6,8.5-3.1,9.4c-1.3,0.1-2.6,0.2-3.9,0.2c-1.3,0.2-2.7,0.9-2.9,2.2c0,0.8,0.2,1.6,0.6,2.3
	c1.1,2.6,1.5,5.7,0.1,8.2c-1.3,2.5-4.5,4-7.1,2.9c0.4,3.8-3.7,6.4-7.3,7.4c-9.2,2.5-19,1-28.5-0.6c-3.7-0.6-7.5-1.3-10.8-2.9
	c-1.6-0.8-3.1-1.8-4.8-2.5c-4.5-2-9.6-1.7-14.5-1.6c-22.7,0.4-45.3-3.8-67.7-8c-4.1-0.8-8.4-1.6-12-3.9c-6.8-4.4-9.4-13.6-8.2-21.7
	c1.1-8.1,5.2-15.4,9.2-22.5l5.2-9.2c0.7-1.4,1.6-2.7,2.8-3.7C48.9,361,64.1,365.5,70.7,370.8z"/>
<path class="st8" d="M70.7,370.8c2.1,1.7,3.9,3.6,6,5.2c2.3,1.6,4.7,2.9,7.2,4l9.6,4.6c3,1.5,6.1,2.8,9.3,3.8
	c4.1,1.1,8.4,1.2,12.6,2.2c5.2,1.3,10,4,15.1,5.5c5.1,1.6,11.2,1.8,15.5-1.4c2.7-2,4.7-5.4,8-5.9c2.1-0.3,4.2,0.8,6.1,1.8l25,13.2
	c3.4,1.8,6.9,3.7,8.7,7.1c1.8,3.4,0.6,8.5-3.1,9.4c-1.3,0.1-2.6,0.2-3.9,0.2c-1.3,0.2-2.7,0.9-2.9,2.2c0,0.8,0.2,1.6,0.6,2.3
	c1.1,2.6,1.5,5.7,0.1,8.2c-1.3,2.5-4.5,4-7.1,2.9c0.4,3.8-3.7,6.4-7.3,7.4c-9.2,2.5-19,1-28.5-0.6c-3.7-0.6-7.5-1.3-10.8-2.9
	c-1.6-0.8-3.1-1.8-4.8-2.5c-4.5-2-9.6-1.7-14.5-1.6c-22.7,0.4-45.3-3.8-67.7-8c-4.1-0.8-8.4-1.6-12-3.9c-6.8-4.4-9.4-13.6-8.2-21.7
	c1.1-8.1,5.2-15.4,9.2-22.5l5.2-9.2c0.7-1.4,1.6-2.7,2.8-3.7C48.9,361,64.1,365.5,70.7,370.8z"/>
<path class="st5" d="M368.5,387.6c-5.1,2.4-10.9,2.6-16.2,4.5c-5.3,1.8-9.8,5.2-14.7,7.9c-12.7,7.1-27.3,9.8-41.7,12.3
	c-8.7,1.6-17.6,3.1-26.3,2.8c-11.9-0.5-23.3-4.5-34.8-7.5c-11.5-3-23.8-5-35.2-1.6c-12.1,3.7-21.7,12.9-25.9,24.8
	c-2.4,7-2.7,14.6-2.3,22c2.4,1.8,5.8-0.7,7.1-3.4c1.3-2.7,2-6,4.6-7.5c4.4,1.5,5.5,7.4,9.1,10.3c2.3,1.8,5.3,2.3,8.2,2.7l14.8,2.1
	c3.6,0.5,7.7,0.8,10.3-1.7c1.3-1.2,2-2.9,3.1-4.2c2.4-2.6,6.3-3.1,9.8-2.7c11,1.1,21.3,8.2,32.1,6.5c3.7-0.6,7.2-2.2,10.8-3.4
	c21.2-7.5,44.7-2.9,66.7-7.2c8.4-1.6,16.5-4.5,24.5-7.6c4.3-1.6,8.7-3.4,12.4-6.2c7.1-5.5,11-14.3,10.1-23.2
	c-0.8-6.7-4.2-12.9-9.4-17.2c-1.7-1.5-4-4.3-6-5.2C375.7,383.1,371.8,386.1,368.5,387.6z"/>
<g class="st10">
	<path d="M340,263c-1.6-1.4-2-3.6-3.4-5.2c-2.9-3.4-8.8-2.9-13.7-2.2c-8.4,1.2-18.5,1.5-23.7-4.4c-2.3-2.5-3.2-5.9-6-8
		c-6.4-4.9-17.5,0.1-24.5-4c-6.2-3.6-5.8-12-10.9-16.6c-5.2-4.6-14.1-4-21.1-1.7c-1.2,0.5-2.5,0.7-3.8,0.4c-2.2-0.8-2.1-3.5-1.5-5.6
		c2.7-9.8,5.4-19.7,10.6-28.7c1.9-3.3,4.1-6.5,5.3-10c2.1-6.2,1-13.2,3.8-19c-3,2-5.9,4.1-7.7,6.8c-4.2,6.2-2.5,14.1-4.9,21
		c-1.2,3.5-3.4,6.7-5.3,10c-5.2,9-7.9,18.9-10.6,28.7c-0.5,2-0.7,4.8,1.5,5.6c1.3,0.3,2.6,0.1,3.8-0.4c7-2.3,15.9-3,21.1,1.7
		c5.2,4.7,4.8,13,10.9,16.6c7.1,4.1,18.1-0.9,24.5,4c2.8,2.1,3.7,5.4,6,8c5.2,5.9,15.3,5.6,23.7,4.4c4.8-0.7,10.7-1.1,13.7,2.2
		c1.4,1.6,1.8,3.8,3.4,5.2c2.9,2.6,8.3,1.3,11.1-1.4c1.8-1.9,3.4-4.1,4.7-6.4C344.5,264.7,341.8,264.6,340,263z"/>
	<path d="M357.8,252.2c-0.6,0.8-1.2,1.7-1.7,2.5c3.7-2.7,7.7-5.2,10.5-8.6c0.7-0.9,1.4-1.8,2-2.8
		C364.6,246.2,360.5,248.7,357.8,252.2z"/>
</g>
<polygon class="st1" points="554.9,445.5 557.8,725.5 571.5,723.5 568.6,445.5 "/>
<polygon class="st1" points="636.9,496.2 639.8,776.2 653.4,774.3 650.5,496.2 "/>
<path class="st1" d="M892,637.6L892,637.6l-0.1-5.4v-3.2l-0.5-49.3l-0.8-77l-0.1-6.6h-13.7l0.1,6.4l0.4,41.2l0.2,17.9l0,0l0.2,14.5
	l0.3,25l0.2,14.7l0,0v1.6l0.2,19.4l0.2,17.1l1.1-1.2c1.8-2,3.5-4,5.2-6.1L892,637.6z"/>
<polygon class="st2" points="621.7,541.6 613.9,553.2 621.7,606.4 688.1,624.5 795.4,624.5 859.8,628.4 890.5,607.4 885.2,571.4 
	861.7,541.6 "/>
<path class="st1" d="M613.9,553.2l-3.9,32.4c0,0-20.5,63.5,144.4,59.7S891,628.4,891,628.4l-1-37.6c0,0,5.7,17.8-78.1,15.4
	S650,596,650,596S620.8,601.2,613.9,553.2z"/>
<path class="st11" d="M751.3,262.7c-9.4,4.3-16.5,12.6-21.3,21.8c-4.8,9.2-7.5,19.3-10.1,29.3c-2.8,10.6-5.6,21.1-7,32
	c-2.6,19.2-0.6,39.5,8.2,56.7s25.2,31.2,44.3,34.5c7.4,1.3,15,1,22.4,0.3c13.5-1.4,26.8-4.4,39.6-8.7c13.4-4.5,27.4-11.5,33.3-24.4
	c3.5-7.5,3.8-16,3.6-24.2c-0.5-22.4-3.8-44.6-10.1-66.1c-1.8-6.2-3.9-12.5-7.7-17.8s-9.1-9.1-14.4-12.7
	C809.4,268,779.4,249.9,751.3,262.7z"/>
<path class="st12" d="M751.3,262.7c-9.4,4.3-16.5,12.6-21.3,21.8c-4.8,9.2-7.5,19.3-10.1,29.3c-2.8,10.6-5.6,21.1-7,32
	c-2.6,19.2-0.6,39.5,8.2,56.7s25.2,31.2,44.3,34.5c7.4,1.3,15,1,22.4,0.3c13.5-1.4,26.8-4.4,39.6-8.7c13.4-4.5,27.4-11.5,33.3-24.4
	c3.5-7.5,3.8-16,3.6-24.2c-0.5-22.4-3.8-44.6-10.1-66.1c-1.8-6.2-3.9-12.5-7.7-17.8s-9.1-9.1-14.4-12.7
	C809.4,268,779.4,249.9,751.3,262.7z"/>
<path class="st2" d="M740.7,385.5c2.7,3.7,6,7,9.8,9.8c9.3,6.4,21.2,7.3,32.5,7.6c9.1,0.3,19.4-0.2,25.1-7.3
	c2.6-3.2,3.7-7.2,4.7-11.2c6.4-24.3,10.9-49,13.6-73.9l25.8,0.1c11.2,47.9,10.3,97.6,9.3,146.8l-1.4,71.7l-16.6-1.8
	c-39.5-4.2-79.1-8.4-118.8-9.1c-23.3-0.4-46.6,0.3-69.8,2.3l36.2-107.8c4.7-14,9.5-28.2,10.6-42.9c1.6-21.4-4.4-43.9,3.9-63.7
	c0.7-1.6,1.5-3.2,3-4.1c1.5-0.8,3.4-0.6,5.2-0.4c3.3,0.4,13.3,0,15.7,2.1c3.5,3,1.2,3.5,0,8.4c-2.2,8.8-4.3,16.9-4.3,26.1
	C725.1,354.9,730.2,372.4,740.7,385.5z"/>
<path class="st7" d="M892,637.6L892,637.6c4.4-5.8,8.5-11.8,12.3-17.9c-2-4.2-4.1-8.3-5.8-12.5c-2.6-6.5-4.1-13.5-5.6-20.3
	c-0.5-2.3-1-4.7-1.5-7c-5.5-25.5-10.6-51.3-11.7-77.1c-0.1-2.1-0.2-4.3-0.2-6.4c0-0.3,0-0.6,0-1c0-2.4,0-4.7,0-7
	c0.1-5.9,0.5-11.8,1.2-17.6c0.1-1.2,0.3-2.3,0.4-3.5c0-0.3,0.1-0.5,0.1-0.8l66.3-2.4l0,0l5.6-0.2c3.8-0.1,7.9-0.4,11.1-2.5
	c5.3-3.6,5.9-11.1,5.9-17.6c-0.3-16.3-2.2-32.4-5.5-48.3c-2.5-12-6.1-24.2-14.2-33.4c-6.6-7.6-16.2-13-19.6-22.4
	c-1.3-3.5-1.6-7.3-3.3-10.7c-1.7-3.3-4.4-5.8-7-8.4c-9.1-9-16.6-19.5-22.3-30.9c-4-8-8.2-16.7-13.4-22.2c-0.3-0.3-0.5-0.5-0.8-0.8
	c-4.4-4.3-9.4-6.2-15.4-3.3c-1.1,0.5-2.1,1.2-3,1.9l0,0c-2.1,1.6-4.1,3.5-5.8,5.5c-6,6.9-11.3,14.4-15.7,22.4
	c-3.1,5.6-5.8,11.5-8,17.6c-1.8,4.8-3.2,9.7-4.3,14.6c-0.8,3.7-1.5,7.4-2,11.1c-2,14-2,28.3-1.7,42.5c0.3,13,0.9,26.1,2,39.1
	c0.3,3.1,0.6,6.3,1,9.4c0.7,6.2,1.6,12.4,2.7,18.5c0.4,2.4,0.8,4.7,1.3,7c0.1,0.6,0.2,1.2,0.4,1.9l0.1,0.3c1.3,5.4,2.3,11,3,16.5
	c0.1,0.7,0.1,1.4,0.2,2.1c0.2,3.2,0.1,6.4-0.1,9.6c-0.2,3.8-0.6,7.5-0.8,11.3c0,0.7,0,1.3-0.1,2c0,1.9,0,3.8,0,5.7
	c0.2,4.6,0.7,9.1,1.6,13.6c1.6,8.3,4.5,16.3,8.4,23.8c0.4,0.7,0.8,1.4,1.1,2.1c4.9,8.8,11.2,16.9,15.8,26c3.9,8.1,6.9,16.7,8.8,25.6
	c0.7,2.9,1.3,5.8,1.9,8.8c0.9,4.7,1.7,9.4,2.5,14.1c0.1,0.5,0.2,1,0.3,1.4c1.1,6.3,2.3,12.5,3.8,18.6c0.9,3.6,1.8,7.1,3,10.5
	L892,637.6z"/>
<path class="st13" d="M879,560.7c0,0.9-0.1,1.8-0.1,2.6c-0.2,4.3-0.6,8.6-1.2,12.8c-0.8,5.8-2.2,11.5-4.2,17c-1.3,3.6-3,7.1-5,10.4
	c-1.8,2.9-3.9,5.6-6.3,8.1c-5.9,6.1-14.3,8-22.4,10.6c-3.8,1.1-7.4,2.6-10.8,4.4c-0.6,0.3-1.2,0.7-1.8,1.1l-10.2,6.8
	c-3.2,2.1-6.4,4.3-8.6,7.4c-0.4,0.5-0.7,1.1-1,1.6c-1.4,2.9-2.4,5.9-3,9c-5.3,22.1-10.6,44.2-14.3,66.7c-0.2,1.5-0.5,3-0.7,4.5
	l-0.1,0.5c0-0.1-0.1-0.2-0.2-0.3c-26.1,15.8-53.2,30-81.1,41.4l-6.1-50.7c-0.6-4.1-0.8-8.3-0.6-12.5c0.6-6.6,3.2-12.8,4-19.3
	c0.7-6.4-0.5-12.9-3.5-18.6c-1.2-2.2-2.6-4.4-2.9-6.9c-0.3-2.5,1.2-4.8,3.7-5c2-2.2,2.1-5.1,1.5-8c-0.3-1.5-0.8-3-1.4-4.5
	c-1.7-4.1-3.8-8.5-2.3-12.7c0.4-0.8,0.5-1.6,0.5-2.4c0-0.1,0-0.1,0-0.2c-0.3-1.1-1.6-1.6-2.3-2.5c-1.3-1.7,0-4.1,0.8-6.1
	c0.8-2.1,1.2-4.4,1.3-6.6c0.1-1.3,0.2-2.5,0.3-3.8c0.2-1.7,0.5-3.4,0.9-5c2.4-9.3,8.1-17.5,16-22.9c3.8-2.6,8-4.4,11.9-6.8
	c4-2.7,7.8-5.6,11.3-8.8c8.6-7.2,17.5-13.9,26.8-20.2c10-6.8,20.3-13.1,30.9-18.8c2.3-1.2,4.6-2.4,6.8-3.6c2.5-1.3,5-2.5,7.5-3.7
	c8-3.8,17.2-2.4,26.1,0.2c3.7,1.1,7.4,2.3,11,3.5c3.5,1.1,6.8,2.6,10,4.5c7.9,4.6,14.4,11.5,17.1,20.1c0,0.1,0,0.1,0,0.2
	C879,549.3,879.1,555.1,879,560.7z"/>
<path class="st6" d="M879,560.7c0,0.9-0.1,1.8-0.1,2.6c-0.2,4.3-0.6,8.6-1.2,12.8c-0.8,5.8-2.2,11.5-4.2,17c-1.3,3.6-3,7.1-5,10.4
	c-1.8,2.9-3.9,5.6-6.3,8.1c-5.9,6.1-14.3,8-22.4,10.6c-3.8,1.1-7.4,2.6-10.8,4.4c-0.6,0.3-1.2,0.7-1.8,1.1l-10.2,6.8
	c-3.2,2.1-6.4,4.3-8.6,7.4c-0.4,0.5-0.7,1.1-1,1.6c-1.4,2.9-2.4,5.9-3,9c-5.3,22.1-10.6,44.2-14.3,66.7c-0.2,1.5-0.5,3-0.7,4.5
	l-0.1,0.5c0-0.1-0.1-0.2-0.2-0.3c-26.1,15.8-53.2,30-81.1,41.4l-6.1-50.7c-0.6-4.1-0.8-8.3-0.6-12.5c0.6-6.6,3.2-12.8,4-19.3
	c0.7-6.4-0.5-12.9-3.5-18.6c-1.2-2.2-2.6-4.4-2.9-6.9c-0.3-2.5,1.2-4.8,3.7-5c2-2.2,2.1-5.1,1.5-8c-0.3-1.5-0.8-3-1.4-4.5
	c-1.7-4.1-3.8-8.5-2.3-12.7c0.4-0.8,0.5-1.6,0.5-2.4c0-0.1,0-0.1,0-0.2c-0.3-1.1-1.6-1.6-2.3-2.5c-1.3-1.7,0-4.1,0.8-6.1
	c0.8-2.1,1.2-4.4,1.3-6.6c0.1-1.3,0.2-2.5,0.3-3.8c0.2-1.7,0.5-3.4,0.9-5c2.4-9.3,8.1-17.5,16-22.9c3.8-2.6,8-4.4,11.9-6.8
	c4-2.7,7.8-5.6,11.3-8.8c8.6-7.2,17.5-13.9,26.8-20.2c10-6.8,20.3-13.1,30.9-18.8c2.3-1.2,4.6-2.4,6.8-3.6c2.5-1.3,5-2.5,7.5-3.7
	c8-3.8,17.2-2.4,26.1,0.2c3.7,1.1,7.4,2.3,11,3.5c3.5,1.1,6.8,2.6,10,4.5c7.9,4.6,14.4,11.5,17.1,20.1c0,0.1,0,0.1,0,0.2
	C879,549.3,879.1,555.1,879,560.7z"/>
<path class="st1" d="M786.3,399.1c-0.4-0.9-1.5-1.4-2.4-0.9c-0.9,0.4-1.4,1.5-0.9,2.4c0,0,0,0.1,0.1,0.1l-1,0.5l29.1,59.6l5.3-2.6
	l-29.1-59.7L786.3,399.1z"/>
<circle class="st11" cx="822.7" cy="274.2" r="62.4"/>
<path class="st7" d="M905.1,235.6c-0.3-5-1-9.9-2.2-14.7c-3.7-15.8-10.4-31.3-21.9-42.6c-0.7-2.8-1.6-5.5-2.5-8.2
	c0-0.1,0-0.1-0.1-0.2c-3.4-9.5-8.4-18.3-14.7-26.1c-3.7-4.5-8.4-9-14.2-9.2c-1.6-0.1-3.4,0.2-4.9-0.5c-1.1-0.7-2-1.7-2.7-2.8
	c-5.9-7.4-15.4-11-24.7-9.3l-0.6,0.1c-0.3,0.1-0.7,0.1-1,0.2c-0.3,0.1-0.8,0.2-1.2,0.4c0.4,0.7,0.9,1.5,1.3,2.3
	c1.2,2.1,2.2,4.2,3.2,6.3c0.8,1.8,1.6,3.6,2.3,5.5c-10,1.1-18.1,8.2-25.6,15L778,167.6c0,0-0.1,0.1-0.1,0.1l-0.5,0.5
	c-0.1,0.1-0.3,0.3-0.4,0.4c0,0-0.1,0.1-0.1,0.1c-0.1,0.2-0.3,0.3-0.4,0.5c-0.2,0.3-0.5,0.6-0.7,1c-0.1,0.1-0.2,0.3-0.3,0.5
	c0,0,0,0.1-0.1,0.1c-0.1,0.1-0.1,0.3-0.2,0.4c0,0,0,0,0,0.1c0,0.1-0.1,0.2-0.1,0.2c-0.2,0.7-0.1,1.4,0.2,2.1l11.5,0.1h1.4
	c0.1,1.5,0.1,3.1,0.2,4.6c-1.8,1.4-3.6,2.8-5.3,4.4c-1.8,1.7-3.5,3.5-5.1,5.4c-10.4,12.6-15.8,28.8-16.4,45.2c0,0.5,0,1,0,1.5
	c0,1.5,0,3,0,4.5c0,1,0.1,2,0.2,2.9c0,1.3,0.3,2.5,1,3.6c0.1,0.1,0.2,0.2,0.3,0.4c0.6,0.6,1.3,1.2,2.1,1.5l0.8,0.4l0,0
	c0.4,0.2,0.8,0.4,1.2,0.6c3.7,2.1,5.9,6.1,9.2,8.7c0.2,0.1,0.4,0.3,0.6,0.4l0.4,0.3l0.3,0.2l0.4,0.2c0.2,0.1,0.5,0.3,0.8,0.4l0,0
	l0,0l0.5,0.2h0.1l0,0c0.4,0.2,0.8,0.3,1.2,0.5l0.6,0.2l0.2,0.1c0.2,0,0.3,0.1,0.5,0.1c0.3,0.1,0.7,0.2,1,0.3l1,0.2
	c0.4,0.1,0.8,0.1,1.2,0.2l0.6,0.1l0.6,0.1c0.9,0.1,1.9,0.1,2.8,0.1l0,0c3,0,5.9-0.2,8.8-0.6l24.9-2.9c5.6-0.7,11.4-1.3,17-0.2
	c4.7,1,9.1,3.2,13.7,4.8c1,0.4,2.1,0.7,3.1,1c0.4,0.1,0.8,0.2,1.2,0.3l0.5,0.1l1.2,0.3c0.4,0.1,0.9,0.2,1.3,0.3
	c0.6,0.1,1.3,0.3,1.9,0.4c0.4,0.1,0.9,0.2,1.3,0.2h0.1l1.2,0.2h0.3l0,0l0.9,0.1c0.4,0.1,0.9,0.1,1.4,0.2c1,0.1,2,0.2,3,0.3
	c1.6,0.2,3.2,0.3,4.9,0.4l1.6,0.1l1.6,0.1l4.9,0.2h0.2h0.7c2,0.1,4.1,0,6.1-0.3c0.4-0.1,0.7-0.1,1-0.2c0.3-0.1,0.6-0.2,1-0.3
	c3.7-1.4,6.3-4.6,8.2-8.1c0.4-0.7,0.8-1.5,1.1-2.2s0.6-1.5,0.9-2.3c0.3-1,0.6-1.9,0.9-2.9c0.1-0.3,0.1-0.5,0.2-0.8
	c0.1-0.3,0.2-0.8,0.3-1.2c0.2-1.1,0.4-2.3,0.6-3.4c0-0.4,0.1-0.7,0.1-1.1c0.1-1,0.2-1.9,0.2-2.8c0-0.7,0-1.5,0-2.2
	C905.2,237.6,905.1,236.6,905.1,235.6z M880.1,177.3c-0.8-0.7-1.6-1.5-2.4-2.1C878.6,175.8,879.4,176.5,880.1,177.3L880.1,177.3z"/>
<path class="st7" d="M702.9,270.8c-7.3-0.9-14.6-4.1-21.9-2.5c-4.5,1-8.4,3.8-12.1,6.7c-13.5,10.8-25,24-33.9,38.8
	c-1.5,2.2-2.6,4.7-3.1,7.3c-0.5,3,0.4,6.1,1.3,9.1c6.7,19.7,20.9,36.2,27.4,56c6.8,20.8,4.5,43.5-0.6,64.8
	c-6.2,26.3-16.4,51.5-30.1,74.8c-1.9,3.5-4.2,6.7-6.9,9.5c-3.6,3.4-8.3,5.9-10.4,10.3c-1,2-1.3,4.2-2,6.3c-2,5.9-6.7,10.9-7.1,17
	c-0.3,4.7,1.9,9.2,3.2,13.7c2.3,7.7,2,16-0.7,23.5c-4.9,13.6-17.9,25.9-14.1,39.8c8.4-2.4,17.7-5.5,21.6-13.3c1.4-2.8,2.1-6,4.4-8
	c4.7-4,12.7-0.4,17.7-4c3.8-2.8,3.9-8.5,2.2-12.9c-1.7-4.4-4.6-8.3-5.9-12.8c-2.2-8.1,1.3-16.8,0.7-25.2c-0.3-3.9-1.5-7.6-1.6-11.5
	c-0.2-7.5,4-14.6,9.6-19.8s12.4-8.5,19.2-11.9l25.5-12.7c9.3-4.6,19.4-10.2,22.4-20.1c1.2-3.7,1.2-7.6,1.2-11.5
	c0.9-59,15.7-116.9,30.4-174.1c2.3-8.9,4.6-17.8,8-26.3c3.4-8.5,10-15.3,13.4-23.2C741.2,256.4,723.3,273.3,702.9,270.8z"/>
<path class="st13" d="M843.6,641.2c2.3,13.7,3.6,27.6,4.7,41.5c-17.6,14.6-36.5,27.2-55.7,39c-1.1,0.7-2.2,1.3-3.3,2l-0.1,0.5
	c0-0.1-0.1-0.2-0.2-0.3c-1.5-3.2-4.1-5.8-7.3-7.2c-7.2-15.1-14.4-30.2-21.6-45.4c-3.9-8.2-7.8-16.4-9.8-25.2c0-0.2-0.1-0.4-0.1-0.6
	c-1.5-6.8-1.8-13.9-2.8-20.8c-0.5-4-1.4-7.9-2.7-11.6c-1.2-3.4-2.8-6.6-4.2-9.9c-1.8-4.1-3.2-8.2-3.3-12.5c0-1.4,0.1-2.9-0.6-4.1
	c-0.7-1-1.6-1.9-2.7-2.6c-2.6-2.3-3.9-5.8-3.3-9.3c-5.9,0.3-9.2,6.6-11.5,11.9c-2.1,5.2-4.9,10.1-8.4,14.6c-2.5,3.2-5.6,5.8-9.2,7.7
	c-0.3,0.2-0.6,0.3-1,0.4c-8.1,3.6-17.7,2.3-26.5,0.7c-7.7-1.4-15.7-3.2-21.9-8l-0.7-0.5c-1.8-1.5-3.5-3.3-4.9-5.2
	c-5.2-7.1-7.5-16.5-8.8-25.4c-0.1-0.8-0.2-1.7-0.3-2.5c-0.9-6.3-1.1-12.7-0.7-19c0.1-1.6,0.3-3.1,0.5-4.7c0.1-1,0.3-2,0.4-3
	c0,0,0-0.1,0-0.1c0.3-1.6,0.5-3.2,0.8-4.9c1-5.5,2-11.2,4.9-16c1.9-3,4.4-5.6,7.2-7.7c1.1-0.8,2.1-1.6,3.2-2.4
	c1.8-1.2,3.6-2.4,5.5-3.5c4.7-2.8,9.6-5.2,14.6-7.1c1.2-0.5,2.4-0.9,3.7-1.3c4.8-1.7,9.9-2.1,14.9-1.2c4.4,0.6,8.9,0.9,13.3,0.8
	c11.4-0.2,22.9-2.4,34.4-3.8c15.9-2,32.9-2.2,46.7,5.9c0.7,0.4,1.3,0.8,2,1.2c6.8,4.5,12.3,10.7,16.8,17.7c1,1.5,1.8,3,2.7,4.5
	c1.9,3.5,3.7,7.1,5.2,10.8c0.9,1.8,1.4,3.8,1.5,5.9c0,0.4-0.1,0.8-0.2,1.2c-0.3,1.4-0.8,2.7-1,4.1c-0.6,5.3,3.9,9.8,5.6,14.8
	c1.1,3.3,1,6.8,1.6,10.3c0.9,4.9,3.3,9.3,5.4,13.7c3.4,7.1,6.3,14.4,8.7,21.8c1.7,5.2,3.2,10.5,4.4,15.8c0.4,1.7,0.8,3.4,1.2,5.1
	C841.9,631.9,842.8,636.5,843.6,641.2z"/>
<polygon class="st1" points="947.6,496.7 947.6,503.5 946.3,503.5 944.9,503.5 929.3,503.3 890.6,502.8 879.7,502.6 876.9,502.6 
	860.7,502.4 837.7,502.1 789,501.4 704.5,500.4 674,500 661.8,499.8 650.6,499.7 643.5,499.6 636.9,499.5 587.6,498.8 574,498.7 
	571,498.6 569.1,493.6 555,457.4 552.5,450.8 554.4,443 563.2,448.9 568.6,449.5 657.6,460.6 674.3,462.7 709.7,467.1 744.4,471.4 
	758,473.1 838.5,483.1 861,485.9 879.6,488.2 945.8,496.5 "/>
<polygon class="st4" points="554.4,443 572,488.9 947.6,496.7 947.6,446.9 "/>
<polygon class="st1" points="573.9,493.7 576.8,773.8 590.5,771.8 587.6,493.7 "/>
<path class="st1" d="M946.3,503.5h-1.4c-2.3,17.5-6,34.7-11.2,51.5l-4.4-51.7l-0.2-2.2l16.4-1.9l0.5-0.1L946.3,503.5z"/>
<polygon class="st9" points="893,470.3 750,473.3 705.6,458.6 824.7,451.8 "/>
<path class="st11" d="M713.7,413.4c-1.5,0.6-2.9,1.5-3.9,2.8c-0.8,1.3-1.3,2.9-1.5,4.4l-2.4,14.3c-0.4,1.3-0.3,2.7,0.2,4
	c0.6,1.2,2.4,1.8,3.3,0.8c-0.1,2.8,0.1,5.8,1.8,8.1c1.6,2.3,5,3.5,7.3,1.9c1.4,2.2,4.3,2.9,6.5,1.6c0.2-0.1,0.4-0.3,0.6-0.5
	c-1.4,0.5-1.5,2.6-0.5,3.7c1.1,1,2.5,1.5,4,1.6c17.1,2.4,34.6,0.2,50.6-6.4c1.5-0.6-2.5-19.3-2.9-21.2c-1-4.5-1.5-10-5.3-13
	c-9.1-7.2-25.2-8.7-36.2-7.8C727.9,408.3,720.5,410.2,713.7,413.4z"/>
<path class="st6" d="M859.1,415.6c-35.3,0.7-71.3,1.2-105-9.3c3.2,12.5,3,25.6-0.6,37.9l165,13.7c7,0.6,36,3.9,42.8,2.2
	c6.8-1.6-57.2-22.7-54.6-29.3c7.1-18,30.9-28.5,13.8-29.2C898.8,400.7,880.9,415.2,859.1,415.6z"/>
<path class="st7" d="M860.1,417.5c-35.3,0.7-71.3,1.2-105-9.3c3.2,12.5,3,25.6-0.6,37.9l165,13.7c7,0.6,36,3.9,42.8,2.2
	c6.8-1.7,5.2-10.1,7.8-16.6c7.1-18-31.5-41.2-48.7-41.9C899.7,402.7,881.9,417.1,860.1,417.5z"/>
<path class="st11" d="M804,420.3c1.5,0.6,2.9,1.5,3.9,2.8c0.8,1.3,1.3,2.9,1.5,4.4l2.4,14.3c0.4,1.3,0.3,2.7-0.2,4
	c-0.6,1.2-2.4,1.8-3.3,0.8c0.1,2.8-0.1,5.8-1.8,8.1c-1.6,2.3-5,3.5-7.4,1.9c-1.4,2.2-4.3,2.9-6.5,1.6c-0.2-0.1-0.4-0.3-0.6-0.5
	c1.4,0.5,1.5,2.6,0.5,3.7c-1.1,1-2.5,1.5-4,1.6c-17.1,2.4-34.6,0.2-50.6-6.4c-1.5-0.6,2.5-19.3,2.9-21.2c1-4.5,1.5-10,5.3-13
	c9.1-7.2,25.2-8.7,36.2-7.8C789.7,415.1,797.1,417,804,420.3z"/>
<path class="st7" d="M570.8,389.2c-3.2,4.2-6.5,8.4-8.6,13.3c-4,9.3-3.4,19.8-2.7,29.9c0.2,2.9,0.4,5.9,2,8.3
	c1.3,1.8,3.1,3.3,5.1,4.3c8.4,4.8,18.3,6.2,28,7.3c14.8,1.6,29.6,2.6,44.5,3c36.9,0.9,74.4-2.1,110.3,6.2c-4.4-6.8-4.4-15.7-2-23.4
	s7.3-14.4,12-21c-16.5-5.2-34.1,2.9-51.3,2.1c-17.7-0.8-34.1-11.1-51.8-11c-3.8,0-7.7,0.5-11.4-0.4s-7.3-3.7-7.6-7.5
	c4.7,1.1,9.2-3,11.2-7.4c2-4.4,2.3-9.4,4.2-13.9c4.7-11.1,17.4-16.2,25.4-25.4c1.2-1.4,2.4-3.2,2.4-5.1c-0.2-1.6-0.9-3.1-2-4.4
	c-6.6-8.8-16.5-13.7-24.8-20.5c-2.9-2.4-8.7-11.4-11.9-12.2c-6-1.5-11,7.1-14.9,11.3C607.3,344.1,588.6,366.3,570.8,389.2z"/>
<path class="st14" d="M767,386.7c2.5,1.8,4.7,4,6.5,6.5c1.9,2.5,2.6,5.7,2,8.7c-0.6-5.8,2.7-11.3,8.1-13.5L767,386.7z"/>
<g class="st10">
	<path d="M821.1,130.8c-1.1-3-2.5-6-4-8.9c-1,0.2-1.9,0.4-2.8,0.7c1.7,2.8,3.2,5.7,4.5,8.6C819.5,131.1,820.3,130.9,821.1,130.8z"/>
	<path d="M877.7,169.3c0.3,0.2,0.5,0.5,0.8,0.7c0-0.1,0-0.1-0.1-0.2C878.2,169.7,877.9,169.5,877.7,169.3z"/>
	<path d="M787,173.6c0.5-0.4,1-0.8,1.5-1.2l-0.2-4.6l-10.4-0.1c-1.7,1.6-3.5,3.8-2.5,5.9L787,173.6z"/>
	<path d="M900.9,251.6c-1.9,3.5-4.5,6.7-8.2,8.1c-2.8,1.1-5.9,1-8.9,0.8c-10.3-0.4-20.7-0.9-30.5-4.3c-4.5-1.6-8.9-3.8-13.7-4.8
		c-5.6-1.2-11.3-0.5-17,0.2l-24.9,2.9c-7.3,0.9-15.5,1.5-21.4-3c-3.4-2.6-5.5-6.6-9.2-8.7c-1.6-0.9-3.4-1.4-4.4-2.9
		c-0.6-1.1-1-2.3-1-3.6c-0.1-1-0.1-2-0.2-3.1c-0.1,3-0.1,6,0.2,8.9c0,1.3,0.3,2.5,1,3.6c1,1.5,2.8,2,4.4,2.9
		c3.7,2.1,5.9,6.1,9.2,8.7c5.9,4.5,14,3.9,21.4,3l24.9-2.9c5.6-0.7,11.4-1.3,17-0.2c4.7,1,9.1,3.2,13.7,4.8
		c9.8,3.4,20.2,3.9,30.5,4.3c3,0.1,6.1,0.2,8.9-0.8c3.7-1.4,6.3-4.6,8.2-8.1c3.6-6.7,4.6-14.3,4.2-21.9
		C904.9,241.2,903.5,246.6,900.9,251.6z"/>
</g>
<path class="st6" d="M820.8,137.1l13.7,12.7C834.5,149.8,822.7,144.9,820.8,137.1z"/>
<text transform="matrix(1 0 0 1 1258.7612 143.51)" style="font-family:'MyriadPro-Regular'; font-size:61.0621px;">#32C742</text>
</svg>
