<?xml version="1.0" encoding="utf-8"?>
<!-- Generator: Adobe Illustrator 25.0.0, SVG Export Plug-In . SVG Version: 6.00 Build 0)  -->
<svg version="1.1" id="f7e01b52-fe13-4534-b7fc-d479bcd2a427"
	 xmlns="http://www.w3.org/2000/svg" xmlns:xlink="http://www.w3.org/1999/xlink" x="0px" y="0px" viewBox="0 0 982.9 803"
	 style="enable-background:new 0 0 982.9 803;" xml:space="preserve">
<style type="text/css">
	.st0{opacity:0.1;fill:#F05A90;enable-background:new    ;}
	.st1{fill:#3F3D56;}
	.st2{fill:#6C63FF;}
	.st3{fill:#F05A90;}
</style>
<path class="st0" d="M959.2,464c0,0.6,0,1.2,0,1.8c-0.1,10.3-0.7,20.5-1.8,30.7c0,0.1,0,0.1,0,0.2c-0.1,0.8-0.2,1.7-0.3,2.5
	c-0.2,1.4-0.3,2.9-0.5,4.3c-2.3,17.5-6,34.7-11.2,51.5l0,0c-7,22.7-16.9,44.5-29.4,64.7c-3.9,6.2-8,12.2-12.3,17.9l0,0
	c-2.3,3.1-4.7,6.1-7.1,9c-1.7,2.1-3.5,4.1-5.2,6.1l-1.1,1.2c-9.4,10.3-19.5,19.9-30.2,28.7c-17.6,14.6-36.5,27.2-55.7,39
	c-1.1,0.7-2.2,1.3-3.3,2c-0.1,0.1-0.2,0.1-0.2,0.1c-26.1,15.8-53.2,30-81.1,41.4c-30.5,12.5-62.1,21.6-94.4,25.6
	c-45.1,5.5-90.7,1-135.6-6.7c-37.3-6.4-74.1-15.2-110.3-26.3l-6-1.9c-3.1-1-6.2-2-9.2-3c-18.6-6.1-37-13-55.1-20.5
	c-45.6-18.8-89.2-42.2-130.1-69.8c-5.2-3.5-10.3-7.1-15.4-10.7c-7.1-5.1-14-10.3-20.9-15.7l-4.3-3.3c-18-14.1-34.9-29.7-50.6-46.4
	c-21-22.9-38.9-48.6-50.7-78.1c-1.9-4.6-3.6-9.3-5.1-14.1l-0.1-0.5c-0.8-2.4-1.5-4.9-2.2-7.4c-1-3.6-1.8-7.3-2.6-11
	c-0.2-0.7-0.3-1.4-0.4-2.1c-2.3-12.5-3.4-25.3-3.1-38c0.2-11.2,1.6-22.3,3.9-33.2l0,0c2.4-11.3,6.1-22.3,11.1-32.8l0,0
	c4.5-9.4,10.1-18.2,16.9-26.1l0,0c4.8-5.5,10.1-10.5,15.9-14.9c10.6-7.9,22.3-13.4,34.5-17.7l0,0c5.7-2,11.5-3.8,17.3-5.5
	c4.1-1.2,8.3-2.3,12.4-3.4l12.2-3.3c7.8-2.1,15.6-4.3,23.3-6.7c21-6.4,41.5-14.1,60.5-25.7c3-1.8,6.1-3.8,9.1-6
	c3.9-2.7,7.7-5.7,11.6-8.8l0,0c3.8-3.2,7.6-6.7,11.2-10.3c0.6-0.6,1.1-1.1,1.6-1.7c2.9-3.1,5.8-6.3,8.4-9.7c1.3-1.6,2.5-3.3,3.7-5
	c1.6-2.4,3.2-4.7,4.7-7.2l0,0c7.2-12.3,11.7-25.9,11.2-40.1c-0.1-2.4-0.3-4.7-0.6-7c-1.3-8.6-2.5-17-3.4-25.3
	c-3.8-34-2.2-64.9,23.4-93.9c31.7-36,81.6-43.4,126.9-40.5C570.6,18.7,690,93.6,794.9,182.7c9.1,7.7,18,15.5,26.9,23.4
	c2.2,2,4.5,4,6.7,6c16.6,14.9,32.9,30.4,48.1,47c1.2,1.3,2.5,2.7,3.7,4c0.7,0.8,1.5,1.7,2.2,2.5c4.7,5.4,9.3,10.9,13.8,16.5
	c12,14.9,22.5,30.9,31.5,47.8c13.8,26.5,23.2,55,27.7,84.6l0,0c1.7,10.7,2.8,21.5,3.3,32.4c0.2,3.2,0.3,6.4,0.3,9.6c0,1,0,2,0,3.1
	C959.2,461.1,959.2,462.5,959.2,464z"/>
<path class="st1" d="M441.7,505.9c9,0,17.5-5.2,21-13.5c2.7-6.3,2.4-12.3,0.4-17.5c0.6-0.3,1.3-0.5,1.9-0.8c-1-0.4-1.9-0.8-2.8-1.3
	c-3.3-6.5-9.5-11.2-16.9-12.4c-9.2-9.9-14.9-23.1-14.9-37.7c-0.1-30,24.2-55.1,54.2-55.8c0.2,0,0.5,0,0.7,0
	c13.4-0.2,25.6,7.4,32.4,18.9c4,6.8,11.3,11.3,19.7,11.3c6.4,0,12.2-2.7,16.4-6.9c9-9.3,20.4-16.3,33.2-18.4
	c8.4-1.4,17.1-1.9,26-1.5c61,3,113.5,57.1,114.8,118.2c1.5,68-53.2,123.6-120.9,123.6c-35.2,0-66.9-15.1-89-39.1
	c-9.8-10.7-23.6-16.6-38-16.5c-0.1,0-0.3,0-0.4,0c-23.5,0-42.5-19-42.5-42.5c0-1.3,0.1-2.6,0.2-3.9
	C437.2,507.9,439.3,505.9,441.7,505.9L441.7,505.9L441.7,505.9z"/>
<polygon class="st2" points="642.8,470 235.8,393.1 234.2,422.6 637.9,519 "/>
<path class="st1" d="M240.7,398l-4.9-4.9c0,0-21.2-9.8-21.2-11.4c0-1-31.4-11.7-54.8-19.5c-13.1-4.4-27,4.3-28.8,18l-2.9,21.6
	c-1.8,12.9,8,24.5,21,25l57.5,2.3l27.8-6.5C234.2,422.6,240.7,398,240.7,398z"/>
<polygon class="st1" points="641.9,478.9 642.9,474.9 235.7,397 235,402.1 "/>
<polygon class="st1" points="641,486.7 641.9,482.2 235.2,405.1 235,410.3 "/>
<polygon class="st1" points="640.1,495.9 640.3,488.7 234.9,410.9 235,415.2 "/>
<polygon class="st1" points="639,506.7 638.7,500.2 234.3,416.8 234,418.4 "/>
<polygon class="st1" points="639,513.2 638.7,508.4 234.9,419.5 234.6,421.1 "/>
<path class="st3" d="M435.3,123.7l-123.5,33.5l18,80.1c-5.8-3.9-12.8-6.2-20.3-6.2c-20.2,0-36.5,16.3-36.5,36.5s16.3,36.5,36.5,36.5
	c20.2,0,36.5-16.3,36.5-36.5c0-7-2-13.5-5.4-19.1l-14.2-63.5l106.5-33.5l9.7,47.3c-5.8-4-12.9-6.3-20.5-6.3
	c-20.2,0-36.5,16.3-36.5,36.5s16.3,36.5,36.5,36.5c20.2,0,36.5-16.3,36.5-36.5c0-7.1-2.1-13.7-5.5-19.3L435.3,123.7z"/>
<path class="st3" d="M309.1,533.4c-20,0-36.1,16.2-36.1,36.1c0,5.6,1.3,11,3.6,15.7l20.6,85.1l11.7-2.8L293,601.9
	c4.8,2.4,10.3,3.8,16.1,3.8c20,0,36.1-16.2,36.1-36.1S329,533.4,309.1,533.4L309.1,533.4z"/>
<path class="st3" d="M463.4,701.2l-20.5-81.9l-12.4,2.9l16,64.1c-4.9-2.2-10.4-3.5-16.2-3.5c-21.2,0-38.4,16.7-38.4,37.2
	s17.2,37.2,38.4,37.2s38.4-16.7,38.4-37.2C468.7,713.1,466.7,706.7,463.4,701.2L463.4,701.2z"/>
</svg>
