<?xml version="1.0" encoding="utf-8"?>
<!-- Generator: Adobe Illustrator 23.0.2, SVG Export Plug-In . SVG Version: 6.00 Build 0)  -->
<svg version="1.1" id="f7e01b52-fe13-4534-b7fc-d479bcd2a427"
	 xmlns="http://www.w3.org/2000/svg" xmlns:xlink="http://www.w3.org/1999/xlink" x="0px" y="0px" viewBox="0 0 982.9 803"
	 style="enable-background:new 0 0 982.9 803;" xml:space="preserve">
<style type="text/css">
	.st0{opacity:0.1;fill:#32C742;enable-background:new    ;}
	.st1{fill:#3F3D56;}
	.st2{fill:#32C742;}
	.st3{fill:#35323E;}
	.st4{fill:#504F60;}
	.st5{fill:#A1616A;}
	.st6{opacity:0.1;enable-background:new    ;}
	.st7{fill:#464353;}
	.st8{opacity:4.000000e-02;enable-background:new    ;}
	.st9{fill:#FFFFFF;}
	.st10{opacity:0.1;}
	.st11{fill:#FBBEBE;}
	.st12{opacity:5.000000e-02;enable-background:new    ;}
	.st13{fill:#F86D70;}
	.st14{opacity:7.000000e-02;enable-background:new    ;}
	.st15{opacity:0.1;fill:#F05A90;enable-background:new    ;}
	.st16{fill:#F05A90;}
</style>
<title>exams</title>
<path class="st0" d="M2149.5,1029.2c0,0.6,0,1.2,0,1.8c-0.1,10.3-0.7,20.5-1.8,30.7c0,0.1,0,0.1,0,0.2c-0.1,0.8-0.2,1.7-0.3,2.5
	c-0.2,1.4-0.3,2.9-0.5,4.3c-2.3,17.5-6,34.7-11.2,51.5l0,0c-7,22.7-16.9,44.5-29.4,64.7c-3.9,6.2-8,12.2-12.3,17.9l0,0
	c-2.3,3.1-4.7,6.1-7.1,9c-1.7,2.1-3.5,4.1-5.2,6.1l-1.1,1.2c-9.4,10.3-19.5,19.9-30.2,28.7c-17.6,14.6-36.5,27.2-55.7,39
	c-1.1,0.7-2.2,1.3-3.3,2c-0.1,0.1-0.2,0.1-0.2,0.1c-26.1,15.8-53.2,30-81.1,41.4c-30.5,12.5-62.1,21.6-94.4,25.6
	c-45.1,5.5-90.7,1-135.6-6.7c-37.3-6.4-74.1-15.2-110.3-26.3l-6-1.9c-3.1-1-6.2-2-9.2-3c-18.6-6.1-37-13-55.1-20.5
	c-45.6-18.8-89.2-42.2-130.1-69.8c-5.2-3.5-10.3-7.1-15.4-10.7c-7.1-5.1-14-10.3-20.9-15.7l-4.3-3.3c-18-14.1-34.9-29.7-50.6-46.4
	c-21-22.9-38.9-48.6-50.7-78.1c-1.9-4.6-3.6-9.3-5.1-14.1l-0.1-0.5c-0.8-2.4-1.5-4.9-2.2-7.4c-1-3.6-1.8-7.3-2.6-11
	c-0.2-0.7-0.3-1.4-0.4-2.1c-2.3-12.5-3.4-25.3-3.1-38c0.2-11.2,1.6-22.3,3.9-33.2l0,0c2.4-11.3,6.1-22.3,11.1-32.8l0,0
	c4.5-9.4,10.1-18.2,16.9-26.1l0,0c4.8-5.5,10.1-10.5,15.9-14.9c10.6-7.9,22.3-13.4,34.5-17.7l0,0c5.7-2,11.5-3.8,17.3-5.5
	c4.1-1.2,8.3-2.3,12.4-3.4l12.2-3.3c7.8-2.1,15.6-4.3,23.3-6.7c21-6.4,41.5-14.1,60.5-25.7c3-1.8,6.1-3.8,9.1-6
	c3.9-2.7,7.7-5.7,11.6-8.8l0,0c3.8-3.2,7.6-6.7,11.2-10.3c0.6-0.6,1.1-1.1,1.6-1.7c2.9-3.1,5.8-6.3,8.4-9.7c1.3-1.6,2.5-3.3,3.7-5
	c1.6-2.4,3.2-4.7,4.7-7.2l0,0c7.2-12.3,11.7-25.9,11.2-40.1c-0.1-2.4-0.3-4.7-0.6-7c-1.3-8.6-2.5-17-3.4-25.3
	c-3.8-34-2.2-64.9,23.4-93.9c31.7-36,81.6-43.4,126.9-40.5c131.1,8.3,250.5,83.2,355.4,172.3c9.1,7.7,18,15.5,26.9,23.4
	c2.2,2,4.5,4,6.7,6c16.6,14.9,32.9,30.4,48.1,47c1.2,1.3,2.5,2.7,3.7,4c0.7,0.8,1.5,1.7,2.2,2.5c4.7,5.4,9.3,10.9,13.8,16.5
	c12,14.9,22.5,30.9,31.5,47.8c13.8,26.5,23.2,55,27.7,84.6l0,0c1.7,10.7,2.8,21.5,3.3,32.4c0.2,3.2,0.3,6.4,0.3,9.6c0,1,0,2,0,3.1
	C2149.5,1026.2,2149.5,1027.7,2149.5,1029.2z"/>
<polygon class="st1" points="1598.2,1012.8 1582.6,1290.7 1598.2,1290.9 1610.9,1008.9 "/>
<rect x="1347.5" y="1153.6" class="st2" width="193.2" height="42"/>
<path class="st1" d="M1553.4,1190.7v26.3h-199.6c-7.1-5.1-14-10.3-20.9-15.7v-10.6H1553.4z"/>
<path class="st3" d="M1593.2,1130.7c-0.5,2.5-1.3,5-2,7.5c-2.2,7.2-4.9,14.3-5.4,21.8c-0.7,9.9,2,21.4-4.9,28.5
	c-1.8,1.9-4,3.2-5.6,5.2c-0.2,0.3-0.5,0.6-0.7,1c-1.4,2.3-1.6,5.2-1.6,7.8c0,5.7,0.4,11.3,1.1,16.9c2.3,19.3,6.9,38.7,0.9,56.9
	c-1.1,3.2-2.4,6.3-3.8,9.3c-2.9,6.4-6.1,12.8-7.1,19.8c-0.7,5.2-0.5,10.5-0.5,15.8c-3.1-1-6.2-2-9.2-3c-18.6-6.1-37-13-55.1-20.5
	c0-0.3,0.1-0.5,0.1-0.8c1.4-8.7-0.5-17.6-2.8-26c-4.9-17.9-11.8-35.7-15.9-53.8c-1.6-7.1-2.7-14.2-3.2-21.5
	c-0.1-1.6-0.2-3.2-0.2-4.9c0-2.1,0-4.3,0.1-6.4c0.2-4.3,0.4-9.4-3-12c-1.9-1.4-4.4-1.7-6.6-2.5c-4.2-1.6-7.1-5.5-10.5-8.5
	c-3.3-3.2-7.8-4.5-12.3-3.6c-21.9,5-38.1,23.6-58.5,33c-0.8,0.4-1.6,0.7-2.4,1.1c-2.6,1-5.2,2.3-7.5,3.8c-1.6,1.1-2.8,2.8-3.4,4.7
	c-0.5,2.1-0.1,4.2,0.2,6.4c0.4,3.5,0.3,7-0.4,10.4c-0.3,1.3-0.6,2.6-1,3.9c-0.8,2.3-1.8,4.6-2.8,6.8c-5.2-3.5-10.3-7.1-15.4-10.7
	c-7.1-5.1-14-10.3-20.9-15.7l-4.2-3.4c-18-14.1-34.9-29.7-50.6-46.4c2.1-5.9,5.1-11.3,6.5-17.3c0.8-3.4,1.1-7,2.3-10.4
	c1.3-3.5,3.1-6.7,5.4-9.7c8.3-11.6,18.4-21.7,30-30c12.1-8.7,26.1-15.6,36.9-25.4c4.4-3.9,8.2-8.4,11.3-13.4c0.2-0.3,0.4-0.6,0.5-1
	c0.8-1.8,1.4-3.6,1.7-5.6c0.8-4.4,0.7-9.2,1.1-13.4c13.3,2.3,26.8,2.7,40.1,1.2c15.6-1.7,30.8-6.1,46.3-7.7c1.2-0.1,2.4-0.2,3.5-0.3
	c5-0.4,10-0.5,15-0.4c4.2,0,8.4,0.2,12.6,0.3l46.1,1.6c5.1,0.2,10.3,0.4,15.1,2.2c5.6,2.2,10.2,6.6,13.8,11.5
	c0.5,0.6,0.9,1.2,1.3,1.9c3,4.3,5.4,9.1,7.1,14c0.2,0.5,0.4,1,0.5,1.5c0.4,1.4,0.8,2.7,1.2,4.1c0.3,1.1,0.5,2.2,0.7,3.3
	c1.1,5.4,1.7,10.9,3.4,16.1c0.1,0.4,0.2,0.8,0.4,1.1c2,5.7,5.4,10.8,8,16.3c1.8,4,3.2,8.1,4.2,12.4
	C1595,1113.2,1595,1122.1,1593.2,1130.7z"/>
<path class="st2" d="M1453.1,781.5c-4.1-3.3-10.1-0.9-14.9,1.2c-4,1.8-8.2,3.3-12.4,4.5c-0.9,0.3-1.8,0.4-2.7,0.3
	c-2-0.5-2.8-2.8-4.2-4.2c-2.5-2.4-6.7-1.9-9.9-0.5c-3.3,1.3-6.5,3.2-10,2.9c-3.7-0.3-7-3-10.7-3.1c-6.6-0.2-12.2,8-18.5,5.9
	c-3.8-1.3-6.8-6.3-10.6-4.9c-2.9,1.1-3.2,5.2-5,7.8c-2.1,3.1-6.1,4-9.6,5.3c-10.9,4.3-18.1,16.5-16.7,28.1c0.8,6.4,3.9,12.3,6,18.5
	c6.1,17.8,4,38,11.7,55.2c1-0.9,1.5-1.3,2.5-2.2c-2.4,5-2.9,10.8-1.3,16.2c0.8,2.7,2.1,5.2,3.1,7.9c1,3,1.9,6,2.5,9.1l8.5,37.4
	c3.3,14.6,6.6,29.3,7.2,44.3c0.4,9.7-0.4,19.5-2.2,29.1c15.4-2.5,29.4-9.4,45-9.3c5.7,0,11.4,1,17.1,1.8c16.5,2.3,33.2,3.4,49.9,3.4
	c2.6,0.1,5.2-0.2,7.6-1.1c2.1-0.9,3.9-2.5,5.9-3.7c4-2.3,8.8-2.9,13.4-2.9c20.9-0.4,41,7.3,61.7,10c8.2-17.2,8.7-37.8,2.4-55.7
	c-1.9-5.3-4.4-10.5-5.1-16.1c-0.3-3.4-0.4-6.9-0.2-10.4c0-8.9-1.6-17.6-4.7-25.9c-1.2-3.2-2.7-6.6-2.5-10c0.2-3.4,1.8-6.7,3.5-9.8
	c3.4-6.2,6.8-12.5,11.6-17.8c4.9-5.4,11.1-9.6,17.2-13.7l15.1-10.1c-2.1-13-4.7-26.7-10.2-38.7s-13.8-23-24.9-30
	c-3.8-2.3-7.7-4.2-11.8-5.9c-5.7-2.4-11.6-4.5-17.8-4.9c-7-0.4-13.9,1.5-20.9,2.7C1496.2,795.8,1470.5,795.3,1453.1,781.5z"/>
<path class="st1" d="M1617.8,1007.2l-7.2,9l-13.5,17l-15.6,19.7l-4.4,5.5h-8.5l-209.5,0.2l-131.2,0.1h-5.9c-0.8-2.4-1.5-4.9-2.2-7.4
	c-1-3.6-1.8-7.3-2.6-11c-0.2-0.7-0.3-1.4-0.4-2.1l47.8-31l17.9-0.1l0,0l54.7-0.3l0,0l30.6-0.2h5.6h3.5l0,0l20.4-0.1l0,0l155.3-0.9
	l0,0h7.9l0,0h3.4h9.1l33.9-0.2l6.5-2.5l0.5,0.5L1617.8,1007.2z"/>
<path class="st4" d="M1614.8,1002.4l-0.8,1l-5.3,6.3l-11,12.9l-23,27.1l-203.7-5.2l-153.6-3.9c-0.2-0.7-0.3-1.4-0.4-2.1
	c-2.3-12.5-3.4-25.3-3.1-38l17-8.7l3.9-2l30.4-15.6l26.7-13.8l69.5,9l15.4,2l7,0.9l10.2,1.3l0.9,0.1l159.9,20.7l17.7,2.3l10.4,1.3
	l32,4.2L1614.8,1002.4z"/>
<path class="st1" d="M1581.7,1049.2l-0.2,3.8l-1,21.7l-5.2,119l-1.1,25.7l-2.9,66.2l-1.6,37.4l-6-1.9c-3.1-1-6.2-2-9.2-3l14.3-259.5
	l0.3-5.4l6.3-2L1581.7,1049.2z"/>
<ellipse class="st5" cx="1483.6" cy="840.9" rx="44.9" ry="60.5"/>
<ellipse class="st6" cx="1483.6" cy="840.9" rx="44.9" ry="60.5"/>
<circle class="st5" cx="1489.9" cy="804.3" r="62.4"/>
<path class="st7" d="M1491.2,708.1c-3.8,0.3-7.6,0.9-11.3,1.7c-9.9,2.4-18.4,7.7-26.7,13c-3.7,2.4-7.6,4.8-9.9,8.3
	c-4.2,6.2-2.5,14.1-4.9,21c-1.2,3.5-3.4,6.7-5.3,10c-5.2,9-7.9,18.9-10.6,28.7c-0.5,2-0.7,4.8,1.5,5.6c1.3,0.3,2.6,0.1,3.8-0.4
	c7-2.3,15.9-3,21.1,1.7c5.2,4.7,4.8,13,10.9,16.6c7.1,4.1,18.1-0.9,24.5,4c2.8,2.1,3.7,5.4,6,8c5.2,5.9,15.3,5.6,23.7,4.4
	c4.8-0.7,10.7-1.1,13.7,2.2c1.4,1.6,1.8,3.8,3.4,5.2c2.9,2.6,8.3,1.3,11.1-1.4c2.9-2.7,4.2-6.3,6.6-9.3c4.6-5.9,12.8-9,17.6-14.8
	c4-4.9,5.2-11,6.3-16.9l4.1-21.8c1.6-8.9,3.2-18.5-1.8-26.3c-1.8-2.8-4.3-5.2-5.9-8.1c-1-2-1.6-4-2.8-5.9c-1.4-1.9-3.1-3.6-5-5.1
	l-9.6-8c-3.3-2.9-6.8-5.5-10.5-7.8C1527.5,704.5,1506.9,706.6,1491.2,708.1z"/>
<path class="st5" d="M1285.5,868.9c-2.3,2.5-4.4,5.1-6.9,7.4c-2.2,1.9-4.5,3.8-6.8,5.5c-3.8,2.9-7.6,5.8-11.2,8.9
	c-3.8,3-7.3,6.5-10.3,10.3c-5.2,7-7.7,15.7-12.6,22.9c-4.3,6.4-10.4,11.5-14.8,17.8c-1.9,2.7-3.3,5.7-4.2,8.8
	c-0.6,3.1-0.9,6.2-0.9,9.4c-0.1,5.2-0.2,10.4,0.9,15.4c1.1,5,3.4,10,7.3,13.3c3.7,3.1,8.4,4.5,13.1,5.7c2.4,0.6,5,1.2,7.3,0.2
	c1.7-0.8,3.1-2.1,4.2-3.6l11.9-13.7c7.9-9.2,16.2-18.5,27.1-23.9c3.4-1.7,7-2.9,10.4-4.5c14.5-7,24.8-21.3,28.8-36.9
	c1-3.8,1.6-7.7,2.2-11.6l1.7-10.7c0.1-0.5,0.1-1.1,0-1.6c-0.3-0.6-0.7-1.1-1.2-1.5c-8.3-6.7-16-14-23.2-21.9c-1.7-1.9-3.3-4.4-5.2-6
	c-2.5-2-2.3-1.8-5.2,0C1293.3,861.5,1289.2,865,1285.5,868.9z"/>
<path class="st1" d="M1366.7,939.9c-0.4-0.9-1.5-1.4-2.4-0.9s-1.4,1.5-0.9,2.4c0,0,0,0.1,0.1,0.1l-1,0.5l29.1,59.6l5.3-2.6
	l-29.1-59.7L1366.7,939.9z"/>
<path class="st8" d="M1285.5,868.9c-2.3,2.5-4.4,5.1-6.9,7.4c-2.2,1.9-4.5,3.8-6.8,5.5c-3.8,2.9-7.6,5.8-11.2,8.9
	c-3.8,3-7.3,6.5-10.3,10.3c-5.2,7-7.7,15.7-12.6,22.9c-4.3,6.4-10.4,11.5-14.8,17.8c-1.9,2.7-3.3,5.7-4.2,8.8
	c-0.6,3.1-0.9,6.2-0.9,9.4c-0.1,5.2-0.2,10.4,0.9,15.4c1.1,5,3.4,10,7.3,13.3c3.7,3.1,8.4,4.5,13.1,5.7c2.4,0.6,5,1.2,7.3,0.2
	c1.7-0.8,3.1-2.1,4.2-3.6l11.9-13.7c7.9-9.2,16.2-18.5,27.1-23.9c3.4-1.7,7-2.9,10.4-4.5c14.5-7,24.8-21.3,28.8-36.9
	c1-3.8,1.6-7.7,2.2-11.6l1.7-10.7c0.1-0.5,0.1-1.1,0-1.6c-0.3-0.6-0.7-1.1-1.2-1.5c-8.3-6.7-16-14-23.2-21.9c-1.7-1.9-3.3-4.4-5.2-6
	c-2.5-2-2.3-1.8-5.2,0C1293.3,861.5,1289.2,865,1285.5,868.9z"/>
<path class="st5" d="M1621.9,978.8c-0.1,6.2-0.3,12.6-2.9,18.3c-1.1,2.5-2.8,4.9-5.4,5.7c-1.6,0.4-3.2,0.4-4.8,0.2
	c-19.1-1.7-38.4-0.2-57.1,4.5c5-10,2.1-21.9,3.5-32.9c0.4-3,1.1-6,1.3-9c1-10.7-3.6-21.2-5.7-31.7c-1.8-9.2-1.8-18.6,0-27.8
	c0.4-2.4,1.2-4.6,2.4-6.7c1.4-2,3.3-3.6,5.5-4.8c7.9-4.5,17.2-5,26.1-4.4c6,0.4,18-0.2,23,3.5c5.5,4,7.2,17.6,8.7,23.8
	c2.2,9.6,3.7,19.3,4.5,29.1C1621.8,957.3,1622,968.1,1621.9,978.8z"/>
<polygon class="st9" points="1272.4,1000.4 1307.5,1023.8 1465.6,1018 1361.2,1000.4 "/>
<path class="st2" d="M1318.7,814.4c-5.8,5.1-10.7,11.1-16.1,16.5c-7.5,7.4-16,13.8-24.5,20.1c6.2,1.7,11,6.6,12.7,12.8
	c0.4,1.4,0.6,2.9,1,4.3c1,3.3,3.1,6.2,5.4,8.8c9.9,11.2,23.7,19.4,29.6,33.2c0.2,0.7,0.6,1.3,1.2,1.7c0.5,0.2,1,0.3,1.5,0.2
	c5.3-0.6,9.3-4.8,12.7-8.9c7-8.8,13.1-18.5,16.6-29.2s4-22.6,0.2-33.2c-1.9-5.3-4.8-10.1-7.7-15c-2.5-4.2-5.1-8.4-7.6-12.6
	c-1.3-2.2-3-6.7-5.6-7.8C1332.5,802.7,1322.3,810.8,1318.7,814.4z"/>
<path class="st2" d="M1606.1,877.4l8.3,19.5c-18.3-6.4-38.6-3.6-54.5,7.6c-4.7,3.4-9.1,7.6-11.2,13c-2.2,0.4-4.3-0.5-5.6-2.2
	c-1.2-1.8-2-3.8-2.1-6c-0.8-7.5,2.1-14.8,4.9-21.8c1.3-3.3,2.7-6.6,5-9.3c2.3-2.7,5.4-4.4,8.5-6.1c9.8-5.4,20.1-10,30.8-13.6
	c4.5-1.5,9.2-1.4,11.7,2.8C1604.6,866.3,1603.8,872.1,1606.1,877.4z"/>
<path class="st5" d="M1272.6,936c2.1,1.7,3.9,3.6,6,5.2c2.3,1.6,4.7,2.9,7.2,4l9.6,4.6c3,1.5,6.1,2.8,9.3,3.8
	c4.1,1.1,8.4,1.2,12.6,2.2c5.2,1.3,10,4,15.1,5.5c5.1,1.6,11.2,1.8,15.5-1.4c2.7-2,4.7-5.4,8-5.9c2.1-0.3,4.2,0.8,6.1,1.8l25,13.2
	c3.4,1.8,6.9,3.7,8.7,7.1c1.8,3.4,0.6,8.5-3.1,9.4c-1.3,0.1-2.6,0.2-3.9,0.2c-1.3,0.2-2.7,0.9-2.9,2.2c0,0.8,0.2,1.6,0.6,2.3
	c1.1,2.6,1.5,5.7,0.1,8.2c-1.3,2.5-4.5,4-7.1,2.9c0.4,3.8-3.7,6.4-7.3,7.4c-9.2,2.5-19,1-28.5-0.6c-3.7-0.6-7.5-1.3-10.8-2.9
	c-1.6-0.8-3.1-1.8-4.8-2.5c-4.5-2-9.6-1.7-14.5-1.6c-22.7,0.4-45.3-3.8-67.7-8c-4.1-0.8-8.4-1.6-12-3.9c-6.8-4.4-9.4-13.6-8.2-21.7
	c1.1-8.1,5.2-15.4,9.2-22.5l5.2-9.2c0.7-1.4,1.6-2.7,2.8-3.7C1250.8,926.2,1266,930.7,1272.6,936z"/>
<path class="st8" d="M1272.6,936c2.1,1.7,3.9,3.6,6,5.2c2.3,1.6,4.7,2.9,7.2,4l9.6,4.6c3,1.5,6.1,2.8,9.3,3.8
	c4.1,1.1,8.4,1.2,12.6,2.2c5.2,1.3,10,4,15.1,5.5c5.1,1.6,11.2,1.8,15.5-1.4c2.7-2,4.7-5.4,8-5.9c2.1-0.3,4.2,0.8,6.1,1.8l25,13.2
	c3.4,1.8,6.9,3.7,8.7,7.1c1.8,3.4,0.6,8.5-3.1,9.4c-1.3,0.1-2.6,0.2-3.9,0.2c-1.3,0.2-2.7,0.9-2.9,2.2c0,0.8,0.2,1.6,0.6,2.3
	c1.1,2.6,1.5,5.7,0.1,8.2c-1.3,2.5-4.5,4-7.1,2.9c0.4,3.8-3.7,6.4-7.3,7.4c-9.2,2.5-19,1-28.5-0.6c-3.7-0.6-7.5-1.3-10.8-2.9
	c-1.6-0.8-3.1-1.8-4.8-2.5c-4.5-2-9.6-1.7-14.5-1.6c-22.7,0.4-45.3-3.8-67.7-8c-4.1-0.8-8.4-1.6-12-3.9c-6.8-4.4-9.4-13.6-8.2-21.7
	c1.1-8.1,5.2-15.4,9.2-22.5l5.2-9.2c0.7-1.4,1.6-2.7,2.8-3.7C1250.8,926.2,1266,930.7,1272.6,936z"/>
<path class="st5" d="M1570.4,952.8c-5.1,2.4-10.9,2.6-16.2,4.5c-5.3,1.8-9.8,5.2-14.7,7.9c-12.7,7.1-27.3,9.8-41.7,12.3
	c-8.7,1.6-17.6,3.1-26.3,2.8c-11.9-0.5-23.3-4.5-34.8-7.5s-23.8-5-35.2-1.6c-12.1,3.7-21.7,12.9-25.9,24.8c-2.4,7-2.7,14.6-2.3,22
	c2.4,1.8,5.8-0.7,7.1-3.4c1.3-2.7,2-6,4.6-7.5c4.4,1.5,5.5,7.4,9.1,10.3c2.3,1.8,5.3,2.3,8.2,2.7l14.8,2.1c3.6,0.5,7.7,0.8,10.3-1.7
	c1.3-1.2,2-2.9,3.1-4.2c2.4-2.6,6.3-3.1,9.8-2.7c11,1.1,21.3,8.2,32.1,6.5c3.7-0.6,7.2-2.2,10.8-3.4c21.2-7.5,44.7-2.9,66.7-7.2
	c8.4-1.6,16.5-4.5,24.5-7.6c4.3-1.6,8.7-3.4,12.4-6.2c7.1-5.5,11-14.3,10.1-23.2c-0.8-6.7-4.2-12.9-9.4-17.2c-1.7-1.5-4-4.3-6-5.2
	C1577.6,948.3,1573.7,951.3,1570.4,952.8z"/>
<g class="st10">
	<path d="M1541.9,828.2c-1.6-1.4-2-3.6-3.4-5.2c-2.9-3.4-8.8-2.9-13.7-2.2c-8.4,1.2-18.5,1.5-23.7-4.4c-2.3-2.5-3.2-5.9-6-8
		c-6.4-4.9-17.5,0.1-24.5-4c-6.2-3.6-5.8-12-10.9-16.6c-5.2-4.6-14.1-4-21.1-1.7c-1.2,0.5-2.5,0.7-3.8,0.4c-2.2-0.8-2.1-3.5-1.5-5.6
		c2.7-9.8,5.4-19.7,10.6-28.7c1.9-3.3,4.1-6.5,5.3-10c2.1-6.2,1-13.2,3.8-19c-3,2-5.9,4.1-7.7,6.8c-4.2,6.2-2.5,14.1-4.9,21
		c-1.2,3.5-3.4,6.7-5.3,10c-5.2,9-7.9,18.9-10.6,28.7c-0.5,2-0.7,4.8,1.5,5.6c1.3,0.3,2.6,0.1,3.8-0.4c7-2.3,15.9-3,21.1,1.7
		s4.8,13,10.9,16.6c7.1,4.1,18.1-0.9,24.5,4c2.8,2.1,3.7,5.4,6,8c5.2,5.9,15.3,5.6,23.7,4.4c4.8-0.7,10.7-1.1,13.7,2.2
		c1.4,1.6,1.8,3.8,3.4,5.2c2.9,2.6,8.3,1.3,11.1-1.4c1.8-1.9,3.4-4.1,4.7-6.4C1546.4,829.9,1543.7,829.8,1541.9,828.2z"/>
	<path d="M1559.7,817.4c-0.6,0.8-1.2,1.7-1.7,2.5c3.7-2.7,7.7-5.2,10.5-8.6c0.7-0.9,1.4-1.8,2-2.8
		C1566.5,811.4,1562.4,813.9,1559.7,817.4z"/>
</g>
<polygon class="st1" points="1756.8,1010.7 1759.7,1290.7 1773.4,1288.7 1770.5,1010.7 "/>
<polygon class="st1" points="1838.8,1061.4 1841.7,1341.4 1855.3,1339.5 1852.4,1061.4 "/>
<path class="st1" d="M2093.9,1202.8L2093.9,1202.8l-0.1-5.4v-3.2l-0.5-49.3l-0.8-77l-0.1-6.6h-13.7l0.1,6.4l0.4,41.2l0.2,17.9l0,0
	l0.2,14.5l0.3,25l0.2,14.7l0,0v1.6l0.2,19.4l0.2,17.1l1.1-1.2c1.8-2,3.5-4,5.2-6.1L2093.9,1202.8z"/>
<polygon class="st2" points="1823.6,1106.8 1815.8,1118.4 1823.6,1171.6 1890,1189.7 1997.3,1189.7 2061.7,1193.6 2092.4,1172.6 
	2087.1,1136.6 2063.6,1106.8 "/>
<path class="st1" d="M1815.8,1118.4l-3.9,32.4c0,0-20.5,63.5,144.4,59.7c164.9-3.8,136.6-16.9,136.6-16.9l-1-37.6
	c0,0,5.7,17.8-78.1,15.4c-83.8-2.4-161.9-10.2-161.9-10.2S1822.7,1166.4,1815.8,1118.4z"/>
<path class="st11" d="M1953.2,827.9c-9.4,4.3-16.5,12.6-21.3,21.8c-4.8,9.2-7.5,19.3-10.1,29.3c-2.8,10.6-5.6,21.1-7,32
	c-2.6,19.2-0.6,39.5,8.2,56.7c8.8,17.2,25.2,31.2,44.3,34.5c7.4,1.3,15,1,22.4,0.3c13.5-1.4,26.8-4.4,39.6-8.7
	c13.4-4.5,27.4-11.5,33.3-24.4c3.5-7.5,3.8-16,3.6-24.2c-0.5-22.4-3.8-44.6-10.1-66.1c-1.8-6.2-3.9-12.5-7.7-17.8
	c-3.8-5.3-9.1-9.1-14.4-12.7C2011.3,833.2,1981.3,815.1,1953.2,827.9z"/>
<path class="st12" d="M1953.2,827.9c-9.4,4.3-16.5,12.6-21.3,21.8c-4.8,9.2-7.5,19.3-10.1,29.3c-2.8,10.6-5.6,21.1-7,32
	c-2.6,19.2-0.6,39.5,8.2,56.7c8.8,17.2,25.2,31.2,44.3,34.5c7.4,1.3,15,1,22.4,0.3c13.5-1.4,26.8-4.4,39.6-8.7
	c13.4-4.5,27.4-11.5,33.3-24.4c3.5-7.5,3.8-16,3.6-24.2c-0.5-22.4-3.8-44.6-10.1-66.1c-1.8-6.2-3.9-12.5-7.7-17.8
	c-3.8-5.3-9.1-9.1-14.4-12.7C2011.3,833.2,1981.3,815.1,1953.2,827.9z"/>
<path class="st2" d="M1942.6,950.7c2.7,3.7,6,7,9.8,9.8c9.3,6.4,21.2,7.3,32.5,7.6c9.1,0.3,19.4-0.2,25.1-7.3
	c2.6-3.2,3.7-7.2,4.7-11.2c6.4-24.3,10.9-49,13.6-73.9l25.8,0.1c11.2,47.9,10.3,97.6,9.3,146.8l-1.4,71.7l-16.6-1.8
	c-39.5-4.2-79.1-8.4-118.8-9.1c-23.3-0.4-46.6,0.3-69.8,2.3l36.2-107.8c4.7-14,9.5-28.2,10.6-42.9c1.6-21.4-4.4-43.9,3.9-63.7
	c0.7-1.6,1.5-3.2,3-4.1c1.5-0.8,3.4-0.6,5.2-0.4c3.3,0.4,13.3,0,15.7,2.1c3.5,3,1.2,3.5,0,8.4c-2.2,8.8-4.3,16.9-4.3,26.1
	C1927,920.1,1932.1,937.6,1942.6,950.7z"/>
<path class="st7" d="M2093.9,1202.8L2093.9,1202.8c4.4-5.8,8.5-11.8,12.3-17.9c-2-4.2-4.1-8.3-5.8-12.5c-2.6-6.5-4.1-13.5-5.6-20.3
	c-0.5-2.3-1-4.7-1.5-7c-5.5-25.5-10.6-51.3-11.7-77.1c-0.1-2.1-0.2-4.3-0.2-6.4c0-0.3,0-0.6,0-1c0-2.4,0-4.7,0-7
	c0.1-5.9,0.5-11.8,1.2-17.6c0.1-1.2,0.3-2.3,0.4-3.5c0-0.3,0.1-0.5,0.1-0.8l66.3-2.4l0,0l5.6-0.2c3.8-0.1,7.9-0.4,11.1-2.5
	c5.3-3.6,5.9-11.1,5.9-17.6c-0.3-16.3-2.2-32.4-5.5-48.3c-2.5-12-6.1-24.2-14.2-33.4c-6.6-7.6-16.2-13-19.6-22.4
	c-1.3-3.5-1.6-7.3-3.3-10.7c-1.7-3.3-4.4-5.8-7-8.4c-9.1-9-16.6-19.5-22.3-30.9c-4-8-8.2-16.7-13.4-22.2c-0.3-0.3-0.5-0.5-0.8-0.8
	c-4.4-4.3-9.4-6.2-15.4-3.3c-1.1,0.5-2.1,1.2-3,1.9l0,0c-2.1,1.6-4.1,3.5-5.8,5.5c-6,6.9-11.3,14.4-15.7,22.4
	c-3.1,5.6-5.8,11.5-8,17.6c-1.8,4.8-3.2,9.7-4.3,14.6c-0.8,3.7-1.5,7.4-2,11.1c-2,14-2,28.3-1.7,42.5c0.3,13,0.9,26.1,2,39.1
	c0.3,3.1,0.6,6.3,1,9.4c0.7,6.2,1.6,12.4,2.7,18.5c0.4,2.4,0.8,4.7,1.3,7c0.1,0.6,0.2,1.2,0.4,1.9l0.1,0.3c1.3,5.4,2.3,11,3,16.5
	c0.1,0.7,0.1,1.4,0.2,2.1c0.2,3.2,0.1,6.4-0.1,9.6c-0.2,3.8-0.6,7.5-0.8,11.3c0,0.7,0,1.3-0.1,2c0,1.9,0,3.8,0,5.7
	c0.2,4.6,0.7,9.1,1.6,13.6c1.6,8.3,4.5,16.3,8.4,23.8c0.4,0.7,0.8,1.4,1.1,2.1c4.9,8.8,11.2,16.9,15.8,26c3.9,8.1,6.9,16.7,8.8,25.6
	c0.7,2.9,1.3,5.8,1.9,8.8c0.9,4.7,1.7,9.4,2.5,14.1c0.1,0.5,0.2,1,0.3,1.4c1.1,6.3,2.3,12.5,3.8,18.6c0.9,3.6,1.8,7.1,3,10.5
	L2093.9,1202.8z"/>
<path class="st13" d="M2080.9,1125.9c0,0.9-0.1,1.8-0.1,2.6c-0.2,4.3-0.6,8.6-1.2,12.8c-0.8,5.8-2.2,11.5-4.2,17
	c-1.3,3.6-3,7.1-5,10.4c-1.8,2.9-3.9,5.6-6.3,8.1c-5.9,6.1-14.3,8-22.4,10.6c-3.8,1.1-7.4,2.6-10.8,4.4c-0.6,0.3-1.2,0.7-1.8,1.1
	l-10.2,6.8c-3.2,2.1-6.4,4.3-8.6,7.4c-0.4,0.5-0.7,1.1-1,1.6c-1.4,2.9-2.4,5.9-3,9c-5.3,22.1-10.6,44.2-14.3,66.7
	c-0.2,1.5-0.5,3-0.7,4.5l-0.1,0.5c0-0.1-0.1-0.2-0.2-0.3c-26.1,15.8-53.2,30-81.1,41.4l-6.1-50.7c-0.6-4.1-0.8-8.3-0.6-12.5
	c0.6-6.6,3.2-12.8,4-19.3c0.7-6.4-0.5-12.9-3.5-18.6c-1.2-2.2-2.6-4.4-2.9-6.9s1.2-4.8,3.7-5c2-2.2,2.1-5.1,1.5-8
	c-0.3-1.5-0.8-3-1.4-4.5c-1.7-4.1-3.8-8.5-2.3-12.7c0.4-0.8,0.5-1.6,0.5-2.4c0-0.1,0-0.1,0-0.2c-0.3-1.1-1.6-1.6-2.3-2.5
	c-1.3-1.7,0-4.1,0.8-6.1c0.8-2.1,1.2-4.4,1.3-6.6c0.1-1.3,0.2-2.5,0.3-3.8c0.2-1.7,0.5-3.4,0.9-5c2.4-9.3,8.1-17.5,16-22.9
	c3.8-2.6,8-4.4,11.9-6.8c4-2.7,7.8-5.6,11.3-8.8c8.6-7.2,17.5-13.9,26.8-20.2c10-6.8,20.3-13.1,30.9-18.8c2.3-1.2,4.6-2.4,6.8-3.6
	c2.5-1.3,5-2.5,7.5-3.7c8-3.8,17.2-2.4,26.1,0.2c3.7,1.1,7.4,2.3,11,3.5c3.5,1.1,6.8,2.6,10,4.5c7.9,4.6,14.4,11.5,17.1,20.1
	c0,0.1,0,0.1,0,0.2C2080.9,1114.5,2081,1120.3,2080.9,1125.9z"/>
<path class="st6" d="M2080.9,1125.9c0,0.9-0.1,1.8-0.1,2.6c-0.2,4.3-0.6,8.6-1.2,12.8c-0.8,5.8-2.2,11.5-4.2,17
	c-1.3,3.6-3,7.1-5,10.4c-1.8,2.9-3.9,5.6-6.3,8.1c-5.9,6.1-14.3,8-22.4,10.6c-3.8,1.1-7.4,2.6-10.8,4.4c-0.6,0.3-1.2,0.7-1.8,1.1
	l-10.2,6.8c-3.2,2.1-6.4,4.3-8.6,7.4c-0.4,0.5-0.7,1.1-1,1.6c-1.4,2.9-2.4,5.9-3,9c-5.3,22.1-10.6,44.2-14.3,66.7
	c-0.2,1.5-0.5,3-0.7,4.5l-0.1,0.5c0-0.1-0.1-0.2-0.2-0.3c-26.1,15.8-53.2,30-81.1,41.4l-6.1-50.7c-0.6-4.1-0.8-8.3-0.6-12.5
	c0.6-6.6,3.2-12.8,4-19.3c0.7-6.4-0.5-12.9-3.5-18.6c-1.2-2.2-2.6-4.4-2.9-6.9s1.2-4.8,3.7-5c2-2.2,2.1-5.1,1.5-8
	c-0.3-1.5-0.8-3-1.4-4.5c-1.7-4.1-3.8-8.5-2.3-12.7c0.4-0.8,0.5-1.6,0.5-2.4c0-0.1,0-0.1,0-0.2c-0.3-1.1-1.6-1.6-2.3-2.5
	c-1.3-1.7,0-4.1,0.8-6.1c0.8-2.1,1.2-4.4,1.3-6.6c0.1-1.3,0.2-2.5,0.3-3.8c0.2-1.7,0.5-3.4,0.9-5c2.4-9.3,8.1-17.5,16-22.9
	c3.8-2.6,8-4.4,11.9-6.8c4-2.7,7.8-5.6,11.3-8.8c8.6-7.2,17.5-13.9,26.8-20.2c10-6.8,20.3-13.1,30.9-18.8c2.3-1.2,4.6-2.4,6.8-3.6
	c2.5-1.3,5-2.5,7.5-3.7c8-3.8,17.2-2.4,26.1,0.2c3.7,1.1,7.4,2.3,11,3.5c3.5,1.1,6.8,2.6,10,4.5c7.9,4.6,14.4,11.5,17.1,20.1
	c0,0.1,0,0.1,0,0.2C2080.9,1114.5,2081,1120.3,2080.9,1125.9z"/>
<path class="st1" d="M1988.2,964.3c-0.4-0.9-1.5-1.4-2.4-0.9c-0.9,0.4-1.4,1.5-0.9,2.4c0,0,0,0.1,0.1,0.1l-1,0.5l29.1,59.6l5.3-2.6
	l-29.1-59.7L1988.2,964.3z"/>
<circle class="st11" cx="2024.6" cy="839.4" r="62.4"/>
<path class="st7" d="M2107,800.8c-0.3-5-1-9.9-2.2-14.7c-3.7-15.8-10.4-31.3-21.9-42.6c-0.7-2.8-1.6-5.5-2.5-8.2
	c0-0.1,0-0.1-0.1-0.2c-3.4-9.5-8.4-18.3-14.7-26.1c-3.7-4.5-8.4-9-14.2-9.2c-1.6-0.1-3.4,0.2-4.9-0.5c-1.1-0.7-2-1.7-2.7-2.8
	c-5.9-7.4-15.4-11-24.7-9.3l-0.6,0.1c-0.3,0.1-0.7,0.1-1,0.2c-0.3,0.1-0.8,0.2-1.2,0.4c0.4,0.7,0.9,1.5,1.3,2.3
	c1.2,2.1,2.2,4.2,3.2,6.3c0.8,1.8,1.6,3.6,2.3,5.5c-10,1.1-18.1,8.2-25.6,15l-17.6,15.8l-0.1,0.1l-0.5,0.5c-0.1,0.1-0.3,0.3-0.4,0.4
	l-0.1,0.1c-0.1,0.2-0.3,0.3-0.4,0.5c-0.2,0.3-0.5,0.6-0.7,1c-0.1,0.1-0.2,0.3-0.3,0.5c0,0,0,0.1-0.1,0.1c-0.1,0.1-0.1,0.3-0.2,0.4
	c0,0,0,0,0,0.1c0,0.1-0.1,0.2-0.1,0.2c-0.2,0.7-0.1,1.4,0.2,2.1l11.5,0.1h1.4c0.1,1.5,0.1,3.1,0.2,4.6c-1.8,1.4-3.6,2.8-5.3,4.4
	c-1.8,1.7-3.5,3.5-5.1,5.4c-10.4,12.6-15.8,28.8-16.4,45.2c0,0.5,0,1,0,1.5c0,1.5,0,3,0,4.5c0,1,0.1,2,0.2,2.9c0,1.3,0.3,2.5,1,3.6
	c0.1,0.1,0.2,0.2,0.3,0.4c0.6,0.6,1.3,1.2,2.1,1.5l0.8,0.4l0,0c0.4,0.2,0.8,0.4,1.2,0.6c3.7,2.1,5.9,6.1,9.2,8.7
	c0.2,0.1,0.4,0.3,0.6,0.4l0.4,0.3l0.3,0.2l0.4,0.2c0.2,0.1,0.5,0.3,0.8,0.4l0,0l0,0l0.5,0.2h0.1l0,0c0.4,0.2,0.8,0.3,1.2,0.5
	l0.6,0.2l0.2,0.1c0.2,0,0.3,0.1,0.5,0.1c0.3,0.1,0.7,0.2,1,0.3l1,0.2c0.4,0.1,0.8,0.1,1.2,0.2l0.6,0.1l0.6,0.1
	c0.9,0.1,1.9,0.1,2.8,0.1l0,0c3,0,5.9-0.2,8.8-0.6l24.9-2.9c5.6-0.7,11.4-1.3,17-0.2c4.7,1,9.1,3.2,13.7,4.8c1,0.4,2.1,0.7,3.1,1
	c0.4,0.1,0.8,0.2,1.2,0.3l0.5,0.1l1.2,0.3c0.4,0.1,0.9,0.2,1.3,0.3c0.6,0.1,1.3,0.3,1.9,0.4c0.4,0.1,0.9,0.2,1.3,0.2h0.1l1.2,0.2
	h0.3l0,0l0.9,0.1c0.4,0.1,0.9,0.1,1.4,0.2c1,0.1,2,0.2,3,0.3c1.6,0.2,3.2,0.3,4.9,0.4l1.6,0.1l1.6,0.1l4.9,0.2h0.2h0.7
	c2,0.1,4.1,0,6.1-0.3c0.4-0.1,0.7-0.1,1-0.2c0.3-0.1,0.6-0.2,1-0.3c3.7-1.4,6.3-4.6,8.2-8.1c0.4-0.7,0.8-1.5,1.1-2.2
	s0.6-1.5,0.9-2.3c0.3-1,0.6-1.9,0.9-2.9c0.1-0.3,0.1-0.5,0.2-0.8c0.1-0.3,0.2-0.8,0.3-1.2c0.2-1.1,0.4-2.3,0.6-3.4
	c0-0.4,0.1-0.7,0.1-1.1c0.1-1,0.2-1.9,0.2-2.8c0-0.7,0-1.5,0-2.2C2107.1,802.8,2107,801.8,2107,800.8z M2082,742.5
	c-0.8-0.7-1.6-1.5-2.4-2.1C2080.5,741,2081.3,741.7,2082,742.5L2082,742.5z"/>
<path class="st7" d="M1904.8,836c-7.3-0.9-14.6-4.1-21.9-2.5c-4.5,1-8.4,3.8-12.1,6.7c-13.5,10.8-25,24-33.9,38.8
	c-1.5,2.2-2.6,4.7-3.1,7.3c-0.5,3,0.4,6.1,1.3,9.1c6.7,19.7,20.9,36.2,27.4,56c6.8,20.8,4.5,43.5-0.6,64.8
	c-6.2,26.3-16.4,51.5-30.1,74.8c-1.9,3.5-4.2,6.7-6.9,9.5c-3.6,3.4-8.3,5.9-10.4,10.3c-1,2-1.3,4.2-2,6.3c-2,5.9-6.7,10.9-7.1,17
	c-0.3,4.7,1.9,9.2,3.2,13.7c2.3,7.7,2,16-0.7,23.5c-4.9,13.6-17.9,25.9-14.1,39.8c8.4-2.4,17.7-5.5,21.6-13.3c1.4-2.8,2.1-6,4.4-8
	c4.7-4,12.7-0.4,17.7-4c3.8-2.8,3.9-8.5,2.2-12.9c-1.7-4.4-4.6-8.3-5.9-12.8c-2.2-8.1,1.3-16.8,0.7-25.2c-0.3-3.9-1.5-7.6-1.6-11.5
	c-0.2-7.5,4-14.6,9.6-19.8c5.6-5.2,12.4-8.5,19.2-11.9l25.5-12.7c9.3-4.6,19.4-10.2,22.4-20.1c1.2-3.7,1.2-7.6,1.2-11.5
	c0.9-59,15.7-116.9,30.4-174.1c2.3-8.9,4.6-17.8,8-26.3s10-15.3,13.4-23.2C1943.1,821.6,1925.2,838.5,1904.8,836z"/>
<path class="st13" d="M2045.5,1206.4c2.3,13.7,3.6,27.6,4.7,41.5c-17.6,14.6-36.5,27.2-55.7,39c-1.1,0.7-2.2,1.3-3.3,2l-0.1,0.5
	c0-0.1-0.1-0.2-0.2-0.3c-1.5-3.2-4.1-5.8-7.3-7.2c-7.2-15.1-14.4-30.2-21.6-45.4c-3.9-8.2-7.8-16.4-9.8-25.2c0-0.2-0.1-0.4-0.1-0.6
	c-1.5-6.8-1.8-13.9-2.8-20.8c-0.5-4-1.4-7.9-2.7-11.6c-1.2-3.4-2.8-6.6-4.2-9.9c-1.8-4.1-3.2-8.2-3.3-12.5c0-1.4,0.1-2.9-0.6-4.1
	c-0.7-1-1.6-1.9-2.7-2.6c-2.6-2.3-3.9-5.8-3.3-9.3c-5.9,0.3-9.2,6.6-11.5,11.9c-2.1,5.2-4.9,10.1-8.4,14.6c-2.5,3.2-5.6,5.8-9.2,7.7
	c-0.3,0.2-0.6,0.3-1,0.4c-8.1,3.6-17.7,2.3-26.5,0.7c-7.7-1.4-15.7-3.2-21.9-8l-0.7-0.5c-1.8-1.5-3.5-3.3-4.9-5.2
	c-5.2-7.1-7.5-16.5-8.8-25.4c-0.1-0.8-0.2-1.7-0.3-2.5c-0.9-6.3-1.1-12.7-0.7-19c0.1-1.6,0.3-3.1,0.5-4.7c0.1-1,0.3-2,0.4-3v-0.1
	c0.3-1.6,0.5-3.2,0.8-4.9c1-5.5,2-11.2,4.9-16c1.9-3,4.4-5.6,7.2-7.7c1.1-0.8,2.1-1.6,3.2-2.4c1.8-1.2,3.6-2.4,5.5-3.5
	c4.7-2.8,9.6-5.2,14.6-7.1c1.2-0.5,2.4-0.9,3.7-1.3c4.8-1.7,9.9-2.1,14.9-1.2c4.4,0.6,8.9,0.9,13.3,0.8c11.4-0.2,22.9-2.4,34.4-3.8
	c15.9-2,32.9-2.2,46.7,5.9c0.7,0.4,1.3,0.8,2,1.2c6.8,4.5,12.3,10.7,16.8,17.7c1,1.5,1.8,3,2.7,4.5c1.9,3.5,3.7,7.1,5.2,10.8
	c0.9,1.8,1.4,3.8,1.5,5.9c0,0.4-0.1,0.8-0.2,1.2c-0.3,1.4-0.8,2.7-1,4.1c-0.6,5.3,3.9,9.8,5.6,14.8c1.1,3.3,1,6.8,1.6,10.3
	c0.9,4.9,3.3,9.3,5.4,13.7c3.4,7.1,6.3,14.4,8.7,21.8c1.7,5.2,3.2,10.5,4.4,15.8c0.4,1.7,0.8,3.4,1.2,5.1
	C2043.8,1197.1,2044.7,1201.7,2045.5,1206.4z"/>
<polygon class="st1" points="2149.5,1061.9 2149.5,1068.7 2148.2,1068.7 2146.8,1068.7 2131.2,1068.5 2092.5,1068 2081.6,1067.8 
	2078.8,1067.8 2062.6,1067.6 2039.6,1067.3 1990.9,1066.6 1906.4,1065.6 1875.9,1065.2 1863.7,1065 1852.5,1064.9 1845.4,1064.8 
	1838.8,1064.7 1789.5,1064 1775.9,1063.9 1772.9,1063.8 1771,1058.8 1756.9,1022.6 1754.4,1016 1756.3,1008.2 1765.1,1014.1 
	1770.5,1014.7 1859.5,1025.8 1876.2,1027.9 1911.6,1032.3 1946.3,1036.6 1959.9,1038.3 2040.4,1048.3 2062.9,1051.1 2081.5,1053.4 
	2147.7,1061.7 "/>
<polygon class="st4" points="1756.3,1008.2 1773.9,1054.1 2149.5,1061.9 2149.5,1012.1 "/>
<polygon class="st1" points="1775.8,1058.9 1778.7,1339 1792.4,1337 1789.5,1058.9 "/>
<path class="st1" d="M2148.2,1068.7h-1.4c-2.3,17.5-6,34.7-11.2,51.5l-4.4-51.7l-0.2-2.2l16.4-1.9l0.5-0.1L2148.2,1068.7z"/>
<polygon class="st9" points="2094.9,1035.5 1951.9,1038.5 1907.5,1023.8 2026.6,1017 "/>
<path class="st11" d="M1915.6,978.6c-1.5,0.6-2.9,1.5-3.9,2.8c-0.8,1.3-1.3,2.9-1.5,4.4l-2.4,14.3c-0.4,1.3-0.3,2.7,0.2,4
	c0.6,1.2,2.4,1.8,3.3,0.8c-0.1,2.8,0.1,5.8,1.8,8.1c1.6,2.3,5,3.5,7.3,1.9c1.4,2.2,4.3,2.9,6.5,1.6c0.2-0.1,0.4-0.3,0.6-0.5
	c-1.4,0.5-1.5,2.6-0.5,3.7c1.1,1,2.5,1.5,4,1.6c17.1,2.4,34.6,0.2,50.6-6.4c1.5-0.6-2.5-19.3-2.9-21.2c-1-4.5-1.5-10-5.3-13
	c-9.1-7.2-25.2-8.7-36.2-7.8C1929.8,973.5,1922.4,975.4,1915.6,978.6z"/>
<path class="st6" d="M2061,980.8c-35.3,0.7-71.3,1.2-105-9.3c3.2,12.5,3,25.6-0.6,37.9l165,13.7c7,0.6,36,3.9,42.8,2.2
	c6.8-1.6-57.2-22.7-54.6-29.3c7.1-18,30.9-28.5,13.8-29.2C2100.7,965.9,2082.8,980.4,2061,980.8z"/>
<path class="st7" d="M2062,982.7c-35.3,0.7-71.3,1.2-105-9.3c3.2,12.5,3,25.6-0.6,37.9l165,13.7c7,0.6,36,3.9,42.8,2.2
	s5.2-10.1,7.8-16.6c7.1-18-31.5-41.2-48.7-41.9C2101.6,967.9,2083.8,982.3,2062,982.7z"/>
<path class="st11" d="M2005.9,985.5c1.5,0.6,2.9,1.5,3.9,2.8c0.8,1.3,1.3,2.9,1.5,4.4l2.4,14.3c0.4,1.3,0.3,2.7-0.2,4
	c-0.6,1.2-2.4,1.8-3.3,0.8c0.1,2.8-0.1,5.8-1.8,8.1c-1.6,2.3-5,3.5-7.4,1.9c-1.4,2.2-4.3,2.9-6.5,1.6c-0.2-0.1-0.4-0.3-0.6-0.5
	c1.4,0.5,1.5,2.6,0.5,3.7c-1.1,1-2.5,1.5-4,1.6c-17.1,2.4-34.6,0.2-50.6-6.4c-1.5-0.6,2.5-19.3,2.9-21.2c1-4.5,1.5-10,5.3-13
	c9.1-7.2,25.2-8.7,36.2-7.8C1991.6,980.3,1999,982.2,2005.9,985.5z"/>
<path class="st7" d="M1772.7,954.4c-3.2,4.2-6.5,8.4-8.6,13.3c-4,9.3-3.4,19.8-2.7,29.9c0.2,2.9,0.4,5.9,2,8.3
	c1.3,1.8,3.1,3.3,5.1,4.3c8.4,4.8,18.3,6.2,28,7.3c14.8,1.6,29.6,2.6,44.5,3c36.9,0.9,74.4-2.1,110.3,6.2c-4.4-6.8-4.4-15.7-2-23.4
	c2.4-7.7,7.3-14.4,12-21c-16.5-5.2-34.1,2.9-51.3,2.1c-17.7-0.8-34.1-11.1-51.8-11c-3.8,0-7.7,0.5-11.4-0.4
	c-3.7-0.9-7.3-3.7-7.6-7.5c4.7,1.1,9.2-3,11.2-7.4c2-4.4,2.3-9.4,4.2-13.9c4.7-11.1,17.4-16.2,25.4-25.4c1.2-1.4,2.4-3.2,2.4-5.1
	c-0.2-1.6-0.9-3.1-2-4.4c-6.6-8.8-16.5-13.7-24.8-20.5c-2.9-2.4-8.7-11.4-11.9-12.2c-6-1.5-11,7.1-14.9,11.3
	C1809.2,909.3,1790.5,931.5,1772.7,954.4z"/>
<path class="st14" d="M1968.9,951.9c2.5,1.8,4.7,4,6.5,6.5c1.9,2.5,2.6,5.7,2,8.7c-0.6-5.8,2.7-11.3,8.1-13.5L1968.9,951.9z"/>
<g class="st10">
	<path d="M2023,696c-1.1-3-2.5-6-4-8.9c-1,0.2-1.9,0.4-2.8,0.7c1.7,2.8,3.2,5.7,4.5,8.6C2021.4,696.3,2022.2,696.1,2023,696z"/>
	<path d="M2079.6,734.5c0.3,0.2,0.5,0.5,0.8,0.7c0-0.1,0-0.1-0.1-0.2C2080.1,734.9,2079.8,734.7,2079.6,734.5z"/>
	<path d="M1988.9,738.8c0.5-0.4,1-0.8,1.5-1.2l-0.2-4.6l-10.4-0.1c-1.7,1.6-3.5,3.8-2.5,5.9H1988.9z"/>
	<path d="M2102.8,816.8c-1.9,3.5-4.5,6.7-8.2,8.1c-2.8,1.1-5.9,1-8.9,0.8c-10.3-0.4-20.7-0.9-30.5-4.3c-4.5-1.6-8.9-3.8-13.7-4.8
		c-5.6-1.2-11.3-0.5-17,0.2l-24.9,2.9c-7.3,0.9-15.5,1.5-21.4-3c-3.4-2.6-5.5-6.6-9.2-8.7c-1.6-0.9-3.4-1.4-4.4-2.9
		c-0.6-1.1-1-2.3-1-3.6c-0.1-1-0.1-2-0.2-3.1c-0.1,3-0.1,6,0.2,8.9c0,1.3,0.3,2.5,1,3.6c1,1.5,2.8,2,4.4,2.9
		c3.7,2.1,5.9,6.1,9.2,8.7c5.9,4.5,14,3.9,21.4,3l24.9-2.9c5.6-0.7,11.4-1.3,17-0.2c4.7,1,9.1,3.2,13.7,4.8
		c9.8,3.4,20.2,3.9,30.5,4.3c3,0.1,6.1,0.2,8.9-0.8c3.7-1.4,6.3-4.6,8.2-8.1c3.6-6.7,4.6-14.3,4.2-21.9
		C2106.8,806.4,2105.4,811.8,2102.8,816.8z"/>
</g>
<path class="st6" d="M2022.7,702.3l13.7,12.7C2036.4,715,2024.6,710.1,2022.7,702.3z"/>
<text transform="matrix(1 0 0 1 1258.7612 143.51)" style="font-family:'MyriadPro-Regular'; font-size:61.0621px;">#32C742</text>
<path class="st15" d="M944.9,465.7c0,0.6,0,1.2,0,1.8c-0.1,10.3-0.7,20.5-1.8,30.7c0,0.1,0,0.1,0,0.2c-0.1,0.8-0.2,1.7-0.3,2.5
	c-0.2,1.4-0.3,2.9-0.5,4.3c-2.3,17.5-6,34.7-11.2,51.5l0,0c-7,22.7-16.9,44.5-29.4,64.7c-3.9,6.2-8,12.2-12.3,17.9l0,0
	c-2.3,3.1-4.7,6.1-7.1,9c-1.7,2.1-3.5,4.1-5.2,6.1l-1.1,1.2c-9.4,10.3-19.5,19.9-30.2,28.7c-17.6,14.6-36.5,27.2-55.7,39
	c-1.1,0.7-2.2,1.3-3.3,2c-0.1,0.1-0.2,0.1-0.2,0.1c-26.1,15.8-53.2,30-81.1,41.4c-30.5,12.5-62.1,21.6-94.4,25.6
	c-45.1,5.5-90.7,1-135.6-6.7c-37.3-6.4-74.1-15.2-110.3-26.3l-6-1.9c-3.1-1-6.2-2-9.2-3c-18.6-6.1-37-13-55.1-20.5
	c-45.6-18.8-89.2-42.2-130.1-69.8c-5.2-3.5-10.3-7.1-15.4-10.7c-7.1-5.1-14-10.3-20.9-15.7l-4.3-3.3c-18-14.1-34.9-29.7-50.6-46.4
	c-21-22.9-38.9-48.6-50.7-78.1c-1.9-4.6-3.6-9.3-5.1-14.1l-0.1-0.5c-0.8-2.4-1.5-4.9-2.2-7.4c-1-3.6-1.8-7.3-2.6-11
	c-0.2-0.7-0.3-1.4-0.4-2.1c-2.3-12.5-3.4-25.3-3.1-38c0.2-11.2,1.6-22.3,3.9-33.2l0,0c2.4-11.3,6.1-22.3,11.1-32.8l0,0
	c4.5-9.4,10.1-18.2,16.9-26.1l0,0c4.8-5.5,10.1-10.5,15.9-14.9c10.6-7.9,22.3-13.4,34.5-17.7l0,0c5.7-2,11.5-3.8,17.3-5.5
	c4.1-1.2,8.3-2.3,12.4-3.4l12.2-3.3c7.8-2.1,15.6-4.3,23.3-6.7c21-6.4,41.5-14.1,60.5-25.7c3-1.8,6.1-3.8,9.1-6
	c3.9-2.7,7.7-5.7,11.6-8.8l0,0c3.8-3.2,7.6-6.7,11.2-10.3c0.6-0.6,1.1-1.1,1.6-1.7c2.9-3.1,5.8-6.3,8.4-9.7c1.3-1.6,2.5-3.3,3.7-5
	c1.6-2.4,3.2-4.7,4.7-7.2l0,0c7.2-12.3,11.7-25.9,11.2-40.1c-0.1-2.4-0.3-4.7-0.6-7c-1.3-8.6-2.5-17-3.4-25.3
	c-3.8-34-2.2-64.9,23.4-93.9c31.7-36,81.6-43.4,126.9-40.5c131.1,8.3,250.5,83.2,355.4,172.3c9.1,7.7,18,15.5,26.9,23.4
	c2.2,2,4.5,4,6.7,6c16.6,14.9,32.9,30.4,48.1,47c1.2,1.3,2.5,2.7,3.7,4c0.7,0.8,1.5,1.7,2.2,2.5c4.7,5.4,9.3,10.9,13.8,16.5
	c12,14.9,22.5,30.9,31.5,47.8c13.8,26.5,23.2,55,27.7,84.6l0,0c1.7,10.7,2.8,21.5,3.3,32.4c0.2,3.2,0.3,6.4,0.3,9.6c0,1,0,2,0,3.1
	C944.9,462.8,944.9,464.2,944.9,465.7z"/>
<polygon class="st1" points="393.6,449.4 378,727.2 393.6,727.4 406.3,445.5 "/>
<rect x="142.8" y="590.1" class="st16" width="193.2" height="42"/>
<path class="st1" d="M348.7,627.2v26.3H149.2c-7.1-5.1-14-10.3-20.9-15.7v-10.6H348.7z"/>
<path class="st3" d="M388.6,567.2c-0.5,2.5-1.3,5-2,7.5c-2.2,7.2-4.9,14.3-5.4,21.8c-0.7,9.9,2,21.4-4.9,28.5
	c-1.8,1.9-4,3.2-5.6,5.2c-0.2,0.3-0.5,0.6-0.7,1c-1.4,2.3-1.6,5.2-1.6,7.8c0,5.7,0.4,11.3,1.1,16.9c2.3,19.3,6.9,38.7,0.9,56.9
	c-1.1,3.2-2.4,6.3-3.8,9.3c-2.9,6.4-6.1,12.8-7.1,19.8c-0.7,5.2-0.5,10.5-0.5,15.8c-3.1-1-6.2-2-9.2-3c-18.6-6.1-37-13-55.1-20.5
	c0-0.3,0.1-0.5,0.1-0.8c1.4-8.7-0.5-17.6-2.8-26c-4.9-17.9-11.8-35.7-15.9-53.8c-1.6-7.1-2.7-14.2-3.2-21.5
	c-0.1-1.6-0.2-3.2-0.2-4.9c0-2.1,0-4.3,0.1-6.4c0.2-4.3,0.4-9.4-3-12c-1.9-1.4-4.4-1.7-6.6-2.5c-4.2-1.6-7.1-5.5-10.5-8.5
	c-3.3-3.2-7.8-4.5-12.3-3.6c-21.9,5-38.1,23.6-58.5,33c-0.8,0.4-1.6,0.7-2.4,1.1c-2.6,1-5.2,2.3-7.5,3.8c-1.6,1.1-2.8,2.8-3.4,4.7
	c-0.5,2.1-0.1,4.2,0.2,6.4c0.4,3.5,0.3,7-0.4,10.4c-0.3,1.3-0.6,2.6-1,3.9c-0.8,2.3-1.8,4.6-2.8,6.8c-5.2-3.5-10.3-7.1-15.4-10.7
	c-7.1-5.1-14-10.3-20.9-15.7l-4.2-3.4c-18-14.1-34.9-29.7-50.6-46.4c2.1-5.9,5.1-11.3,6.5-17.3c0.8-3.4,1.1-7,2.3-10.4
	c1.3-3.5,3.1-6.7,5.4-9.7c8.3-11.6,18.4-21.7,30-30c12.1-8.7,26.1-15.6,36.9-25.4c4.4-3.9,8.2-8.4,11.3-13.4c0.2-0.3,0.4-0.6,0.5-1
	c0.8-1.8,1.4-3.6,1.7-5.6c0.8-4.4,0.7-9.2,1.1-13.4c13.3,2.3,26.8,2.7,40.1,1.2c15.6-1.7,30.8-6.1,46.3-7.7c1.2-0.1,2.4-0.2,3.5-0.3
	c5-0.4,10-0.5,15-0.4c4.2,0,8.4,0.2,12.6,0.3l46.1,1.6c5.1,0.2,10.3,0.4,15.1,2.2c5.6,2.2,10.2,6.6,13.8,11.5
	c0.5,0.6,0.9,1.2,1.3,1.9c3,4.3,5.4,9.1,7.1,14c0.2,0.5,0.4,1,0.5,1.5c0.4,1.4,0.8,2.7,1.2,4.1c0.3,1.1,0.5,2.2,0.7,3.3
	c1.1,5.4,1.7,10.9,3.4,16.1c0.1,0.4,0.2,0.8,0.4,1.1c2,5.7,5.4,10.8,8,16.3c1.8,4,3.2,8.1,4.2,12.4
	C390.4,549.7,390.4,558.6,388.6,567.2z"/>
<path class="st16" d="M248.5,218.1c-4.1-3.3-10.1-0.9-14.9,1.2c-4,1.8-8.2,3.3-12.4,4.5c-0.9,0.3-1.8,0.4-2.7,0.3
	c-2-0.5-2.8-2.8-4.2-4.2c-2.5-2.4-6.7-1.9-9.9-0.5c-3.3,1.3-6.5,3.2-10,2.9c-3.7-0.3-7-3-10.7-3.1c-6.6-0.2-12.2,8-18.5,5.9
	c-3.8-1.3-6.8-6.3-10.6-4.9c-2.9,1.1-3.2,5.2-5,7.8c-2.1,3.1-6.1,4-9.6,5.3c-10.9,4.3-18.1,16.5-16.7,28.1c0.8,6.4,3.9,12.3,6,18.5
	c6.1,17.8,4,38,11.7,55.2c1-0.9,1.5-1.3,2.5-2.2c-2.4,5-2.9,10.8-1.3,16.2c0.8,2.7,2.1,5.2,3.1,7.9c1,3,1.9,6,2.5,9.1l8.5,37.4
	c3.3,14.6,6.6,29.3,7.2,44.3c0.4,9.7-0.4,19.5-2.2,29.1c15.4-2.5,29.4-9.4,45-9.3c5.7,0,11.4,1,17.1,1.8c16.5,2.3,33.2,3.4,49.9,3.4
	c2.6,0.1,5.2-0.2,7.6-1.1c2.1-0.9,3.9-2.5,5.9-3.7c4-2.3,8.8-2.9,13.4-2.9c20.9-0.4,41,7.3,61.7,10c8.2-17.2,8.7-37.8,2.4-55.7
	c-1.9-5.3-4.4-10.5-5.1-16.1c-0.3-3.4-0.4-6.9-0.2-10.4c0-8.9-1.6-17.6-4.7-25.9c-1.2-3.2-2.7-6.6-2.5-10c0.1-3.5,1.8-6.7,3.5-9.8
	c3.4-6.2,6.8-12.5,11.6-17.8c4.9-5.4,11.1-9.6,17.2-13.7l15.1-10.1c-2.1-13-4.7-26.7-10.2-38.7c-5.5-12-13.8-23-24.9-30
	c-3.8-2.3-7.7-4.2-11.8-5.9c-5.7-2.4-11.6-4.5-17.8-4.9c-7-0.4-13.9,1.5-20.9,2.7C291.5,232.3,265.8,231.9,248.5,218.1z"/>
<path class="st1" d="M413.1,443.8l-7.2,9l-13.5,17l-15.6,19.7l-4.4,5.5H364l-209.5,0.2l-131.2,0.1h-5.9c-0.8-2.4-1.5-4.9-2.2-7.4
	c-1-3.6-1.8-7.3-2.6-11c-0.2-0.7-0.3-1.4-0.4-2.1l47.6-31.1l17.9-0.1l0,0l54.7-0.3l0,0l30.6-0.2h5.6h3.5l0,0l20.4-0.1l0,0l155.3-0.9
	l0,0l7.9,0l0,0h3.4l9.1,0l33.9-0.2l6.5-2.5l0.5,0.5L413.1,443.8z"/>
<path class="st4" d="M410.2,438.9l-0.8,1l-5.3,6.3l-11,12.9l-23,27.1L166.4,481l-153.6-3.9c-0.2-0.7-0.3-1.4-0.4-2.1
	C10,462.4,9,449.7,9.2,437l17-8.7l3.9-2l30.4-15.6L87.2,397l69.5,9l15.4,2l7,0.9l10.2,1.3l0.9,0.1L350,431.1l17.7,2.3l10.4,1.3
	l32,4.2L410.2,438.9z"/>
<path class="st1" d="M377,485.7l-0.2,3.8l-1,21.7l-5.2,119l-1.1,25.7l-2.9,66.2l-1.6,37.4l-6-1.9c-3.1-1-6.2-2-9.2-3L364,495.2
	l0.3-5.4l6.3-2L377,485.7z"/>
<path class="st1" d="M-1056-44.3l-0.4,10.3l-0.7,15c-1.9-4.7-3.7-9.6-5.2-14.5l-0.2-0.5c-0.8-2.5-1.5-5-2.2-7.6L-1056-44.3z"/>
<ellipse class="st5" cx="278.9" cy="277.4" rx="44.9" ry="60.5"/>
<ellipse class="st6" cx="278.9" cy="277.4" rx="44.9" ry="60.5"/>
<circle class="st5" cx="285.3" cy="240.8" r="62.4"/>
<path class="st7" d="M286.5,144.6c-3.8,0.3-7.6,0.9-11.3,1.7c-9.9,2.4-18.4,7.7-26.7,13c-3.7,2.4-7.6,4.8-9.9,8.3
	c-4.2,6.2-2.5,14.1-4.9,21c-1.2,3.5-3.4,6.7-5.3,10c-5.2,9-7.9,18.9-10.6,28.7c-0.5,2-0.7,4.8,1.5,5.6c1.3,0.3,2.6,0.1,3.8-0.4
	c7-2.3,15.9-3,21.1,1.7c5.2,4.7,4.8,13,10.9,16.6c7.1,4.1,18.1-0.9,24.5,4c2.8,2.1,3.7,5.4,6,8c5.2,5.9,15.3,5.6,23.7,4.4
	c4.8-0.7,10.7-1.1,13.7,2.2c1.4,1.6,1.8,3.8,3.4,5.2c2.9,2.6,8.3,1.3,11.1-1.4c2.9-2.7,4.2-6.3,6.6-9.3c4.6-5.9,12.8-9,17.6-14.8
	c4-4.9,5.2-11,6.3-16.9l4.1-21.8c1.6-8.9,3.2-18.5-1.8-26.3c-1.8-2.8-4.3-5.2-5.9-8.1c-1-2-1.6-4-2.8-5.9c-1.4-1.9-3.1-3.6-5-5.1
	l-9.6-8c-3.3-2.9-6.8-5.5-10.5-7.8C322.8,141,302.2,143.1,286.5,144.6z"/>
<path class="st5" d="M80.9,305.5c-2.3,2.5-4.4,5.1-6.9,7.4c-2.2,1.9-4.5,3.8-6.8,5.5c-3.8,2.9-7.6,5.8-11.2,8.9
	c-3.8,3-7.3,6.5-10.3,10.3c-5.2,7-7.7,15.7-12.6,22.9c-4.3,6.4-10.4,11.5-14.8,17.8c-1.9,2.7-3.3,5.7-4.2,8.8
	c-0.6,3.1-0.9,6.2-0.9,9.4c-0.1,5.2-0.2,10.4,0.9,15.4c1.1,5,3.4,10,7.3,13.3c3.7,3.1,8.4,4.5,13.1,5.7c2.4,0.6,5,1.2,7.3,0.2
	c1.7-0.8,3.1-2.1,4.2-3.6l11.9-13.7c7.9-9.2,16.2-18.5,27.1-23.9c3.4-1.7,7-2.9,10.4-4.5c14.5-7,24.8-21.3,28.8-36.9
	c1-3.8,1.6-7.7,2.2-11.6l1.7-10.7c0.1-0.5,0.1-1.1,0-1.6c-0.3-0.6-0.7-1.1-1.2-1.5c-8.3-6.7-16-14-23.2-21.9c-1.7-1.9-3.3-4.4-5.2-6
	c-2.5-2-2.3-1.8-5.2,0C88.7,298.1,84.5,301.5,80.9,305.5z"/>
<path class="st1" d="M162.1,376.5c-0.4-0.9-1.5-1.4-2.4-0.9c-0.9,0.4-1.4,1.5-0.9,2.4c0,0,0,0.1,0.1,0.1l-1,0.5l29.1,59.6l5.3-2.6
	L163.1,376L162.1,376.5z"/>
<path class="st8" d="M80.9,305.5c-2.3,2.5-4.4,5.1-6.9,7.4c-2.2,1.9-4.5,3.8-6.8,5.5c-3.8,2.9-7.6,5.8-11.2,8.9
	c-3.8,3-7.3,6.5-10.3,10.3c-5.2,7-7.7,15.7-12.6,22.9c-4.3,6.4-10.4,11.5-14.8,17.8c-1.9,2.7-3.3,5.7-4.2,8.8
	c-0.6,3.1-0.9,6.2-0.9,9.4c-0.1,5.2-0.2,10.4,0.9,15.4c1.1,5,3.4,10,7.3,13.3c3.7,3.1,8.4,4.5,13.1,5.7c2.4,0.6,5,1.2,7.3,0.2
	c1.7-0.8,3.1-2.1,4.2-3.6l11.9-13.7c7.9-9.2,16.2-18.5,27.1-23.9c3.4-1.7,7-2.9,10.4-4.5c14.5-7,24.8-21.3,28.8-36.9
	c1-3.8,1.6-7.7,2.2-11.6l1.7-10.7c0.1-0.5,0.1-1.1,0-1.6c-0.3-0.6-0.7-1.1-1.2-1.5c-8.3-6.7-16-14-23.2-21.9c-1.7-1.9-3.3-4.4-5.2-6
	c-2.5-2-2.3-1.8-5.2,0C88.7,298.1,84.5,301.5,80.9,305.5z"/>
<path class="st5" d="M417.2,415.4c-0.1,6.2-0.3,12.6-2.9,18.3c-1.1,2.5-2.8,4.9-5.4,5.7c-1.6,0.4-3.2,0.4-4.8,0.2
	c-19.1-1.7-38.4-0.2-57.1,4.5c5-10,2.1-21.9,3.5-32.9c0.4-3,1.1-6,1.3-9c1-10.7-3.6-21.2-5.7-31.7c-1.8-9.2-1.8-18.6,0-27.8
	c0.4-2.4,1.2-4.6,2.4-6.7c1.4-2,3.3-3.6,5.5-4.8c7.9-4.5,17.2-5,26.1-4.4c6,0.4,18-0.2,23,3.5c5.5,4,7.2,17.6,8.7,23.8
	c2.2,9.6,3.7,19.3,4.5,29.1C417.2,393.9,417.4,404.6,417.2,415.4z"/>
<polygon class="st9" points="67.7,437 102.8,460.4 260.9,454.5 156.5,437 "/>
<path class="st16" d="M114,250.9c-5.8,5.1-10.7,11.1-16.1,16.5c-7.5,7.4-16,13.8-24.5,20.1c6.2,1.7,11,6.6,12.7,12.8
	c0.4,1.4,0.6,2.9,1,4.3c1,3.3,3.1,6.2,5.4,8.8c9.9,11.2,23.7,19.4,29.6,33.2c0.2,0.7,0.6,1.3,1.2,1.7c0.5,0.2,1,0.3,1.5,0.2
	c5.3-0.6,9.3-4.8,12.7-8.9c7-8.8,13.1-18.5,16.6-29.2c3.5-10.7,4-22.6,0.2-33.2c-1.9-5.3-4.8-10.1-7.7-15c-2.5-4.2-5.1-8.4-7.6-12.6
	c-1.3-2.2-3-6.7-5.6-7.8C127.9,239.3,117.6,247.3,114,250.9z"/>
<path class="st16" d="M401.4,314l8.3,19.5c-18.3-6.4-38.6-3.6-54.5,7.6c-4.7,3.4-9.1,7.6-11.2,13c-2.2,0.4-4.3-0.5-5.6-2.2
	c-1.2-1.8-2-3.8-2.1-6c-0.8-7.5,2.1-14.8,4.9-21.8c1.3-3.3,2.7-6.6,5-9.3c2.3-2.7,5.4-4.4,8.5-6.1c9.8-5.4,20.1-10,30.8-13.6
	c4.5-1.5,9.2-1.4,11.7,2.8C400,302.9,399.1,308.6,401.4,314z"/>
<path class="st5" d="M67.9,372.5c2.1,1.7,3.9,3.6,6,5.2c2.3,1.6,4.7,2.9,7.2,4l9.6,4.6c3,1.5,6.1,2.8,9.3,3.8
	c4.1,1.1,8.4,1.2,12.6,2.2c5.2,1.3,10,4,15.1,5.5s11.2,1.8,15.5-1.4c2.7-2,4.7-5.4,8-5.9c2.1-0.3,4.2,0.8,6.1,1.8l25,13.2
	c3.4,1.8,6.9,3.7,8.7,7.1c1.8,3.4,0.6,8.5-3.1,9.4c-1.3,0.1-2.6,0.2-3.9,0.2c-1.3,0.2-2.7,0.9-2.9,2.2c0,0.8,0.2,1.6,0.6,2.3
	c1.1,2.6,1.5,5.7,0.1,8.2c-1.3,2.5-4.5,4-7.1,2.9c0.4,3.8-3.7,6.4-7.3,7.4c-9.2,2.5-19,1-28.5-0.6c-3.7-0.6-7.5-1.3-10.8-2.9
	c-1.6-0.8-3.1-1.8-4.8-2.5c-4.5-2-9.6-1.7-14.5-1.6c-22.7,0.4-45.3-3.8-67.7-8c-4.1-0.8-8.4-1.6-12-3.9c-6.8-4.4-9.4-13.6-8.2-21.7
	s5.2-15.4,9.2-22.5l5.2-9.2c0.7-1.4,1.6-2.7,2.8-3.7C46.1,362.7,61.3,367.2,67.9,372.5z"/>
<path class="st8" d="M67.9,372.5c2.1,1.7,3.9,3.6,6,5.2c2.3,1.6,4.7,2.9,7.2,4l9.6,4.6c3,1.5,6.1,2.8,9.3,3.8
	c4.1,1.1,8.4,1.2,12.6,2.2c5.2,1.3,10,4,15.1,5.5s11.2,1.8,15.5-1.4c2.7-2,4.7-5.4,8-5.9c2.1-0.3,4.2,0.8,6.1,1.8l25,13.2
	c3.4,1.8,6.9,3.7,8.7,7.1c1.8,3.4,0.6,8.5-3.1,9.4c-1.3,0.1-2.6,0.2-3.9,0.2c-1.3,0.2-2.7,0.9-2.9,2.2c0,0.8,0.2,1.6,0.6,2.3
	c1.1,2.6,1.5,5.7,0.1,8.2c-1.3,2.5-4.5,4-7.1,2.9c0.4,3.8-3.7,6.4-7.3,7.4c-9.2,2.5-19,1-28.5-0.6c-3.7-0.6-7.5-1.3-10.8-2.9
	c-1.6-0.8-3.1-1.8-4.8-2.5c-4.5-2-9.6-1.7-14.5-1.6c-22.7,0.4-45.3-3.8-67.7-8c-4.1-0.8-8.4-1.6-12-3.9c-6.8-4.4-9.4-13.6-8.2-21.7
	s5.2-15.4,9.2-22.5l5.2-9.2c0.7-1.4,1.6-2.7,2.8-3.7C46.1,362.7,61.3,367.2,67.9,372.5z"/>
<path class="st5" d="M365.8,389.4c-5.1,2.4-10.9,2.6-16.2,4.5s-9.8,5.2-14.7,7.9c-12.7,7.1-27.3,9.8-41.7,12.3
	c-8.7,1.6-17.6,3.1-26.3,2.8c-11.9-0.5-23.3-4.5-34.8-7.5c-11.5-3-23.8-5-35.2-1.6c-12.1,3.7-21.7,12.9-25.9,24.8
	c-2.4,7-2.7,14.6-2.3,22c2.4,1.8,5.8-0.7,7.1-3.4c1.3-2.7,2-6,4.6-7.5c4.4,1.5,5.5,7.4,9.1,10.3c2.3,1.8,5.3,2.3,8.2,2.7l14.8,2.1
	c3.6,0.5,7.7,0.8,10.3-1.7c1.3-1.2,2-2.9,3.1-4.2c2.4-2.6,6.3-3.1,9.8-2.7c11,1.1,21.3,8.2,32.1,6.5c3.7-0.6,7.2-2.2,10.8-3.4
	c21.2-7.5,44.7-2.9,66.7-7.2c8.4-1.6,16.5-4.5,24.5-7.6c4.3-1.6,8.7-3.4,12.4-6.2c7.1-5.5,11-14.3,10.1-23.2
	c-0.8-6.7-4.2-12.9-9.4-17.2c-1.7-1.5-4-4.3-6-5.2C372.9,384.8,369.1,387.8,365.8,389.4z"/>
<g class="st10">
	<path d="M337.2,264.7c-1.6-1.4-2-3.6-3.4-5.2c-2.9-3.4-8.8-2.9-13.7-2.2c-8.4,1.2-18.5,1.5-23.7-4.4c-2.3-2.5-3.2-5.9-6-8
		c-6.4-4.9-17.5,0.1-24.5-4c-6.2-3.6-5.8-12-10.9-16.6s-14.1-4-21.1-1.7c-1.2,0.5-2.5,0.7-3.8,0.4c-2.2-0.8-2.1-3.5-1.5-5.6
		c2.7-9.8,5.4-19.7,10.6-28.7c1.9-3.3,4.1-6.5,5.3-10c2.1-6.2,1-13.2,3.8-19c-3,2-5.9,4.1-7.7,6.8c-4.2,6.2-2.5,14.1-4.9,21
		c-1.2,3.5-3.4,6.7-5.3,10c-5.2,9-7.9,18.9-10.6,28.7c-0.5,2-0.7,4.8,1.5,5.6c1.3,0.3,2.6,0.1,3.8-0.4c7-2.3,15.9-3,21.1,1.7
		c5.2,4.7,4.8,13,10.9,16.6c7.1,4.1,18.1-0.9,24.5,4c2.8,2.1,3.7,5.4,6,8c5.2,5.9,15.3,5.6,23.7,4.4c4.8-0.7,10.7-1.1,13.7,2.2
		c1.4,1.6,1.8,3.8,3.4,5.2c2.9,2.6,8.3,1.3,11.1-1.4c1.8-1.9,3.4-4.1,4.7-6.4C341.8,266.5,339.1,266.4,337.2,264.7z"/>
	<path d="M355,254c-0.6,0.8-1.2,1.7-1.7,2.5c3.7-2.7,7.7-5.2,10.5-8.6c0.7-0.9,1.4-1.8,2-2.8C361.9,247.9,357.8,250.5,355,254z"/>
</g>
<polygon class="st1" points="552.1,447.2 555.1,727.2 568.7,725.3 565.8,447.2 "/>
<polygon class="st1" points="634.1,497.9 637,778 650.7,776 647.8,497.9 "/>
<path class="st1" d="M889.3,639.4L889.3,639.4l-0.1-5.4v-3.2l-0.5-49.3l-0.8-77l-0.1-6.6h-13.7l0.1,6.4l0.4,41.2l0.2,17.9l0,0
	l0.2,14.5l0.3,25l0.2,14.7l0,0v1.6l0.2,19.4l0.2,17.1l1.1-1.2c1.8-2,3.5-4,5.2-6.1L889.3,639.4z"/>
<polygon class="st16" points="619,543.3 611.2,555 619,608.1 685.3,626.3 792.6,626.3 857,630.2 887.7,609.2 882.4,573.1 859,543.3 
	"/>
<path class="st1" d="M611.2,555l-3.9,32.4c0,0-20.5,63.5,144.4,59.7s136.6-16.9,136.6-16.9l-1-37.6c0,0,5.7,17.8-78.1,15.4
	c-83.8-2.4-162-10.2-162-10.2S618,602.9,611.2,555z"/>
<path class="st11" d="M748.5,264.5c-9.4,4.3-16.5,12.6-21.3,21.8c-4.8,9.2-7.5,19.3-10.1,29.3c-2.8,10.6-5.6,21.1-7,32
	c-2.6,19.2-0.6,39.5,8.2,56.7c8.8,17.3,25.2,31.2,44.3,34.5c7.4,1.3,15,1,22.4,0.3c13.5-1.4,26.8-4.4,39.6-8.7
	c13.4-4.5,27.4-11.5,33.3-24.4c3.5-7.5,3.8-16,3.6-24.2c-0.5-22.4-3.8-44.6-10.1-66.1c-1.8-6.2-3.9-12.5-7.7-17.8
	s-9.1-9.1-14.4-12.7C806.6,269.7,776.6,251.7,748.5,264.5z"/>
<path class="st12" d="M748.5,264.5c-9.4,4.3-16.5,12.6-21.3,21.8c-4.8,9.2-7.5,19.3-10.1,29.3c-2.8,10.6-5.6,21.1-7,32
	c-2.6,19.2-0.6,39.5,8.2,56.7c8.8,17.3,25.2,31.2,44.3,34.5c7.4,1.3,15,1,22.4,0.3c13.5-1.4,26.8-4.4,39.6-8.7
	c13.4-4.5,27.4-11.5,33.3-24.4c3.5-7.5,3.8-16,3.6-24.2c-0.5-22.4-3.8-44.6-10.1-66.1c-1.8-6.2-3.9-12.5-7.7-17.8
	s-9.1-9.1-14.4-12.7C806.6,269.7,776.6,251.7,748.5,264.5z"/>
<path class="st16" d="M738,387.3c2.7,3.7,6,7,9.8,9.8c9.3,6.4,21.2,7.3,32.5,7.6c9.1,0.3,19.4-0.2,25.1-7.3
	c2.6-3.2,3.7-7.2,4.7-11.2c6.4-24.3,10.9-49,13.6-73.9l25.8,0.1c11.2,47.9,10.3,97.6,9.3,146.8l-1.4,71.7l-16.6-1.8
	c-39.5-4.2-79.1-8.4-118.8-9.1c-23.3-0.4-46.6,0.3-69.8,2.3l36.2-107.8c4.7-14,9.5-28.2,10.6-42.9c1.6-21.4-4.4-43.9,3.9-63.7
	c0.7-1.6,1.5-3.2,3-4.1c1.5-0.8,3.4-0.6,5.2-0.4c3.3,0.4,13.3,0,15.7,2.1c3.5,3,1.2,3.5,0,8.4c-2.2,8.8-4.3,16.9-4.3,26.1
	C722.3,356.6,727.5,374.2,738,387.3z"/>
<path class="st7" d="M889.3,639.4L889.3,639.4c4.4-5.8,8.5-11.8,12.3-17.9c-2-4.2-4.1-8.3-5.8-12.5c-2.6-6.5-4.1-13.5-5.6-20.3
	c-0.5-2.3-1-4.7-1.5-7c-5.5-25.5-10.6-51.3-11.7-77.1c-0.1-2.1-0.2-4.3-0.2-6.4c0-0.3,0-0.6,0-1c0-2.4,0-4.7,0-7
	c0.1-5.9,0.5-11.8,1.2-17.6c0.1-1.2,0.3-2.3,0.4-3.5c0-0.3,0.1-0.5,0.1-0.8l66.3-2.4l0,0l5.6-0.2c3.8-0.1,7.9-0.4,11.1-2.5
	c5.3-3.6,5.9-11.1,5.9-17.6c-0.3-16.3-2.2-32.4-5.5-48.3c-2.5-12-6.1-24.2-14.2-33.4c-6.6-7.6-16.2-13-19.6-22.4
	c-1.3-3.5-1.6-7.3-3.3-10.7s-4.4-5.8-7-8.4c-9.1-9-16.6-19.5-22.3-30.9c-4-8-8.2-16.7-13.4-22.2c-0.3-0.3-0.5-0.5-0.8-0.8
	c-4.4-4.3-9.4-6.2-15.4-3.3c-1.1,0.5-2.1,1.2-3,1.9l0,0c-2.1,1.6-4.1,3.5-5.8,5.5c-6,6.9-11.3,14.4-15.7,22.4
	c-3.1,5.6-5.8,11.5-8,17.6c-1.8,4.8-3.2,9.7-4.3,14.6c-0.8,3.7-1.5,7.4-2,11.1c-2,14-2,28.3-1.7,42.5c0.3,13,0.9,26.1,2,39.1
	c0.3,3.1,0.6,6.3,1,9.4c0.7,6.2,1.6,12.4,2.7,18.5c0.4,2.4,0.8,4.7,1.3,7c0.1,0.6,0.2,1.2,0.4,1.9l0.1,0.3c1.3,5.4,2.3,11,3,16.5
	c0.1,0.7,0.1,1.4,0.2,2.1c0.2,3.2,0.1,6.4-0.1,9.6c-0.2,3.8-0.6,7.5-0.8,11.3c0,0.7,0,1.3-0.1,2c0,1.9,0,3.8,0,5.7
	c0.2,4.6,0.7,9.1,1.6,13.6c1.6,8.3,4.5,16.3,8.4,23.8c0.4,0.7,0.8,1.4,1.1,2.1c4.9,8.8,11.2,16.9,15.8,26c3.9,8.1,6.9,16.7,8.8,25.6
	c0.7,2.9,1.3,5.8,1.9,8.8c0.9,4.7,1.7,9.4,2.5,14.1c0.1,0.5,0.2,1,0.3,1.4c1.1,6.3,2.3,12.5,3.8,18.6c0.9,3.6,1.8,7.1,3,10.5
	L889.3,639.4z"/>
<path class="st13" d="M876.2,562.5c0,0.9-0.1,1.8-0.1,2.6c-0.2,4.3-0.6,8.6-1.2,12.8c-0.8,5.8-2.2,11.5-4.2,17
	c-1.3,3.6-3,7.1-5,10.4c-1.8,2.9-3.9,5.6-6.3,8.1c-5.9,6.1-14.3,8-22.4,10.6c-3.8,1.1-7.4,2.6-10.8,4.4c-0.6,0.3-1.2,0.7-1.8,1.1
	l-10.2,6.8c-3.2,2.1-6.4,4.3-8.6,7.4c-0.4,0.5-0.7,1.1-1,1.6c-1.4,2.9-2.4,5.9-3,9c-5.3,22.1-10.6,44.2-14.3,66.7
	c-0.2,1.5-0.5,3-0.7,4.5l-0.1,0.5c0-0.1-0.1-0.2-0.2-0.3c-26.1,15.8-53.2,30-81.1,41.4l-6.1-50.7c-0.6-4.1-0.8-8.3-0.6-12.5
	c0.6-6.6,3.2-12.8,4-19.3c0.7-6.4-0.5-12.9-3.5-18.6c-1.2-2.2-2.6-4.4-2.9-6.9s1.2-4.8,3.7-5c2-2.2,2.1-5.1,1.5-8
	c-0.3-1.5-0.8-3-1.4-4.5c-1.7-4.1-3.8-8.5-2.3-12.7c0.4-0.8,0.5-1.6,0.5-2.4c0-0.1,0-0.1,0-0.2c-0.3-1.1-1.6-1.6-2.3-2.5
	c-1.3-1.7,0-4.1,0.8-6.1c0.8-2.1,1.2-4.4,1.3-6.6c0.1-1.3,0.2-2.5,0.3-3.8c0.2-1.7,0.5-3.4,0.9-5c2.4-9.3,8.1-17.5,16-22.9
	c3.8-2.6,8-4.4,11.9-6.8c4-2.7,7.8-5.6,11.3-8.8c8.6-7.2,17.5-13.9,26.8-20.2c10-6.8,20.3-13.1,30.9-18.8c2.3-1.2,4.6-2.4,6.8-3.6
	c2.5-1.3,5-2.5,7.5-3.7c8-3.8,17.2-2.4,26.1,0.2c3.7,1.1,7.4,2.3,11,3.5c3.5,1.1,6.8,2.6,10,4.5c7.9,4.6,14.4,11.5,17.1,20.1
	c0,0.1,0,0.1,0,0.2C876.3,551,876.4,556.8,876.2,562.5z"/>
<path class="st6" d="M876.2,562.5c0,0.9-0.1,1.8-0.1,2.6c-0.2,4.3-0.6,8.6-1.2,12.8c-0.8,5.8-2.2,11.5-4.2,17c-1.3,3.6-3,7.1-5,10.4
	c-1.8,2.9-3.9,5.6-6.3,8.1c-5.9,6.1-14.3,8-22.4,10.6c-3.8,1.1-7.4,2.6-10.8,4.4c-0.6,0.3-1.2,0.7-1.8,1.1l-10.2,6.8
	c-3.2,2.1-6.4,4.3-8.6,7.4c-0.4,0.5-0.7,1.1-1,1.6c-1.4,2.9-2.4,5.9-3,9c-5.3,22.1-10.6,44.2-14.3,66.7c-0.2,1.5-0.5,3-0.7,4.5
	l-0.1,0.5c0-0.1-0.1-0.2-0.2-0.3c-26.1,15.8-53.2,30-81.1,41.4l-6.1-50.7c-0.6-4.1-0.8-8.3-0.6-12.5c0.6-6.6,3.2-12.8,4-19.3
	c0.7-6.4-0.5-12.9-3.5-18.6c-1.2-2.2-2.6-4.4-2.9-6.9s1.2-4.8,3.7-5c2-2.2,2.1-5.1,1.5-8c-0.3-1.5-0.8-3-1.4-4.5
	c-1.7-4.1-3.8-8.5-2.3-12.7c0.4-0.8,0.5-1.6,0.5-2.4c0-0.1,0-0.1,0-0.2c-0.3-1.1-1.6-1.6-2.3-2.5c-1.3-1.7,0-4.1,0.8-6.1
	c0.8-2.1,1.2-4.4,1.3-6.6c0.1-1.3,0.2-2.5,0.3-3.8c0.2-1.7,0.5-3.4,0.9-5c2.4-9.3,8.1-17.5,16-22.9c3.8-2.6,8-4.4,11.9-6.8
	c4-2.7,7.8-5.6,11.3-8.8c8.6-7.2,17.5-13.9,26.8-20.2c10-6.8,20.3-13.1,30.9-18.8c2.3-1.2,4.6-2.4,6.8-3.6c2.5-1.3,5-2.5,7.5-3.7
	c8-3.8,17.2-2.4,26.1,0.2c3.7,1.1,7.4,2.3,11,3.5c3.5,1.1,6.8,2.6,10,4.5c7.9,4.6,14.4,11.5,17.1,20.1c0,0.1,0,0.1,0,0.2
	C876.3,551,876.4,556.8,876.2,562.5z"/>
<path class="st1" d="M783.6,400.9c-0.4-0.9-1.5-1.4-2.4-0.9c-0.9,0.4-1.4,1.5-0.9,2.4c0,0,0,0.1,0.1,0.1l-1,0.5l29.1,59.6l5.3-2.6
	l-29.1-59.7L783.6,400.9z"/>
<circle class="st11" cx="820" cy="276" r="62.4"/>
<path class="st7" d="M902.4,237.3c-0.3-5-1-9.9-2.2-14.7c-3.7-15.8-10.4-31.3-21.9-42.6c-0.7-2.8-1.6-5.5-2.5-8.2
	c0-0.1,0-0.1-0.1-0.2c-3.4-9.5-8.4-18.3-14.7-26.1c-3.7-4.5-8.4-9-14.2-9.2c-1.6-0.1-3.4,0.2-4.9-0.5c-1.1-0.7-2-1.7-2.7-2.8
	c-5.9-7.4-15.4-11-24.7-9.3l-0.6,0.1c-0.3,0.1-0.7,0.1-1,0.2c-0.3,0.1-0.8,0.2-1.2,0.4c0.4,0.7,0.9,1.5,1.3,2.3
	c1.2,2.1,2.2,4.2,3.2,6.3c0.8,1.8,1.6,3.6,2.3,5.5c-10,1.1-18.1,8.2-25.6,15l-17.5,15.9c0,0-0.1,0.1-0.1,0.1l-0.5,0.5
	c-0.1,0.1-0.3,0.3-0.4,0.4c0,0-0.1,0.1-0.1,0.1c-0.1,0.2-0.3,0.3-0.4,0.5c-0.2,0.3-0.5,0.6-0.7,1c-0.1,0.1-0.2,0.3-0.3,0.5
	c0,0,0,0.1-0.1,0.1c-0.1,0.1-0.1,0.3-0.2,0.4c0,0,0,0,0,0.1c0,0.1-0.1,0.2-0.1,0.2c-0.2,0.7-0.1,1.4,0.2,2.1l11.5,0.1h1.4
	c0.1,1.5,0.1,3.1,0.2,4.6c-1.8,1.4-3.6,2.8-5.3,4.4c-1.8,1.7-3.5,3.5-5.1,5.4C765,202.4,759.5,218.7,759,235c0,0.5,0,1,0,1.5
	c0,1.5,0,3,0,4.5c0,1,0.1,2,0.2,2.9c0,1.3,0.3,2.5,1,3.6c0.1,0.1,0.2,0.2,0.3,0.4c0.6,0.6,1.3,1.2,2.1,1.5l0.8,0.4l0,0
	c0.4,0.2,0.8,0.4,1.2,0.6c3.7,2.1,5.9,6.1,9.2,8.7c0.2,0.1,0.4,0.3,0.6,0.4l0.4,0.3l0.3,0.2l0.4,0.2c0.2,0.1,0.5,0.3,0.8,0.4l0,0
	l0,0l0.5,0.2h0.1l0,0c0.4,0.2,0.8,0.3,1.2,0.5l0.6,0.2l0.2,0.1c0.2,0,0.3,0.1,0.5,0.1c0.3,0.1,0.7,0.2,1,0.3l1,0.2
	c0.4,0.1,0.8,0.1,1.2,0.2l0.6,0.1l0.6,0.1c0.9,0.1,1.9,0.1,2.8,0.1l0,0c3,0,5.9-0.2,8.8-0.6l24.9-2.9c5.6-0.7,11.4-1.3,17-0.2
	c4.7,1,9.1,3.2,13.7,4.8c1,0.4,2.1,0.7,3.1,1c0.4,0.1,0.8,0.2,1.2,0.3l0.5,0.1l1.2,0.3c0.4,0.1,0.9,0.2,1.3,0.3
	c0.6,0.1,1.3,0.3,1.9,0.4c0.4,0.1,0.9,0.2,1.3,0.2h0.1l1.2,0.2h0.3l0,0l0.9,0.1c0.4,0.1,0.9,0.1,1.4,0.2c1,0.1,2,0.2,3,0.3
	c1.6,0.2,3.2,0.3,4.9,0.4l1.6,0.1l1.6,0.1l4.9,0.2h0.2h0.7c2,0.1,4.1,0,6.1-0.3c0.4-0.1,0.7-0.1,1-0.2c0.3-0.1,0.6-0.2,1-0.3
	c3.7-1.4,6.3-4.6,8.2-8.1c0.4-0.7,0.8-1.5,1.1-2.2c0.3-0.8,0.6-1.5,0.9-2.3c0.3-1,0.6-1.9,0.9-2.9c0.1-0.3,0.1-0.5,0.2-0.8
	s0.2-0.8,0.3-1.2c0.2-1.1,0.4-2.3,0.6-3.4c0-0.4,0.1-0.7,0.1-1.1c0.1-1,0.2-1.9,0.2-2.8c0-0.7,0-1.5,0-2.2
	C902.4,239.4,902.4,238.3,902.4,237.3z M877.4,179.1c-0.8-0.7-1.6-1.5-2.4-2.1C875.9,177.5,876.7,178.2,877.4,179.1L877.4,179.1z"/>
<path class="st7" d="M700.1,272.5c-7.3-0.9-14.6-4.1-21.9-2.5c-4.5,1-8.4,3.8-12.1,6.7c-13.5,10.8-25,24-33.9,38.8
	c-1.5,2.2-2.6,4.7-3.1,7.3c-0.5,3,0.4,6.1,1.3,9.1c6.7,19.7,20.9,36.2,27.4,56c6.8,20.8,4.5,43.5-0.6,64.8
	c-6.2,26.3-16.4,51.5-30.1,74.8c-1.9,3.5-4.2,6.7-6.9,9.5c-3.6,3.4-8.3,5.9-10.4,10.3c-1,2-1.3,4.2-2,6.3c-2,5.9-6.7,10.9-7.1,17
	c-0.3,4.7,1.9,9.2,3.2,13.7c2.3,7.7,2,16-0.7,23.5c-4.9,13.6-17.9,25.9-14.1,39.8c8.4-2.4,17.7-5.5,21.6-13.3c1.4-2.8,2.1-6,4.4-8
	c4.7-4,12.7-0.4,17.7-4c3.8-2.8,3.9-8.5,2.2-12.9c-1.7-4.4-4.6-8.3-5.9-12.8c-2.2-8.1,1.3-16.8,0.7-25.2c-0.3-3.9-1.5-7.6-1.6-11.5
	c-0.2-7.5,4-14.6,9.6-19.8c5.6-5.1,12.4-8.5,19.2-11.9l25.5-12.7c9.3-4.6,19.4-10.2,22.4-20.1c1.2-3.7,1.2-7.6,1.2-11.5
	c0.9-59,15.7-116.9,30.4-174.1c2.3-8.9,4.6-17.8,8-26.3c3.4-8.5,10-15.3,13.4-23.2C738.5,258.1,720.5,275.1,700.1,272.5z"/>
<path class="st13" d="M840.8,642.9c2.3,13.7,3.6,27.6,4.7,41.5c-17.6,14.6-36.5,27.2-55.7,39c-1.1,0.7-2.2,1.3-3.3,2l-0.1,0.5
	c0-0.1-0.1-0.2-0.2-0.3c-1.5-3.2-4.1-5.8-7.3-7.2c-7.2-15.1-14.4-30.2-21.6-45.4c-3.9-8.2-7.8-16.4-9.8-25.2c0-0.2-0.1-0.4-0.1-0.6
	c-1.5-6.8-1.8-13.9-2.8-20.8c-0.5-4-1.4-7.9-2.7-11.6c-1.2-3.4-2.8-6.6-4.2-9.9c-1.8-4.1-3.2-8.2-3.3-12.5c0-1.4,0.1-2.9-0.6-4.1
	c-0.7-1-1.6-1.9-2.7-2.6c-2.6-2.3-3.9-5.8-3.3-9.3c-5.9,0.3-9.2,6.6-11.5,11.9c-2.1,5.2-4.9,10.1-8.4,14.6c-2.5,3.2-5.6,5.8-9.2,7.7
	c-0.3,0.2-0.6,0.3-1,0.4c-8.1,3.6-17.7,2.3-26.5,0.7c-7.7-1.4-15.7-3.2-21.9-8l-0.7-0.5c-1.8-1.5-3.5-3.3-4.9-5.2
	c-5.2-7.1-7.5-16.5-8.8-25.4c-0.1-0.8-0.2-1.7-0.3-2.5c-0.9-6.3-1.1-12.7-0.7-19c0.1-1.6,0.3-3.1,0.5-4.7c0.1-1,0.3-2,0.4-3
	c0,0,0-0.1,0-0.1c0.3-1.6,0.5-3.2,0.8-4.9c1-5.5,2-11.2,4.9-16c1.9-3,4.4-5.6,7.2-7.7c1.1-0.8,2.1-1.6,3.2-2.4
	c1.8-1.2,3.6-2.4,5.5-3.5c4.7-2.8,9.6-5.2,14.6-7.1c1.2-0.5,2.4-0.9,3.7-1.3c4.8-1.7,9.9-2.1,14.9-1.2c4.4,0.6,8.9,0.9,13.3,0.8
	c11.4-0.2,22.9-2.4,34.4-3.8c15.9-2,32.9-2.2,46.7,5.9c0.7,0.4,1.3,0.8,2,1.2c6.8,4.5,12.3,10.7,16.8,17.7c1,1.5,1.8,3,2.7,4.5
	c1.9,3.5,3.7,7.1,5.2,10.8c0.9,1.8,1.4,3.8,1.5,5.9c0,0.4-0.1,0.8-0.2,1.2c-0.3,1.4-0.8,2.7-1,4.1c-0.6,5.3,3.9,9.8,5.6,14.8
	c1.1,3.3,1,6.8,1.6,10.3c0.9,4.9,3.3,9.3,5.4,13.7c3.4,7.1,6.3,14.4,8.7,21.8c1.7,5.2,3.2,10.5,4.4,15.8c0.4,1.7,0.8,3.4,1.2,5.1
	C839.2,633.6,840.1,638.3,840.8,642.9z"/>
<polygon class="st1" points="944.9,498.4 944.9,505.3 943.6,505.2 942.2,505.2 926.5,505 887.8,504.5 877,504.4 874.2,504.3 
	857.9,504.1 835,503.8 786.3,503.2 701.8,502.1 671.3,501.7 659.1,501.6 647.8,501.4 640.8,501.3 634.1,501.2 584.9,500.6 
	571.2,500.4 568.2,500.4 566.3,495.4 552.3,459.2 549.7,452.6 551.7,444.8 560.4,450.6 565.8,451.3 654.8,462.4 671.5,464.4 
	707,468.8 741.6,473.2 755.2,474.8 835.7,484.9 858.2,487.7 876.8,490 943,498.2 "/>
<polygon class="st4" points="551.7,444.8 569.2,490.6 944.9,498.4 944.9,448.7 "/>
<polygon class="st1" points="571.2,495.5 574.1,775.5 587.8,773.6 584.8,495.5 "/>
<path class="st1" d="M943.6,505.2h-1.4c-2.3,17.5-6,34.7-11.2,51.5l-4.4-51.7l-0.2-2.2l16.4-1.9l0.5-0.1L943.6,505.2z"/>
<polygon class="st9" points="890.2,472.1 747.3,475 702.9,460.4 821.9,453.5 "/>
<path class="st11" d="M710.9,415.2c-1.5,0.6-2.9,1.5-3.9,2.8c-0.8,1.3-1.3,2.9-1.5,4.4l-2.4,14.3c-0.4,1.3-0.3,2.7,0.2,4
	c0.6,1.2,2.4,1.8,3.3,0.8c-0.1,2.8,0.1,5.8,1.8,8.1c1.6,2.3,5,3.5,7.3,1.9c1.4,2.2,4.3,2.9,6.5,1.6c0.2-0.1,0.4-0.3,0.6-0.5
	c-1.4,0.5-1.5,2.6-0.5,3.7c1.1,1,2.5,1.5,4,1.6c17.1,2.4,34.6,0.2,50.6-6.4c1.5-0.6-2.5-19.3-2.9-21.2c-1-4.5-1.5-10-5.3-13
	c-9.1-7.2-25.2-8.7-36.2-7.8C725.2,410,717.8,412,710.9,415.2z"/>
<path class="st6" d="M856.3,417.3c-35.3,0.7-71.3,1.2-105-9.3c3.2,12.5,3,25.6-0.6,37.9l165,13.7c7,0.6,36,3.9,42.8,2.2
	s-57.2-22.7-54.6-29.3c7.1-18,30.9-28.5,13.8-29.2C896,402.5,878.2,416.9,856.3,417.3z"/>
<path class="st7" d="M857.3,419.3c-35.3,0.7-71.3,1.2-105-9.3c3.2,12.5,3,25.6-0.6,37.9l165,13.7c7,0.6,36,3.9,42.8,2.2
	c6.8-1.7,5.2-10.1,7.8-16.6c7.1-18-31.5-41.2-48.7-41.9C897,404.4,879.2,418.9,857.3,419.3z"/>
<path class="st11" d="M801.2,422c1.5,0.6,2.9,1.5,3.9,2.8c0.8,1.3,1.3,2.9,1.5,4.4l2.4,14.3c0.4,1.3,0.3,2.7-0.2,4
	c-0.6,1.2-2.4,1.8-3.3,0.8c0.1,2.8-0.1,5.8-1.8,8.1c-1.6,2.3-5,3.5-7.4,1.9c-1.4,2.2-4.3,2.9-6.5,1.6c-0.2-0.1-0.4-0.3-0.6-0.5
	c1.4,0.5,1.5,2.6,0.5,3.7c-1.1,1-2.5,1.5-4,1.6c-17.1,2.4-34.6,0.2-50.6-6.4c-1.5-0.6,2.5-19.3,2.9-21.2c1-4.5,1.5-10,5.3-13
	c9.1-7.2,25.2-8.7,36.2-7.8C787,416.9,794.4,418.8,801.2,422z"/>
<path class="st7" d="M568,390.9c-3.2,4.2-6.5,8.4-8.6,13.3c-4,9.3-3.4,19.8-2.7,29.9c0.2,2.9,0.4,5.9,2,8.3c1.3,1.8,3.1,3.3,5.1,4.3
	c8.4,4.8,18.3,6.2,28,7.3c14.8,1.6,29.6,2.6,44.5,3c36.9,0.9,74.4-2.1,110.3,6.2c-4.4-6.8-4.4-15.7-2-23.4s7.3-14.4,12-21
	c-16.5-5.2-34.1,2.9-51.3,2.1c-17.7-0.8-34.1-11.1-51.8-11c-3.8,0-7.7,0.5-11.4-0.4s-7.3-3.7-7.6-7.5c4.7,1.1,9.2-3,11.2-7.4
	c2-4.4,2.3-9.4,4.2-13.9c4.7-11.1,17.4-16.2,25.4-25.4c1.2-1.4,2.4-3.2,2.4-5.1c-0.2-1.6-0.9-3.1-2-4.4
	c-6.6-8.8-16.5-13.7-24.8-20.5c-2.9-2.4-8.7-11.4-11.9-12.2c-6-1.5-11,7.1-14.9,11.3C604.5,345.9,585.8,368,568,390.9z"/>
<path class="st14" d="M764.2,388.5c2.5,1.8,4.7,4,6.5,6.5c1.9,2.5,2.6,5.7,2,8.7c-0.6-5.8,2.7-11.3,8.1-13.5L764.2,388.5z"/>
<g class="st10">
	<path d="M818.3,132.6c-1.1-3-2.5-6-4-8.9c-1,0.2-1.9,0.4-2.8,0.7c1.7,2.8,3.2,5.7,4.5,8.6C816.8,132.8,817.5,132.7,818.3,132.6z"/>
	<path d="M874.9,171.1c0.3,0.2,0.5,0.5,0.8,0.7c0-0.1,0-0.1-0.1-0.2C875.4,171.4,875.2,171.2,874.9,171.1z"/>
	<path d="M784.2,175.4c0.5-0.4,1-0.8,1.5-1.2l-0.2-4.6l-10.4-0.1c-1.7,1.6-3.5,3.8-2.5,5.9L784.2,175.4z"/>
	<path d="M898.2,253.4c-1.9,3.5-4.5,6.7-8.2,8.1c-2.8,1.1-5.9,1-8.9,0.8c-10.3-0.4-20.7-0.9-30.5-4.3c-4.5-1.6-8.9-3.8-13.7-4.8
		c-5.6-1.2-11.3-0.5-17,0.2l-24.9,2.9c-7.3,0.9-15.5,1.5-21.4-3c-3.4-2.6-5.5-6.6-9.2-8.7c-1.6-0.9-3.4-1.4-4.4-2.9
		c-0.6-1.1-1-2.3-1-3.6c-0.1-1-0.1-2-0.2-3.1c-0.1,3-0.1,6,0.2,8.9c0,1.3,0.3,2.5,1,3.6c1,1.5,2.8,2,4.4,2.9
		c3.7,2.1,5.9,6.1,9.2,8.7c5.9,4.5,14,3.9,21.4,3l24.9-2.9c5.6-0.7,11.4-1.3,17-0.2c4.7,1,9.1,3.2,13.7,4.8
		c9.8,3.4,20.2,3.9,30.5,4.3c3,0.1,6.1,0.2,8.9-0.8c3.7-1.4,6.3-4.6,8.2-8.1c3.6-6.7,4.6-14.3,4.2-21.9
		C902.2,242.9,900.7,248.4,898.2,253.4z"/>
</g>
<path class="st6" d="M818,138.9l13.7,12.7C831.7,151.6,820,146.7,818,138.9z"/>
</svg>
