<?xml version="1.0" encoding="utf-8"?>
<!-- Generator: Adobe Illustrator 23.0.2, SVG Export Plug-In . SVG Version: 6.00 Build 0)  -->
<svg version="1.1" id="Layer_1" xmlns="http://www.w3.org/2000/svg" xmlns:xlink="http://www.w3.org/1999/xlink" x="0px" y="0px"
	 viewBox="0 0 80 40" style="enable-background:new 0 0 80 40;" xml:space="preserve">
<style type="text/css">
	.st0{fill:#EE2B5C;}
	.st1{fill:#FEF48C;}
	.st2{fill:#F05A90;}
	.st3{font-family:'Gotham-Black';}
	.st4{font-size:36.8922px;}
</style>
<g>
	<path class="st0" d="M11.1,91.6l2.2-4.5c2.1,1.2,4.2,1.8,6.8,1.8c3.4,0,5.1-1.7,5.1-4.8v-0.8c-1.4,1.6-3.2,2.9-6,2.9
		c-4.8,0-8.6-3.5-8.6-9v-0.1c0-5.6,3.9-9.1,8.4-9.1c2.9,0,4.6,1.2,6.1,2.7v-2.3h6.8v14.8c0,3.6-0.8,6-2.5,7.8
		c-1.8,1.8-4.5,2.7-8.6,2.7C17,93.8,13.9,93,11.1,91.6z M25.2,77.2L25.2,77.2c0-2.2-1.7-3.8-4-3.8c-2.3,0-4,1.6-4,3.8v0.1
		c0,2.2,1.7,3.7,4,3.7C23.5,81,25.2,79.4,25.2,77.2z"/>
	<path class="st0" d="M35.6,61.7h7.1v5h-7.1V61.7z M35.7,68.5h6.8V88h-6.8V68.5z"/>
	<path class="st0" d="M44.9,85.5l2.6-4.1c2.2,1.5,4.7,2.2,6.7,2.2c1.2,0,1.7-0.4,1.7-1v-0.1c0-0.8-1.1-1.1-3.1-1.7
		c-3.8-1-6.9-2.3-6.9-6.2v-0.1c0-4.1,3.3-6.4,7.8-6.4c2.8,0,5.8,0.8,8,2.3l-2.3,4.3c-2-1.1-4.2-1.8-5.8-1.8c-1,0-1.6,0.4-1.6,0.9
		v0.1c0,0.8,1.1,1.1,3.2,1.7C59,76.7,62,78,62,81.8v0.1c0,4.3-3.2,6.5-8,6.5C50.8,88.4,47.6,87.5,44.9,85.5z"/>
	<path class="st0" d="M65.7,81.9V74h-2.3v-5.5h2.3v-4.9h6.8v4.9H77V74h-4.5v6.6c0,1.4,0.6,1.9,1.9,1.9c0.9,0,1.8-0.3,2.6-0.6v5.4
		c-1.2,0.7-2.8,1.1-4.7,1.1C68.1,88.4,65.7,86.6,65.7,81.9z"/>
	<path class="st1" d="M79.7,80.9h7.1v7h-7.1V80.9z"/>
</g>
<text transform="matrix(1 0 0 1 2.148151e-04 30.7607)"><tspan x="0" y="0" class="st2 st3 st4">gist</tspan><tspan x="70.9" y="0" class="st1 st3 st4">.</tspan></text>
</svg>
