<?xml version="1.0" encoding="utf-8"?>
<!-- Generator: Adobe Illustrator 23.0.2, SVG Export Plug-In . SVG Version: 6.00 Build 0)  -->
<svg version="1.1" id="Layer_1" xmlns="http://www.w3.org/2000/svg" xmlns:xlink="http://www.w3.org/1999/xlink" x="0px" y="0px"
	 viewBox="0 0 800 120" style="enable-background:new 0 0 800 120;" xml:space="preserve">
<style type="text/css">
	.st0{fill:#FFF5CE;}
	.st1{fill:#EE2B5C;}
	.st2{font-family:'Gotham-Black';}
	.st3{font-size:76.2272px;}
	.st4{fill:#EE2C5C;}
</style>
<path class="st0" d="M768.1,120H32.6c-16.5,0-29.8-13.4-29.8-29.8V29.6c0-16.5,13.4-29.8,29.8-29.8h735.5
	c16.5,0,29.8,13.4,29.8,29.8v60.6C797.9,106.6,784.6,120,768.1,120z"/>
<text transform="matrix(1 0 0 1 118.0303 86.5723)" class="st1 st2 st3">esearch    oncern</text>
<path class="st1" d="M109,68.4c1.4-3.6,2.2-7.4,2.2-11.5s-0.8-7.9-2.2-11.5c-4.6-11.5-15.8-19.6-28.9-19.6H24c0,0,0,0,0,0.1l5.1,7.2
	c0,0,0,0,0,0l8.6,12.3c0,0,0,0,0,0l41.2,0c6.4,0,11.8,5,11.9,11.3c0.1,6.4-5.1,11.7-11.5,11.7c-0.6,0-1.1,0-1.7-0.1l0.1,0.1H53.9
	c0,0,0,0,0,0.1l10.9,15.6l2.8,4l16.1,23c0,0,0,0,0,0h23.9c0,0,0,0,0-0.1L91.5,88.1l-1.2-1.7c0,0,0,0,0-0.1
	C98.9,83.4,105.7,76.8,109,68.4z"/>
<path class="st4" d="M496,74.1l-9.7-13.9c0,0-0.1,0-0.1,0c-1.4,5.6-4.7,10.5-9.2,13.9c-1.1,0.8-2.3,1.5-3.5,2.1
	c-3.3,1.7-7.1,2.7-11.1,2.7c-5.5,0-10.5-1.8-14.6-4.8c-2.3-1.8-4.3-3.9-5.9-6.4c-2.5-3.8-3.9-8.4-3.9-13.3c0-7.1,3-13.5,7.8-17.9
	c2.4-2.2,5.2-4,8.3-5.1c2.6-0.9,5.4-1.5,8.3-1.5c0.9,0,1.8,0,2.8,0.2c0,0,0.1,0,0-0.1c-0.8-1.1-11.7-16.7-12.1-17.2c0,0,0,0,0,0
	c-4,0.9-7.8,2.3-11.2,4.2c-2.3,1.3-4.6,2.8-6.6,4.5c-9.5,7.8-15.5,19.7-15.5,32.9c0,23.5,19.1,42.6,42.6,42.6
	c7.9,0,15.3-2.1,21.6-5.9c5.8-3.4,10.7-8.1,14.3-13.8c0,0,0,0,0,0L496,74.1z"/>
</svg>
