<?xml version="1.0" encoding="utf-8"?>
<!-- Generator: Adobe Illustrator 23.0.2, SVG Export Plug-In . SVG Version: 6.00 Build 0)  -->
<svg version="1.1" id="Layer_1" xmlns="http://www.w3.org/2000/svg" xmlns:xlink="http://www.w3.org/1999/xlink" x="0px" y="0px"
	 viewBox="0 0 100 50" style="enable-background:new 0 0 100 50;" xml:space="preserve">
<style type="text/css">
	.st0{fill:#F05A90;}
	.st1{font-family:'Gotham-Black';}
	.st2{font-size:46.0068px;}
	.st3{fill:#FEF48C;}
	.st4{fill:#EE2B5C;}
</style>
<text transform="matrix(1 0 0 1 0 38.2676)"><tspan x="0" y="0" class="st0 st1 st2">gist</tspan><tspan x="88.4" y="0" class="st3 st1 st2">.</tspan></text>
<g>
	<path class="st4" d="M6.6,95.1l2.7-5.5c2.5,1.4,5.1,2.2,8.3,2.2c4.2,0,6.2-2.1,6.2-5.8V85c-1.7,1.9-3.9,3.6-7.3,3.6
		c-5.8,0-10.5-4.2-10.5-11v-0.1c0-6.9,4.8-11.1,10.3-11.1c3.6,0,5.7,1.4,7.5,3.3v-2.8h8.3v18c0,4.3-1,7.4-3.1,9.5
		c-2.2,2.2-5.5,3.3-10.5,3.3C13.9,97.8,10.1,96.8,6.6,95.1z M23.9,77.5L23.9,77.5c0-2.7-2-4.7-4.8-4.7c-2.9,0-4.9,2-4.9,4.6v0.1
		c0,2.6,2,4.6,4.9,4.6C21.8,82.2,23.9,80.2,23.9,77.5z"/>
	<path class="st4" d="M36.5,58.6h8.7v6.1h-8.7V58.6z M36.7,66.9h8.3v23.8h-8.3V66.9z"/>
	<path class="st4" d="M47.9,87.7l3.1-5c2.7,1.8,5.7,2.7,8.2,2.7c1.4,0,2.1-0.4,2.1-1.3V84c0-0.9-1.3-1.3-3.8-2
		c-4.7-1.2-8.4-2.8-8.4-7.6v-0.1c0-5,4-7.9,9.5-7.9c3.5,0,7.1,1,9.8,2.8l-2.9,5.3c-2.5-1.4-5.1-2.2-7-2.2c-1.3,0-1.9,0.5-1.9,1.1
		v0.1c0,0.9,1.4,1.4,3.9,2.1c4.7,1.3,8.4,2.9,8.4,7.6v0.1c0,5.2-3.9,7.9-9.7,7.9C55.2,91.2,51.2,90.1,47.9,87.7z"/>
	<path class="st4" d="M73.3,83.3v-9.7h-2.8v-6.7h2.8v-6h8.3v6h5.5v6.7h-5.5v8c0,1.7,0.7,2.4,2.3,2.4c1.1,0,2.2-0.3,3.2-0.8v6.5
		c-1.5,0.8-3.5,1.4-5.8,1.4C76.3,91.2,73.3,89,73.3,83.3z"/>
	<path class="st3" d="M90.4,82.1h8.7v8.6h-8.7V82.1z"/>
</g>
<text transform="matrix(1 0 0 1 4.4176 89.7165)"><tspan x="0" y="0" class="st0 st1" style="font-size:42.6103px;">gist</tspan><tspan x="81.9" y="0" class="st3 st1" style="font-size:42.6103px;">.</tspan></text>
</svg>
