<?xml version="1.0" encoding="utf-8"?>
<!-- Generator: Adobe Illustrator 23.0.2, SVG Export Plug-In . SVG Version: 6.00 Build 0)  -->
<svg version="1.1" id="Layer_1" xmlns="http://www.w3.org/2000/svg" xmlns:xlink="http://www.w3.org/1999/xlink" x="0px" y="0px"
	 viewBox="0 0 30 30" style="enable-background:new 0 0 30 30;" xml:space="preserve">
<style type="text/css">
	.st0{fill:#EE2C5C;}
	.st1{fill:#1A1F4F;}
	.st2{fill:none;stroke:#EE2E5D;stroke-miterlimit:10;}
	.st3{fill:#EE2E5D;}
</style>
<g>
	<path class="st0" d="M30-22.8c-3.2,0-5.5,2.5-5.5,5.7v0c0,3.4,2.4,5.7,5.9,5.7c2.2,0,3.7-0.9,4.8-2.2L33-15.4
		c-0.8,0.8-1.5,1.1-2.4,1.1c-1.2,0-2.1-0.6-2.4-1.8h7.3c0-0.3,0-0.5,0-0.8C35.5-20.1,33.8-22.8,30-22.8z M28.1-18
		c0.2-1.2,0.9-2,1.9-2c1.1,0,1.8,0.8,1.9,2H28.1z"/>
	<path class="st0" d="M42.1-18.6c-1.2-0.3-1.8-0.5-1.8-1v0c0-0.3,0.3-0.5,0.9-0.5c0.9,0,2.1,0.4,3.2,1l1.3-2.4
		c-1.3-0.8-2.9-1.3-4.5-1.3c-2.5,0-4.4,1.3-4.4,3.6v0c0,2.2,1.7,2.9,3.9,3.5c1.2,0.3,1.8,0.5,1.8,0.9v0c0,0.4-0.3,0.6-1,0.6
		c-1.1,0-2.5-0.4-3.8-1.3L36.4-13c1.5,1.1,3.3,1.6,5.2,1.6c2.7,0,4.5-1.3,4.5-3.7v0C46-17.2,44.3-18,42.1-18.6z"/>
	<path class="st0" d="M52.7-22.8c-3.2,0-5.5,2.5-5.5,5.7v0c0,3.4,2.4,5.7,5.9,5.7c2.2,0,3.7-0.9,4.8-2.2l-2.1-1.8
		c-0.8,0.8-1.5,1.1-2.4,1.1c-1.2,0-2.1-0.6-2.4-1.8h7.3c0-0.3,0-0.5,0-0.8C58.2-20.1,56.5-22.8,52.7-22.8z M50.8-18
		c0.2-1.2,0.9-2,1.9-2c1.1,0,1.8,0.8,1.9,2H50.8z"/>
	<path class="st0" d="M64.7-22.8c-1.9,0-3.2,0.3-4.4,0.9l0.8,2.7c1-0.4,1.9-0.6,3-0.6c1.5,0,2.2,0.6,2.2,1.8v0.2
		c-0.6-0.2-1.6-0.4-2.6-0.4c-2.6,0-4.3,1.2-4.3,3.4v0c0,2.2,1.6,3.4,3.7,3.4c1.4,0,2.5-0.5,3.2-1.4v1.1H70v-6.3
		c0-1.5-0.3-2.7-1.2-3.5C68-22.3,66.6-22.8,64.7-22.8z M66.3-15.6c0,1.1-0.8,1.8-1.9,1.8c-0.8,0-1.4-0.4-1.4-1.2v0
		c0-0.8,0.6-1.4,1.8-1.4c0.6,0,1.1,0.1,1.5,0.3V-15.6z"/>
	<path class="st0" d="M75.8-20.4v-2.2H72v11h3.9V-15c0-2.5,1.1-3.7,3.1-3.7h0.3v-4.1C77.5-22.9,76.5-21.9,75.8-20.4z"/>
	<path class="st0" d="M86-14.6c-1.3,0-2.2-1.1-2.2-2.5v0c0-1.3,0.9-2.4,2.1-2.4c0.9,0,1.5,0.4,2,1.2l2.6-1.9
		c-0.9-1.5-2.4-2.5-4.7-2.5c-3.5,0-5.9,2.6-5.9,5.7v0c0,3.1,2.4,5.7,5.7,5.7c2.4,0,3.9-1,4.9-2.5l-2.6-1.9
		C87.5-15,86.9-14.6,86-14.6z"/>
	<path class="st0" d="M99.1-22.8c-1.6,0-2.6,0.8-3.3,1.7v-5.3H92v14.8h3.9v-5.9c0-1.2,0.7-1.8,1.6-1.8c0.9,0,1.5,0.6,1.5,1.8v5.9
		h3.8v-7.2C102.9-21.3,101.5-22.8,99.1-22.8z"/>
	<path class="st0" d="M132.9-22.8c-3.5,0-6.1,2.6-6.1,5.7v0c0,3.1,2.5,5.7,6,5.7c3.5,0,6.1-2.6,6.1-5.7v0
		C139-20.3,136.4-22.8,132.9-22.8z M135.2-17.1c0,1.3-0.9,2.4-2.3,2.4c-1.4,0-2.3-1.1-2.3-2.5v0c0-1.3,0.9-2.4,2.3-2.4
		C134.2-19.6,135.2-18.4,135.2-17.1L135.2-17.1z"/>
	<path class="st0" d="M147.7-22.8c-1.6,0-2.6,0.9-3.3,1.8v-1.5h-3.9v11h3.9v-5.9c0-1.2,0.7-1.8,1.6-1.8c0.9,0,1.5,0.6,1.5,1.8v5.9
		h3.8v-7.2C151.4-21.3,150-22.8,147.7-22.8z"/>
	<path class="st0" d="M158.9-14.6c-1.3,0-2.2-1.1-2.2-2.5v0c0-1.3,0.9-2.4,2.1-2.4c0.9,0,1.5,0.4,2,1.2l2.6-1.9
		c-0.9-1.5-2.4-2.5-4.7-2.5c-3.5,0-5.9,2.6-5.9,5.7v0c0,3.1,2.4,5.7,5.7,5.7c2.4,0,3.9-1,4.9-2.5l-2.6-1.9
		C160.4-15,159.8-14.6,158.9-14.6z"/>
	<path class="st0" d="M169.7-22.8c-3.2,0-5.5,2.5-5.5,5.7v0c0,3.4,2.4,5.7,5.9,5.7c2.2,0,3.7-0.9,4.8-2.2l-2.1-1.8
		c-0.8,0.8-1.5,1.1-2.4,1.1c-1.2,0-2.1-0.6-2.4-1.8h7.3c0-0.3,0-0.5,0-0.8C175.3-20.1,173.5-22.8,169.7-22.8z M167.8-18
		c0.2-1.2,0.9-2,1.9-2c1.1,0,1.8,0.8,1.9,2H167.8z"/>
	<path class="st0" d="M180.7-20.4v-2.2h-3.9v11h3.9V-15c0-2.5,1.1-3.7,3.1-3.7h0.3v-4.1C182.4-22.9,181.4-21.9,180.7-20.4z"/>
	<path class="st0" d="M192.7-22.8c-1.6,0-2.6,0.9-3.3,1.8v-1.5h-3.9v11h3.9v-5.9c0-1.2,0.7-1.8,1.6-1.8c0.9,0,1.5,0.6,1.5,1.8v5.9
		h3.8v-7.2C196.4-21.3,195-22.8,192.7-22.8z"/>
	<path class="st0" d="M13.8-27.8H-1.1c0,0,0,0,0,0l1.3,1.9c0,0,0,0,0,0l2.3,3.3c0,0,0,0,0,0h11c1.7,0,3.1,1.3,3.2,3
		c0,1.7-1.4,3.1-3.1,3.1c-0.1,0-0.3,0-0.4,0l0,0H6.8c0,0,0,0,0,0l2.9,4.1l0.8,1.1l4.3,6.1c0,0,0,0,0,0h6.3c0,0,0,0,0,0l-4.3-6.1
		l-0.3-0.5c0,0,0,0,0,0c2.3-0.8,4.1-2.5,4.9-4.7c0.4-0.9,0.6-2,0.6-3.1c0-1.1-0.2-2.1-0.6-3.1C20.3-25.6,17.3-27.8,13.8-27.8z"/>
	<path class="st0" d="M125.5-15l-2.6-3.7c0,0,0,0,0,0c-0.4,1.5-1.2,2.8-2.4,3.7c-0.3,0.2-0.6,0.4-0.9,0.6c-0.9,0.5-1.9,0.7-3,0.7
		c-1.5,0-2.8-0.5-3.9-1.3c-0.6-0.5-1.2-1-1.6-1.7c-0.7-1-1-2.2-1-3.5c0-1.9,0.8-3.6,2.1-4.8c0.6-0.6,1.4-1.1,2.2-1.4
		c0.7-0.3,1.4-0.4,2.2-0.4c0.2,0,0.5,0,0.7,0c0,0,0,0,0,0c-0.2-0.3-3.1-4.4-3.2-4.6c0,0,0,0,0,0c-1.1,0.2-2.1,0.6-3,1.1
		c-0.6,0.3-1.2,0.7-1.8,1.2c-2.5,2.1-4.1,5.2-4.1,8.7c0,6.3,5.1,11.3,11.3,11.3c2.1,0,4.1-0.6,5.7-1.6c1.5-0.9,2.8-2.2,3.8-3.7
		c0,0,0,0,0,0L125.5-15z"/>
</g>
<rect x="-18.4" y="8.8" transform="matrix(-1 4.511090e-11 -4.511090e-11 -1 -24.244 30.044)" class="st1" width="12.5" height="12.5"/>
<rect x="-83" y="-28.4" transform="matrix(-1 4.496524e-11 -4.496524e-11 -1 -153.468 -44.3708)" class="st2" width="12.5" height="12.5"/>
<rect x="-68.1" y="-13.2" transform="matrix(-1 4.511090e-11 -4.511090e-11 -1 -123.692 -13.9868)" class="st2" width="12.5" height="12.5"/>
<rect x="-68.6" y="-29" transform="matrix(-1 4.495059e-11 -4.495059e-11 -1 -123.676 -44.3988)" class="st3" width="13.5" height="13.5"/>
<rect x="-83.5" y="-13.8" transform="matrix(-1 4.501765e-11 -4.501765e-11 -1 -153.4 -14.1588)" class="st3" width="13.5" height="13.5"/>
<path class="st0" d="M27.1,8.3h-24c-1.5,0-2.6-1.2-2.6-2.6v0C0.5,4.2,1.6,3,3.1,3h24c1.5,0,2.6,1.2,2.6,2.6v0
	C29.7,7.1,28.5,8.3,27.1,8.3z"/>
<path class="st0" d="M27.1,17H10.7c-1.5,0-2.6-1.2-2.6-2.6v0c0-1.5,1.2-2.6,2.6-2.6h16.3c1.5,0,2.6,1.2,2.6,2.6v0
	C29.7,15.8,28.5,17,27.1,17z"/>
<path class="st0" d="M27.1,25.7h-9.4c-1.5,0-2.6-1.2-2.6-2.6v0c0-1.5,1.2-2.6,2.6-2.6h9.4c1.5,0,2.6,1.2,2.6,2.6v0
	C29.7,24.6,28.5,25.7,27.1,25.7z"/>
</svg>
