<?xml version="1.0" encoding="utf-8"?>
<!-- Generator: Adobe Illustrator 23.0.2, SVG Export Plug-In . SVG Version: 6.00 Build 0)  -->
<svg version="1.1" id="Layer_1" xmlns="http://www.w3.org/2000/svg" xmlns:xlink="http://www.w3.org/1999/xlink" x="0px" y="0px"
	 viewBox="0 0 300 40" style="enable-background:new 0 0 300 40;" xml:space="preserve">
<style type="text/css">
	.st0{fill:#EE2C5C;}
</style>
<g>
	<path class="st0" d="M53.5,12.7c-4.7,0-8,3.7-8,8.3v0.1c0,4.9,3.5,8.3,8.5,8.3c3.2,0,5.4-1.3,6.9-3.2l-3.1-2.6
		c-1.1,1.1-2.2,1.6-3.5,1.6c-1.7,0-3-0.9-3.4-2.6h10.6c0-0.4,0-0.8,0-1.1C61.5,16.7,59,12.7,53.5,12.7z M50.8,19.7
		c0.3-1.7,1.3-2.9,2.8-2.9c1.5,0,2.6,1.1,2.8,2.9H50.8z"/>
	<path class="st0" d="M71.1,18.9c-1.7-0.5-2.6-0.8-2.6-1.4v-0.1c0-0.4,0.4-0.8,1.3-0.8c1.3,0,3.1,0.6,4.7,1.5l1.9-3.5
		c-1.8-1.2-4.2-1.9-6.6-1.9c-3.7,0-6.4,1.9-6.4,5.3v0.1c0,3.2,2.5,4.3,5.6,5.1c1.7,0.5,2.6,0.7,2.6,1.4v0.1c0,0.6-0.4,0.9-1.4,0.9
		c-1.6,0-3.6-0.6-5.5-1.8L62.7,27c2.2,1.6,4.8,2.4,7.5,2.4c3.9,0,6.5-1.8,6.5-5.3v-0.1C76.7,20.9,74.2,19.8,71.1,18.9z"/>
	<path class="st0" d="M86.4,12.7c-4.7,0-8,3.7-8,8.3v0.1c0,4.9,3.5,8.3,8.5,8.3c3.2,0,5.4-1.3,6.9-3.2l-3.1-2.6
		c-1.1,1.1-2.2,1.6-3.5,1.6c-1.7,0-3-0.9-3.4-2.6h10.6c0-0.4,0-0.8,0-1.1C94.4,16.7,91.9,12.7,86.4,12.7z M83.7,19.7
		c0.3-1.7,1.3-2.9,2.8-2.9c1.5,0,2.6,1.1,2.8,2.9H83.7z"/>
	<path class="st0" d="M103.8,12.8c-2.7,0-4.6,0.5-6.4,1.2l1.1,3.9c1.4-0.6,2.7-0.9,4.4-0.9c2.1,0,3.2,0.9,3.2,2.6V20
		c-0.9-0.3-2.4-0.6-3.8-0.6c-3.7,0-6.2,1.7-6.2,5v0.1c0,3.2,2.3,4.9,5.3,4.9c2.1,0,3.6-0.8,4.7-2V29h5.5v-9.1c0-2.2-0.5-3.9-1.7-5.1
		C108.6,13.5,106.6,12.8,103.8,12.8z M106.1,23.2c0,1.6-1.1,2.6-2.8,2.6c-1.1,0-2-0.6-2-1.7V24c0-1.2,0.9-2,2.6-2
		c0.8,0,1.6,0.2,2.2,0.4V23.2z"/>
	<path class="st0" d="M120,16.3v-3.2h-5.6V29h5.6V24c0-3.7,1.6-5.3,4.6-5.3h0.5v-5.9C122.4,12.7,120.9,14.1,120,16.3z"/>
	<path class="st0" d="M134.7,24.6c-1.9,0-3.2-1.6-3.2-3.6V21c0-1.9,1.3-3.5,3.1-3.5c1.4,0,2.2,0.6,3,1.7l3.8-2.8
		c-1.4-2.1-3.5-3.6-6.8-3.6c-5,0-8.5,3.8-8.5,8.3v0.1c0,4.5,3.5,8.3,8.3,8.3c3.5,0,5.6-1.5,7.1-3.6l-3.7-2.7
		C136.8,24,136,24.6,134.7,24.6z"/>
	<path class="st0" d="M153.7,12.7c-2.3,0-3.7,1.2-4.8,2.5V7.5h-5.6V29h5.6v-8.6c0-1.7,1-2.7,2.4-2.7c1.3,0,2.2,0.9,2.2,2.7V29h5.6
		V18.6C159.2,14.9,157.1,12.7,153.7,12.7z"/>
	<path class="st0" d="M202.8,12.7c-5.1,0-8.8,3.8-8.8,8.3v0.1c0,4.5,3.7,8.3,8.8,8.3c5.1,0,8.8-3.8,8.8-8.3V21
		C211.5,16.4,207.8,12.7,202.8,12.7z M206.1,21.1c0,1.9-1.3,3.5-3.3,3.5c-2,0-3.4-1.6-3.4-3.6V21c0-1.9,1.3-3.5,3.3-3.5
		C204.7,17.4,206.1,19.1,206.1,21.1L206.1,21.1z"/>
	<path class="st0" d="M224.2,12.7c-2.3,0-3.7,1.3-4.8,2.6v-2.2h-5.6V29h5.6v-8.6c0-1.7,1-2.7,2.4-2.7c1.3,0,2.2,0.9,2.2,2.7V29h5.6
		V18.6C229.6,14.9,227.6,12.7,224.2,12.7z"/>
	<path class="st0" d="M240.5,24.6c-1.9,0-3.2-1.6-3.2-3.6V21c0-1.9,1.3-3.5,3.1-3.5c1.4,0,2.2,0.6,3,1.7l3.8-2.8
		c-1.4-2.1-3.5-3.6-6.8-3.6c-5,0-8.5,3.8-8.5,8.3v0.1c0,4.5,3.5,8.3,8.3,8.3c3.5,0,5.6-1.5,7.1-3.6l-3.7-2.7
		C242.6,24,241.8,24.6,240.5,24.6z"/>
	<path class="st0" d="M256.1,12.7c-4.7,0-8,3.7-8,8.3v0.1c0,4.9,3.5,8.3,8.5,8.3c3.2,0,5.4-1.3,6.9-3.2l-3.1-2.6
		c-1.1,1.1-2.2,1.6-3.5,1.6c-1.7,0-3-0.9-3.4-2.6h10.6c0-0.4,0-0.8,0-1.1C264.2,16.7,261.6,12.7,256.1,12.7z M253.4,19.7
		c0.3-1.7,1.3-2.9,2.8-2.9c1.5,0,2.6,1.1,2.8,2.9H253.4z"/>
	<path class="st0" d="M272.1,16.3v-3.2h-5.6V29h5.6V24c0-3.7,1.6-5.3,4.6-5.3h0.5v-5.9C274.5,12.7,273,14.1,272.1,16.3z"/>
	<path class="st0" d="M289.5,12.7c-2.3,0-3.7,1.3-4.8,2.6v-2.2h-5.6V29h5.6v-8.6c0-1.7,1-2.7,2.4-2.7c1.3,0,2.2,0.9,2.2,2.7V29h5.6
		V18.6C294.9,14.9,292.8,12.7,289.5,12.7z"/>
	<path class="st0" d="M30,5.5H8.4c0,0,0,0,0,0l1.9,2.8c0,0,0,0,0,0l3.3,4.8c0,0,0,0,0,0h15.9c2.5,0,4.6,1.9,4.6,4.4
		c0,2.5-2,4.5-4.4,4.5c-0.2,0-0.4,0-0.6,0l0,0h-9.2c0,0,0,0,0,0l4.2,6l1.1,1.5l6.2,8.9c0,0,0,0,0,0h9.2c0,0,0,0,0,0l-6.2-8.8
		L34,28.9c0,0,0,0,0,0c3.3-1.1,5.9-3.7,7.2-6.9c0.6-1.4,0.9-2.9,0.9-4.4s-0.3-3.1-0.9-4.4C39.4,8.7,35.1,5.5,30,5.5z"/>
	<path class="st0" d="M192,24.1l-3.8-5.4c0,0,0,0,0,0c-0.5,2.2-1.8,4.1-3.5,5.4c-0.4,0.3-0.9,0.6-1.3,0.8c-1.3,0.7-2.8,1-4.3,1
		c-2.1,0-4.1-0.7-5.6-1.9c-0.9-0.7-1.7-1.5-2.3-2.5c-1-1.5-1.5-3.2-1.5-5.1c0-2.7,1.2-5.2,3-6.9c0.9-0.9,2-1.5,3.2-2
		c1-0.4,2.1-0.6,3.2-0.6c0.4,0,0.7,0,1.1,0.1c0,0,0,0,0,0c-0.3-0.4-4.5-6.4-4.7-6.6c0,0,0,0,0,0c-1.5,0.3-3,0.9-4.3,1.6
		c-0.9,0.5-1.8,1.1-2.5,1.7c-3.6,3-6,7.6-6,12.7c0,9.1,7.4,16.4,16.4,16.4c3,0,5.9-0.8,8.3-2.3c2.2-1.3,4.1-3.1,5.5-5.3c0,0,0,0,0,0
		L192,24.1z"/>
</g>
</svg>
